<?xml version="1.0" encoding="utf-8"?>
<!-- Generator: Adobe Illustrator 25.4.1, SVG Export Plug-In . SVG Version: 6.00 Build 0)  -->
<svg version="1.1" id="Capa_1" xmlns="http://www.w3.org/2000/svg" xmlns:xlink="http://www.w3.org/1999/xlink" x="0px" y="0px"
	 width="4.982px" height="7.152px" viewBox="0 0 4.982 7.152" style="enable-background:new 0 0 4.982 7.152;" xml:space="preserve"
	>
<style type="text/css">
	.st0{fill:#84EEBD;}
	.st1{opacity:0.7;fill:#FFFFFF;}
	.st2{fill:#DA69A8;}
	.st3{fill:#FBD187;}
	.st4{opacity:0.5;fill:#FFFFFF;}
	.st5{fill:#29ABE2;}
	.st6{opacity:0.2;}
	.st7{fill:#FFFFFF;}
	.st8{fill:#E5A43C;}
	.st9{stroke:#FFFFFF;stroke-miterlimit:10;}
	.st10{stroke:#FFFFFF;stroke-width:3;stroke-miterlimit:10;}
	.st11{stroke:#FFFFFF;stroke-width:3;stroke-linecap:round;stroke-linejoin:round;stroke-miterlimit:10;}
	.st12{fill:none;stroke:#FFFFFF;stroke-width:3;stroke-miterlimit:10;}
	.st13{fill:#5D3424;stroke:#33170E;stroke-width:3;stroke-linecap:round;stroke-linejoin:round;stroke-miterlimit:10;}
	.st14{fill:#DA69A8;stroke:#91306A;stroke-width:3;stroke-linecap:round;stroke-linejoin:round;stroke-miterlimit:10;}
	.st15{fill:#84EEBD;stroke:#309964;stroke-width:3;stroke-linecap:round;stroke-linejoin:round;stroke-miterlimit:10;}
	.st16{opacity:0.1;}
	.st17{opacity:0.7;}
	.st18{opacity:0.4;}
	.st19{fill:#5D3424;}
	.st20{fill:#33170E;}
	.st21{fill:#91306A;}
	.st22{fill:#309964;}
</style>
<rect x="615.491" y="-147.157" class="st0" width="207.303" height="625.823"/>
<path class="st1" d="M764.755,217.304l-61.605,5.768c-42.974,4.024-79.211-31.633-75.882-74.666l8.421-108.861
	c0.834-10.78,9.126-19.492,19.852-20.857L764.954,4.765c19.283-2.454,36.343,12.573,36.343,32.012v140.404
	C801.297,197.982,785.466,215.365,764.755,217.304z"/>
<path class="st1" d="M745.395-0.776c0,0,26.805-32.582,40.099-21.422c7.968,6.69,2.252,17.589-9.284,17.477
	C764.674-4.833,745.395-0.776,745.395-0.776z"/>
<path class="st1" d="M671.104,230.976c0,0-41.817,5.604-43.952-11.622c-1.279-10.325,10.33-14.414,18.701-6.475
	C654.224,220.818,671.104,230.976,671.104,230.976z"/>
<circle class="st1" cx="734.651" cy="-3.796" r="5.02"/>
<circle class="st1" cx="627.055" cy="199.565" r="5.02"/>
<rect x="408.188" y="-147.157" class="st2" width="207.303" height="625.823"/>
<path class="st1" d="M563.154,214.706l-61.605,5.768c-42.974,4.024-79.211-31.633-75.882-74.666l8.421-108.861
	c0.834-10.78,9.126-19.492,19.852-20.857L563.353,2.167c19.283-2.454,36.343,12.573,36.343,32.012v140.404
	C599.696,195.383,583.864,212.767,563.154,214.706z"/>
<path class="st1" d="M543.794-3.375c0,0,26.805-32.582,40.099-21.422c7.968,6.69,2.252,17.589-9.284,17.477
	C563.073-7.432,543.794-3.375,543.794-3.375z"/>
<path class="st1" d="M469.503,228.378c0,0-41.817,5.604-43.952-11.621c-1.279-10.325,10.33-14.414,18.701-6.475
	S469.503,228.378,469.503,228.378z"/>
<circle class="st1" cx="533.05" cy="-6.395" r="5.02"/>
<circle class="st1" cx="425.454" cy="196.967" r="5.02"/>
<rect x="201.128" y="-147.157" class="st3" width="207.303" height="625.823"/>
<path class="st4" d="M353.237,211.872l-61.605,5.768c-42.974,4.024-79.211-31.633-75.882-74.666l8.421-108.861
	c0.834-10.78,9.126-19.492,19.852-20.857L353.435-0.667c19.283-2.454,36.343,12.573,36.343,32.012v140.404
	C389.779,192.549,373.947,209.933,353.237,211.872z"/>
<rect x="822.794" y="-147.157" class="st5" width="207.303" height="625.823"/>
<path class="st6" d="M360.682,185.676c-1.198-2.323-3.099-3.618-4.381-4.27c0.789-3.373,1.188-6.844,1.188-10.337
	c0-24.931-20.282-45.213-45.212-45.213s-45.212,20.282-45.212,45.213c0,3.493,0.399,6.965,1.188,10.339
	c-1.286,0.655-3.197,1.958-4.391,4.285c-1.429,2.786-1.448,6.205-0.057,10.164c1.429,4.067,5.241,6.366,9.629,7.636l32.74,79.853
	c1.035,2.525,3.374,4.094,6.103,4.094s5.068-1.568,6.103-4.094l32.738-79.852c4.389-1.27,8.201-3.569,9.63-7.637
	C362.142,191.891,362.12,188.466,360.682,185.676z"/>
<path class="st6" d="M578.602,210.224c-1.201-2.322-3.096-3.612-4.375-4.262c0.788-3.371,1.187-6.842,1.187-10.335
	c0-0.952-0.039-1.894-0.098-2.831c0.007-0.02,0.017-0.039,0.024-0.06c-0.169-2.615-0.561-5.168-1.157-7.645
	c-0.005,0.007-0.011,0.014-0.016,0.021c-0.005-0.023-0.01-0.046-0.016-0.068c0.961-1.468,1.578-3.103,1.687-4.93
	c0.248-4.173-0.702-7.446-2.825-9.731c-1.802-1.938-4.001-2.668-5.424-2.943c-0.17-3.46-0.74-6.905-1.7-10.262
	c-3.32-11.611-10.963-21.235-21.521-27.099c-10.557-5.862-22.766-7.263-34.378-3.942c-11.611,3.32-21.235,10.963-27.098,21.521
	c-5.863,10.558-7.264,22.767-3.943,34.378c0.961,3.357,2.298,6.584,3.982,9.608c-1.061,0.982-2.536,2.756-3.044,5.353
	c-0.601,3.066,0.322,6.353,2.743,9.77c0.283,0.399,0.596,0.757,0.922,1.097c-0.65,0.642-1.273,1.425-1.769,2.395
	c-1.425,2.784-1.442,6.202-0.053,10.157c1.429,4.067,5.241,6.365,9.629,7.635l32.74,79.853c1.035,2.525,3.374,4.094,6.103,4.094
	s5.068-1.568,6.103-4.094l32.738-79.852c4.389-1.27,8.201-3.568,9.63-7.636C580.069,216.443,580.046,213.015,578.602,210.224z"/>
<path class="st6" d="M771.506,239.932c-1.198-2.359-3.113-3.667-4.406-4.322c0.788-3.372,1.187-6.843,1.187-10.335
	c0-0.952-0.039-1.894-0.098-2.832c0.007-0.02,0.017-0.039,0.024-0.059c-0.169-2.615-0.561-5.168-1.157-7.645
	c-0.005,0.007-0.011,0.014-0.016,0.021c-0.005-0.023-0.01-0.046-0.016-0.068c0.961-1.467,1.578-3.103,1.687-4.93
	c0.127-2.141-0.066-4.041-0.566-5.697c-0.023-0.077-0.054-0.148-0.078-0.223c-0.111-0.342-0.231-0.676-0.369-0.996
	c-0.034-0.079-0.075-0.153-0.111-0.231c-0.141-0.307-0.292-0.607-0.459-0.892c-0.045-0.077-0.096-0.149-0.143-0.225
	c-0.168-0.27-0.344-0.532-0.536-0.782c-0.018-0.023-0.032-0.049-0.05-0.073c0.272-0.407,0.525-0.831,0.738-1.292
	c1.764-3.805,2.073-7.209,0.92-10.118c-0.963-2.432-2.744-3.914-3.961-4.691c1.109-3.282,1.839-6.7,2.175-10.178
	c1.159-12.021-2.433-23.773-10.114-33.093c-7.681-9.319-18.531-15.09-30.552-16.249c-24.811-2.389-46.95,15.851-49.342,40.666
	c-0.335,3.479-0.271,6.974,0.191,10.408c-1.345,0.531-3.379,1.648-4.788,3.852c-1.685,2.634-2.03,6.033-1.026,10.102
	c0.064,0.258,0.145,0.506,0.227,0.752c-1.312,6.858-1.021,13.975,0.954,20.883c0.96,3.359,2.299,6.587,3.985,9.614
	c-1.055,0.982-2.533,2.758-3.042,5.323c-0.61,3.072,0.312,6.367,2.738,9.792c0.283,0.399,0.596,0.757,0.922,1.097
	c-0.647,0.64-1.269,1.421-1.765,2.388c-1.429,2.785-1.448,6.205-0.057,10.164c1.429,4.067,5.241,6.366,9.629,7.636l32.74,79.852
	c1.035,2.525,3.374,4.094,6.103,4.094s5.068-1.568,6.103-4.094l32.738-79.852c4.389-1.27,8.201-3.569,9.63-7.637
	C772.931,246.12,772.918,242.712,771.506,239.932z"/>
<g>
	<rect x="-15.47" y="-1001.622" width="1361" height="763"/>
	<path class="st7" d="M1343.03-999.122v758h-1356v-758H1343.03 M1348.03-1004.122h-1366v768h1366V-1004.122L1348.03-1004.122z"/>
</g>
<path class="st3" d="M393.653-620.582l69.323,0c3.624,0,6.09,3.676,4.715,7.029l-34.661,84.542c-1.729,4.217-7.701,4.217-9.431,0
	l-34.662-84.542C387.563-616.906,390.029-620.582,393.653-620.582z"/>
<path class="st8" d="M468.327-619.161c-1.227-1.83-3.275-2.922-5.478-2.922l-69.323,0c-2.203,0-4.251,1.092-5.478,2.921
	c-1.227,1.83-1.461,4.139-0.625,6.178l34.662,84.541c1.035,2.525,3.374,4.094,6.103,4.094s5.068-1.568,6.103-4.094l34.661-84.542
	C469.789-615.022,469.555-617.332,468.327-619.161z M402.795-596.487l10.575,10.575l-8.231,8.231l-6.15-15L402.795-596.487z
	 M397.756-595.69l-4.056-9.892l6.974,6.974L397.756-595.69z M425.391-619.083h5.594l7.779,7.778l-10.575,10.575l-10.575-10.575
	L425.391-619.083z M415.492-613.426l-5.657-5.657h11.314L415.492-613.426z M435.227-619.083h11.314l-5.657,5.657L435.227-619.083z
	 M430.309-598.608l10.575-10.575l10.575,10.575l-10.575,10.575L430.309-598.608z M438.763-585.912l-10.576,10.576l-10.575-10.575
	l10.576-10.575L438.763-585.912z M426.067-598.608l-10.576,10.575l-10.575-10.575l10.575-10.575L426.067-598.608z M415.491-583.791
	l10.575,10.575l-10.575,10.575l-7.094-7.094l-2.025-4.938L415.491-583.791z M413.37-560.519l-0.847,0.847l-1.177-2.872
	L413.37-560.519z M415.491-558.398l10.576,10.576l-6.16,6.16l-6.15-15.001L415.491-558.398z M417.613-560.519l10.575-10.575
	l10.576,10.576l-10.575,10.575L417.613-560.519z M440.884-558.398l1.735,1.735l-6.15,15l-6.16-6.16L440.884-558.398z
	 M443.005-560.519l2.025-2.025l-1.178,2.873L443.005-560.519z M447.978-569.734l-7.094,7.094l-10.576-10.576l10.576-10.576
	l9.119,9.119L447.978-569.734z M443.005-585.912l10.575-10.575l3.806,3.806l-6.15,15L443.005-585.912z M455.702-598.608l6.974-6.974
	l-4.056,9.892L455.702-598.608z M465.836-617.49c0.679,1.013,0.803,2.24,0.341,3.367l-0.554,1.351l-12.043,12.043l-10.575-10.575
	l7.779-7.779h12.065C464.068-619.083,465.157-618.502,465.836-617.49z M390.54-617.489c0.679-1.013,1.768-1.594,2.987-1.594h12.065
	l7.779,7.778l-10.575,10.575l-12.043-12.043l-0.553-1.35C389.736-615.25,389.861-616.477,390.54-617.489z M431.516-529.581
	c-0.675,1.646-2.162,2.232-3.328,2.232s-2.653-0.586-3.328-2.232l-3.72-9.073l7.047-7.047l7.048,7.048L431.516-529.581z"/>
<path class="st9" d="M223.281-626.502"/>
<path class="st10" d="M230.875-620.582l69.323,0c3.624,0,6.09,3.676,4.715,7.029l-34.661,84.542c-1.729,4.217-7.701,4.217-9.431,0
	l-34.662-84.542C224.785-616.906,227.251-620.582,230.875-620.582z"/>
<g>
	<line class="st11" x1="249.339" y1="-557.018" x2="304.246" y2="-611.924"/>
	<line class="st11" x1="281.735" y1="-557.017" x2="226.828" y2="-611.925"/>
	<line class="st11" x1="256.723" y1="-539.009" x2="286.601" y2="-568.887"/>
	<line class="st11" x1="274.351" y1="-539.008" x2="244.473" y2="-568.886"/>
	<line class="st11" x1="241.956" y1="-575.027" x2="287.511" y2="-620.582"/>
	<line class="st11" x1="289.118" y1="-575.027" x2="243.563" y2="-620.582"/>
	<line class="st11" x1="234.572" y1="-593.036" x2="262.119" y2="-620.582"/>
	<line class="st11" x1="296.502" y1="-593.036" x2="268.955" y2="-620.582"/>
	<path class="st12" d="M230.875-620.582l69.323,0c3.624,0,6.09,3.676,4.715,7.029l-34.661,84.542c-1.729,4.217-7.701,4.217-9.431,0
		l-34.662-84.542C224.785-616.906,227.251-620.582,230.875-620.582z"/>
</g>
<path class="st11" d="M307.795-629.502l0.001-0.001c0.948-3.58,1.453-7.339,1.453-11.217c0-24.142-19.571-43.712-43.712-43.712
	s-43.712,19.571-43.712,43.712c0,3.878,0.505,7.638,1.453,11.218c-0.076,0.022-8.503,2.527-4.797,13.074
	c3.722,10.594,26.916,7.731,26.916,7.731s2.772,11.353,20.141,11.69c17.369-0.337,20.141-11.69,20.141-11.69
	s23.193,2.863,26.916-7.731C316.304-626.988,307.849-629.486,307.795-629.502z"/>
<path class="st11" d="M301.468-667.572l0.001-0.001c-0.073-3.702-0.621-7.456-1.687-11.184
	c-6.637-23.211-30.834-36.648-54.045-30.01s-36.648,30.834-30.01,54.045c1.066,3.729,2.586,7.205,4.481,10.386
	c-0.067,0.043-7.481,4.767-1.018,13.889c6.492,9.163,28.004,0.033,28.004,0.033s5.786,10.154,22.579,5.702
	c16.607-5.099,16.151-16.776,16.151-16.776s23.087-3.623,23.753-14.833C310.34-667.494,301.524-667.571,301.468-667.572z"/>
<path class="st11" d="M304.716-680.747l0.001,0c1.287-3.472,2.15-7.166,2.522-11.026c2.316-24.03-15.286-45.388-39.317-47.705
	c-24.03-2.316-45.388,15.286-47.705,39.317c-0.372,3.86-0.23,7.651,0.37,11.306c-0.078,0.015-8.706,1.7-6.03,12.553
	c2.689,10.903,26.05,10.278,26.05,10.278s1.67,11.567,18.927,13.568c17.321,1.332,21.17-9.703,21.17-9.703
	s22.812,5.076,27.533-5.113C312.945-677.429,304.768-680.726,304.716-680.747z"/>
<path class="st9" d="M385.932-626.502"/>
<path class="st13" d="M470.446-629.502l0.001-0.001c0.948-3.58,1.453-7.339,1.453-11.217c0-24.142-19.571-43.712-43.712-43.712
	s-43.712,19.571-43.712,43.712c0,3.878,0.505,7.638,1.453,11.218c-0.076,0.022-8.503,2.527-4.797,13.074
	c3.722,10.594,26.916,7.731,26.916,7.731s2.772,11.353,20.141,11.69c17.369-0.337,20.141-11.69,20.141-11.69
	s23.193,2.863,26.916-7.731C478.955-626.988,470.501-629.486,470.446-629.502z"/>
<path class="st14" d="M464.119-667.572l0.001-0.001c-0.073-3.702-0.621-7.456-1.687-11.184
	c-6.637-23.211-30.834-36.648-54.045-30.01s-36.648,30.834-30.01,54.045c1.066,3.729,2.585,7.205,4.481,10.386
	c-0.067,0.043-7.481,4.767-1.018,13.889c6.492,9.163,28.004,0.033,28.004,0.033s5.786,10.154,22.579,5.702
	c16.607-5.099,16.151-16.776,16.151-16.776s23.087-3.623,23.753-14.833C472.991-667.494,464.175-667.571,464.119-667.572z"/>
<path class="st15" d="M467.367-680.747l0.001,0c1.287-3.472,2.15-7.166,2.522-11.026c2.316-24.03-15.286-45.388-39.317-47.705
	c-24.03-2.316-45.388,15.286-47.705,39.317c-0.372,3.86-0.23,7.651,0.37,11.306c-0.078,0.015-8.706,1.7-6.03,12.553
	c2.689,10.903,26.05,10.278,26.05,10.278s1.67,11.567,18.927,13.568c17.321,1.332,21.17-9.703,21.17-9.703
	s22.812,5.076,27.533-5.113C475.596-677.429,467.419-680.726,467.367-680.747z"/>
<path class="st16" d="M449.355-607.126c-1.315,3.189-6.125,11.285-21.138,11.576c-15.06-0.291-19.879-8.387-21.195-11.576
	c-3.025,0.27-11.016,0.716-17.676-1.212l3.685,8.987c5.688,0.947,11.511,0.607,13.991,0.385c1.316,3.189,6.135,11.285,21.195,11.576
	c15.013-0.291,19.823-8.387,21.138-11.576c2.482,0.221,8.303,0.562,13.991-0.385l3.684-8.987
	C460.371-606.41,452.381-606.857,449.355-607.126z"/>
<path class="st16" d="M473.326-643.61c-0.169-2.615-0.561-5.168-1.157-7.645c-4.735,7.235-18.019,10.295-22.134,11.085
	c-0.388,3.428-2.787,12.535-17.141,16.941c-3.204,0.85-6.036,1.199-8.525,1.199c-8.825,0.001-13.364-4.393-15.036-6.502
	c-4.49,1.728-20.833,7.312-27.763,0.098c-0.649,0.642-1.273,1.425-1.769,2.395c-0.516,1.008-0.841,2.101-0.988,3.269
	c0.466,1.056,1.066,2.126,1.834,3.211c6.276,8.857,23.984,2.809,28.686,0.999c1.672,2.109,6.211,6.503,15.036,6.502
	c2.49,0,5.322-0.35,8.525-1.199c14.354-4.406,16.753-13.513,17.141-16.941C454.567-631.068,470.22-634.69,473.326-643.61z"/>
<path class="st16" d="M471.501-665.366c-5.54,8.287-22.563,5.772-27.286,4.888c-1.502,2.837-6.427,9.612-19.166,9.612
	c-0.951,0-1.945-0.038-2.984-0.118c-14.963-1.734-18.982-10.255-19.987-13.557c-4.848-0.035-22.337-0.829-25.964-10.281
	c-0.129,0.288-0.242,0.585-0.344,0.888c-0.264,1.627-0.435,3.275-0.519,4.937c0.077,0.965,0.235,1.971,0.495,3.029
	c2.599,10.539,21.293,11.39,26.331,11.426c1.004,3.301,5.024,11.822,19.987,13.557c1.04,0.08,2.033,0.118,2.984,0.118
	c12.739,0,17.664-6.775,19.166-9.612c4.956,0.928,23.466,3.662,28.028-6.186c0.637-1.375,1.078-2.696,1.335-3.962
	C473.226-662.479,472.526-664.058,471.501-665.366z"/>
<g class="st17">
	<path class="st7" d="M397.464-699.969c-1.312,0-2.413-1.022-2.493-2.349c-0.03-0.492-0.048-0.988-0.048-1.488
		c0-10.523,6.712-19.815,16.701-23.122c1.312-0.433,2.725,0.277,3.159,1.588c0.434,1.311-0.277,2.725-1.588,3.159
		c-7.938,2.627-13.272,10.012-13.272,18.375c0,0.398,0.015,0.792,0.039,1.185c0.083,1.378-0.966,2.563-2.344,2.647
		C397.566-699.97,397.515-699.969,397.464-699.969z"/>
</g>
<path class="st16" d="M500.188-629.061c-1.198-2.359-3.113-3.667-4.406-4.322c0.788-3.372,1.187-6.843,1.187-10.335
	c0-0.952-0.039-1.894-0.098-2.832c0.007-0.02,0.017-0.039,0.024-0.059c-0.169-2.615-0.561-5.168-1.157-7.645
	c-0.005,0.007-0.011,0.014-0.016,0.021c-0.005-0.023-0.01-0.046-0.016-0.068c0.961-1.467,1.578-3.103,1.687-4.93
	c0.127-2.141-0.066-4.041-0.566-5.697c-0.023-0.077-0.054-0.148-0.078-0.223c-0.111-0.342-0.231-0.676-0.369-0.996
	c-0.034-0.079-0.075-0.153-0.111-0.231c-0.141-0.307-0.292-0.607-0.459-0.892c-0.045-0.077-0.096-0.149-0.143-0.225
	c-0.168-0.27-0.344-0.532-0.536-0.782c-0.018-0.023-0.032-0.049-0.05-0.073c0.272-0.407,0.525-0.831,0.738-1.292
	c1.764-3.805,2.073-7.209,0.92-10.118c-0.963-2.432-2.744-3.914-3.961-4.691c1.109-3.282,1.839-6.7,2.175-10.178
	c1.159-12.021-2.433-23.773-10.114-33.093c-7.681-9.319-18.531-15.09-30.552-16.249c-24.811-2.389-46.95,15.851-49.342,40.666
	c-0.335,3.479-0.271,6.974,0.191,10.408c-1.345,0.531-3.379,1.648-4.788,3.852c-1.685,2.634-2.03,6.033-1.026,10.102
	c0.064,0.258,0.145,0.506,0.227,0.752c-1.312,6.858-1.021,13.975,0.954,20.883c0.96,3.359,2.299,6.587,3.985,9.614
	c-1.055,0.982-2.533,2.758-3.042,5.323c-0.61,3.072,0.312,6.367,2.738,9.792c0.283,0.399,0.596,0.757,0.922,1.097
	c-0.647,0.64-1.269,1.421-1.765,2.388c-1.429,2.785-1.448,6.205-0.057,10.164c1.429,4.067,5.241,6.366,9.629,7.636l32.74,79.852
	c1.035,2.525,3.374,4.094,6.103,4.094s5.068-1.568,6.103-4.094l32.738-79.852c4.389-1.27,8.201-3.569,9.63-7.637
	C501.613-622.873,501.6-626.281,500.188-629.061z"/>
<path class="st3" d="M680.904,236.911l69.323,0c3.624,0,6.09,3.676,4.715,7.029l-34.661,84.542c-1.729,4.217-7.701,4.217-9.431,0
	l-34.662-84.542C674.814,240.587,677.28,236.911,680.904,236.911z"/>
<path class="st8" d="M755.578,238.332c-1.227-1.83-3.275-2.922-5.478-2.922l-69.323,0c-2.203,0-4.251,1.092-5.478,2.921
	c-1.227,1.83-1.461,4.139-0.625,6.178l34.662,84.541c1.035,2.525,3.374,4.094,6.103,4.094s5.068-1.568,6.103-4.094l34.661-84.542
	C757.04,242.471,756.806,240.161,755.578,238.332z M690.046,261.006l10.575,10.575l-8.231,8.231l-6.15-15L690.046,261.006z
	 M685.007,261.803l-4.056-9.892l6.974,6.974L685.007,261.803z M712.642,238.41h5.594l7.779,7.778l-10.575,10.575l-10.575-10.575
	L712.642,238.41z M702.743,244.067l-5.657-5.657H708.4L702.743,244.067z M722.478,238.41h11.314l-5.657,5.657L722.478,238.41z
	 M717.56,258.885l10.575-10.575l10.575,10.575l-10.575,10.575L717.56,258.885z M726.014,271.581l-10.576,10.576l-10.575-10.575
	l10.576-10.575L726.014,271.581z M713.318,258.885l-10.576,10.575l-10.575-10.575l10.575-10.575L713.318,258.885z M702.743,273.702
	l10.575,10.575l-10.575,10.575l-7.094-7.094l-2.025-4.938L702.743,273.702z M700.622,296.973l-0.847,0.847l-1.177-2.872
	L700.622,296.973z M702.743,299.095l10.576,10.576l-6.16,6.16l-6.15-15.001L702.743,299.095z M704.864,296.973l10.575-10.575
	l10.576,10.576l-10.575,10.575L704.864,296.973z M728.136,299.095l1.735,1.735l-6.15,15l-6.16-6.16L728.136,299.095z
	 M730.257,296.974l2.025-2.025l-1.178,2.873L730.257,296.974z M735.23,287.759l-7.094,7.094l-10.576-10.576l10.576-10.576
	l9.119,9.119L735.23,287.759z M730.257,271.581l10.575-10.575l3.806,3.806l-6.15,15L730.257,271.581z M742.953,258.885l6.974-6.974
	l-4.056,9.892L742.953,258.885z M753.087,240.003c0.679,1.013,0.803,2.24,0.341,3.367l-0.554,1.351l-12.043,12.043l-10.575-10.575
	l7.779-7.779h12.065C751.32,238.41,752.408,238.991,753.087,240.003z M677.791,240.004c0.679-1.013,1.768-1.594,2.987-1.594h12.065
	l7.779,7.778l-10.575,10.575l-12.043-12.043l-0.553-1.35C676.988,242.243,677.112,241.016,677.791,240.004z M718.767,327.912
	c-0.675,1.646-2.162,2.232-3.328,2.232s-2.653-0.586-3.328-2.232l-3.72-9.073l7.047-7.047l7.048,7.048L718.767,327.912z"/>
<path class="st9" d="M673.183,230.991"/>
<path class="st13" d="M757.698,227.991l0.001-0.001c0.948-3.58,1.453-7.339,1.453-11.217c0-24.142-19.571-43.712-43.712-43.712
	s-43.712,19.571-43.712,43.712c0,3.878,0.505,7.638,1.453,11.218c-0.076,0.022-8.503,2.527-4.797,13.074
	c3.722,10.594,26.916,7.731,26.916,7.731s2.772,11.353,20.141,11.69c17.369-0.337,20.141-11.69,20.141-11.69
	s23.193,2.863,26.916-7.731C766.207,230.505,757.752,228.007,757.698,227.991z"/>
<path class="st14" d="M751.37,189.921l0.001-0.001c-0.073-3.702-0.621-7.456-1.687-11.184c-6.637-23.211-30.834-36.648-54.045-30.01
	c-23.211,6.637-36.648,30.834-30.01,54.045c1.066,3.729,2.586,7.205,4.481,10.386c-0.067,0.043-7.481,4.767-1.018,13.889
	c6.492,9.163,28.004,0.033,28.004,0.033s5.786,10.154,22.579,5.702c16.607-5.099,16.151-16.776,16.151-16.776
	s23.087-3.623,23.753-14.833C760.242,189.998,751.427,189.922,751.37,189.921z"/>
<path class="st15" d="M754.618,176.746l0.001-0.001c1.287-3.472,2.15-7.166,2.522-11.026c2.316-24.03-15.286-45.388-39.317-47.705
	s-45.388,15.286-47.705,39.317c-0.372,3.86-0.23,7.651,0.37,11.306c-0.078,0.015-8.706,1.7-6.03,12.553
	c2.689,10.903,26.05,10.278,26.05,10.278s1.67,11.567,18.927,13.568c17.321,1.332,21.17-9.703,21.17-9.703
	s22.812,5.076,27.533-5.113C762.847,180.064,754.671,176.767,754.618,176.746z"/>
<path class="st16" d="M736.606,250.367c-1.315,3.189-6.125,11.285-21.138,11.576c-15.06-0.291-19.879-8.387-21.195-11.576
	c-3.025,0.27-11.016,0.716-17.676-1.212l3.685,8.987c5.688,0.947,11.511,0.607,13.991,0.385c1.316,3.189,6.135,11.285,21.195,11.576
	c15.013-0.291,19.823-8.387,21.138-11.576c2.482,0.221,8.303,0.562,13.991-0.385l3.684-8.987
	C747.622,251.083,739.632,250.636,736.606,250.367z"/>
<path class="st16" d="M760.578,213.883c-0.169-2.615-0.561-5.168-1.157-7.645c-4.735,7.235-18.019,10.295-22.134,11.085
	c-0.388,3.428-2.787,12.535-17.141,16.941c-3.204,0.85-6.036,1.199-8.525,1.199c-8.825,0.001-13.364-4.393-15.036-6.502
	c-4.49,1.728-20.833,7.312-27.763,0.098c-0.649,0.642-1.273,1.425-1.769,2.395c-0.516,1.008-0.841,2.101-0.988,3.269
	c0.466,1.056,1.066,2.126,1.834,3.211c6.276,8.857,23.984,2.809,28.686,0.999c1.672,2.109,6.211,6.503,15.036,6.502
	c2.49,0,5.322-0.35,8.525-1.199c14.354-4.406,16.753-13.513,17.141-16.941C741.818,226.425,757.471,222.803,760.578,213.883z"/>
<path class="st16" d="M758.752,192.126c-5.54,8.287-22.563,5.772-27.286,4.888c-1.502,2.837-6.427,9.612-19.166,9.612
	c-0.951,0-1.945-0.038-2.984-0.118c-14.963-1.734-18.982-10.255-19.987-13.557c-4.848-0.035-22.337-0.829-25.964-10.281
	c-0.129,0.288-0.242,0.585-0.344,0.888c-0.264,1.627-0.435,3.275-0.519,4.937c0.077,0.965,0.235,1.971,0.495,3.029
	c2.599,10.539,21.293,11.39,26.331,11.426c1.004,3.301,5.024,11.822,19.987,13.557c1.04,0.08,2.033,0.118,2.984,0.118
	c12.739,0,17.664-6.775,19.166-9.612c4.956,0.928,23.466,3.662,28.028-6.186c0.637-1.375,1.078-2.696,1.335-3.962
	C760.477,195.014,759.777,193.435,758.752,192.126z"/>
<g class="st17">
	<path class="st7" d="M684.715,157.524c-1.312,0-2.413-1.022-2.493-2.349c-0.03-0.492-0.048-0.988-0.048-1.488
		c0-10.523,6.712-19.815,16.701-23.122c1.312-0.433,2.725,0.277,3.159,1.588c0.434,1.311-0.277,2.725-1.588,3.159
		c-7.938,2.627-13.272,10.012-13.272,18.375c0,0.398,0.015,0.792,0.039,1.185c0.083,1.378-0.966,2.563-2.344,2.647
		C684.818,157.523,684.766,157.524,684.715,157.524z"/>
</g>
<path class="st3" d="M487.227,207.69l69.323,0c3.624,0,6.09,3.676,4.715,7.029l-34.661,84.542c-1.729,4.217-7.701,4.217-9.43,0
	l-34.662-84.542C481.137,211.366,483.603,207.69,487.227,207.69z"/>
<path class="st8" d="M561.901,209.112c-1.227-1.83-3.275-2.922-5.478-2.922l-69.323,0c-2.203,0-4.251,1.092-5.478,2.921
	c-1.227,1.83-1.461,4.139-0.625,6.178l34.662,84.541c1.035,2.525,3.374,4.094,6.103,4.094s5.068-1.568,6.103-4.094l34.661-84.542
	C563.362,213.25,563.128,210.941,561.901,209.112z M496.369,231.786l10.575,10.575l-8.231,8.231l-6.15-15L496.369,231.786z
	 M491.33,232.583l-4.056-9.892l6.974,6.974L491.33,232.583z M518.964,209.19h5.594l7.779,7.778l-10.575,10.575l-10.575-10.575
	L518.964,209.19z M509.065,214.847l-5.657-5.657h11.314L509.065,214.847z M528.801,209.19h11.314l-5.657,5.657L528.801,209.19z
	 M523.883,229.664l10.575-10.575l10.575,10.575l-10.575,10.575L523.883,229.664z M532.337,242.36l-10.576,10.576l-10.575-10.575
	l10.576-10.575L532.337,242.36z M519.64,229.664l-10.575,10.575l-10.575-10.575l10.575-10.575L519.64,229.664z M509.065,244.482
	l10.575,10.575l-10.575,10.575l-7.094-7.094l-2.025-4.938L509.065,244.482z M506.944,267.753l-0.847,0.847l-1.177-2.872
	L506.944,267.753z M509.065,269.874l10.576,10.576l-6.16,6.16l-6.15-15.001L509.065,269.874z M511.186,267.753l10.575-10.575
	l10.576,10.576l-10.575,10.575L511.186,267.753z M534.458,269.875l1.735,1.735l-6.15,15l-6.16-6.16L534.458,269.875z
	 M536.579,267.754l2.025-2.025l-1.178,2.873L536.579,267.754z M541.552,258.539l-7.094,7.094l-10.576-10.576l10.576-10.576
	l9.119,9.119L541.552,258.539z M536.579,242.36l10.575-10.575l3.806,3.806l-6.15,15L536.579,242.36z M549.275,229.664l6.974-6.974
	l-4.056,9.892L549.275,229.664z M559.41,210.783c0.679,1.013,0.803,2.24,0.341,3.367l-0.554,1.351l-12.043,12.043l-10.575-10.575
	l7.779-7.779h12.065C557.642,209.19,558.73,209.771,559.41,210.783z M484.113,210.784c0.679-1.013,1.768-1.594,2.987-1.594h12.065
	l7.779,7.778l-10.575,10.575l-12.043-12.043l-0.553-1.35C483.31,213.023,483.435,211.795,484.113,210.784z M525.09,298.692
	c-0.675,1.646-2.162,2.232-3.328,2.232s-2.653-0.586-3.328-2.232l-3.72-9.073l7.047-7.047l7.048,7.048L525.09,298.692z"/>
<path class="st9" d="M479.506,201.77"/>
<path class="st13" d="M564.02,198.771l0.001-0.001c0.948-3.58,1.453-7.339,1.453-11.217c0-24.142-19.571-43.712-43.712-43.712
	s-43.712,19.571-43.712,43.712c0,3.878,0.505,7.638,1.453,11.218c-0.076,0.022-8.503,2.527-4.797,13.074
	c3.722,10.594,26.916,7.731,26.916,7.731s2.772,11.353,20.141,11.69c17.369-0.337,20.141-11.69,20.141-11.69
	s23.193,2.863,26.916-7.731C572.529,201.284,564.074,198.787,564.02,198.771z"/>
<path class="st14" d="M557.692,160.701l0.001-0.001c-0.073-3.702-0.621-7.456-1.687-11.184
	c-6.637-23.211-30.834-36.648-54.045-30.01c-23.211,6.637-36.648,30.834-30.01,54.045c1.066,3.729,2.586,7.205,4.481,10.386
	c-0.067,0.043-7.481,4.767-1.018,13.889c6.492,9.163,28.004,0.033,28.004,0.033s5.786,10.154,22.579,5.702
	c16.607-5.099,16.151-16.776,16.151-16.776s23.087-3.623,23.753-14.833C566.564,160.778,557.749,160.701,557.692,160.701z"/>
<path class="st16" d="M542.928,221.146c-1.315,3.189-6.125,11.285-21.138,11.576c-15.06-0.291-19.879-8.387-21.195-11.576
	c-3.025,0.27-11.016,0.716-17.676-1.212l3.685,8.987c5.688,0.947,11.511,0.607,13.991,0.385c1.316,3.189,6.135,11.285,21.195,11.576
	c15.013-0.291,19.823-8.387,21.138-11.576c2.482,0.221,8.303,0.562,13.991-0.385l3.684-8.987
	C553.944,221.862,545.955,221.416,542.928,221.146z"/>
<path class="st16" d="M566.9,184.662c-0.169-2.615-0.561-5.168-1.157-7.645c-4.735,7.235-18.019,10.295-22.134,11.085
	c-0.388,3.428-2.787,12.535-17.141,16.941c-3.204,0.85-6.036,1.199-8.525,1.199c-8.825,0.001-13.364-4.393-15.036-6.502
	c-4.49,1.728-20.833,7.312-27.763,0.098c-0.649,0.642-1.273,1.425-1.769,2.395c-0.516,1.008-0.841,2.101-0.988,3.269
	c0.466,1.056,1.066,2.126,1.834,3.211c6.276,8.857,23.984,2.809,28.686,0.999c1.672,2.109,6.211,6.503,15.036,6.502
	c2.49,0,5.322-0.35,8.525-1.199c14.354-4.406,16.753-13.513,17.141-16.941C548.14,197.204,563.793,193.582,566.9,184.662z"/>
<g class="st17">
	<path class="st7" d="M483.308,157.384c-1.312,0-2.413-1.022-2.493-2.349c-0.03-0.492-0.048-0.988-0.048-1.488
		c0-10.523,6.712-19.815,16.701-23.122c1.312-0.433,2.725,0.277,3.159,1.588c0.434,1.311-0.277,2.725-1.588,3.159
		c-7.938,2.627-13.272,10.012-13.272,18.375c0,0.398,0.015,0.792,0.039,1.185c0.083,1.378-0.966,2.563-2.344,2.647
		C483.411,157.382,483.359,157.384,483.308,157.384z"/>
</g>
<path class="st3" d="M270.244,183.457l69.323,0c3.624,0,6.09,3.676,4.715,7.029l-34.661,84.542c-1.729,4.217-7.701,4.217-9.431,0
	l-34.662-84.542C264.154,187.133,266.62,183.457,270.244,183.457z"/>
<path class="st8" d="M344.918,184.878c-1.227-1.83-3.275-2.922-5.478-2.922l-69.323,0c-2.203,0-4.251,1.092-5.478,2.921
	c-1.227,1.83-1.461,4.139-0.625,6.178l34.662,84.541c1.035,2.525,3.374,4.094,6.103,4.094s5.068-1.568,6.103-4.094l34.661-84.542
	C346.38,189.017,346.146,186.707,344.918,184.878z M279.386,207.552l10.575,10.575l-8.231,8.231l-6.15-15L279.386,207.552z
	 M274.347,208.349l-4.056-9.892l6.974,6.974L274.347,208.349z M301.982,184.956h5.594l7.779,7.778l-10.575,10.575l-10.575-10.575
	L301.982,184.956z M292.083,190.613l-5.657-5.657h11.314L292.083,190.613z M311.818,184.956h11.314l-5.657,5.657L311.818,184.956z
	 M306.9,205.431l10.575-10.575l10.575,10.575l-10.575,10.575L306.9,205.431z M315.354,218.127l-10.576,10.576l-10.575-10.575
	l10.576-10.575L315.354,218.127z M302.658,205.431l-10.576,10.575l-10.575-10.575l10.575-10.575L302.658,205.431z M292.083,220.248
	l10.575,10.575l-10.575,10.575l-7.094-7.094l-2.025-4.938L292.083,220.248z M289.962,243.519l-0.847,0.847l-1.177-2.872
	L289.962,243.519z M292.083,245.641l10.576,10.576l-6.16,6.16l-6.15-15.001L292.083,245.641z M294.204,243.519l10.575-10.575
	l10.576,10.576l-10.575,10.575L294.204,243.519z M317.476,245.641l1.735,1.735l-6.15,15l-6.16-6.16L317.476,245.641z
	 M319.597,243.52l2.025-2.025l-1.178,2.873L319.597,243.52z M324.57,234.305l-7.094,7.094L306.9,230.824l10.576-10.576l9.119,9.119
	L324.57,234.305z M319.597,218.127l10.575-10.575l3.806,3.806l-6.15,15L319.597,218.127z M332.293,205.431l6.974-6.974l-4.056,9.892
	L332.293,205.431z M342.427,186.549c0.679,1.013,0.803,2.24,0.341,3.367l-0.554,1.351l-12.043,12.043l-10.575-10.575l7.779-7.779
	h12.065C340.66,184.956,341.748,185.537,342.427,186.549z M267.131,186.55c0.679-1.013,1.768-1.594,2.987-1.594h12.065l7.779,7.778
	l-10.575,10.575l-12.043-12.043l-0.553-1.35C266.328,188.789,266.452,187.562,267.131,186.55z M308.107,274.458
	c-0.675,1.646-2.162,2.232-3.328,2.232s-2.653-0.586-3.328-2.232l-3.72-9.073l7.047-7.047l7.048,7.048L308.107,274.458z"/>
<path class="st9" d="M262.523,177.537"/>
<path class="st13" d="M347.038,174.537l0.001-0.001c0.948-3.58,1.453-7.339,1.453-11.217c0-24.142-19.571-43.712-43.712-43.712
	s-43.712,19.571-43.712,43.712c0,3.878,0.505,7.638,1.453,11.218c-0.076,0.022-8.503,2.527-4.797,13.074
	c3.722,10.594,26.916,7.731,26.916,7.731s2.772,11.353,20.141,11.69c17.369-0.337,20.141-11.69,20.141-11.69
	s23.193,2.863,26.916-7.731C355.547,177.051,347.092,174.553,347.038,174.537z"/>
<path class="st16" d="M325.946,196.913c-1.315,3.189-6.125,11.285-21.138,11.576c-15.06-0.291-19.879-8.387-21.195-11.576
	c-3.025,0.27-11.016,0.716-17.676-1.212l3.685,8.987c5.688,0.947,11.511,0.607,13.991,0.385c1.316,3.189,6.135,11.285,21.195,11.576
	c15.013-0.291,19.823-8.387,21.138-11.576c2.482,0.221,8.303,0.562,13.991-0.385l3.684-8.987
	C336.962,197.629,328.972,197.182,325.946,196.913z"/>
<g class="st18">
	<path class="st7" d="M274.055,159.738c-1.312,0-2.413-1.022-2.493-2.349c-0.03-0.492-0.048-0.988-0.048-1.488
		c0-10.523,6.712-19.815,16.701-23.122c1.312-0.433,2.725,0.277,3.159,1.588c0.434,1.311-0.277,2.725-1.588,3.159
		c-7.938,2.627-13.272,10.012-13.272,18.375c0,0.398,0.015,0.792,0.039,1.185c0.083,1.378-0.966,2.563-2.344,2.647
		C274.158,159.736,274.106,159.738,274.055,159.738z"/>
</g>
<path class="st6" d="M-151.881,111.026c-0.106-0.206-0.274-0.32-0.388-0.378c0.07-0.299,0.105-0.606,0.105-0.916
	c0-2.208-1.796-4.004-4.004-4.004c-2.208,0-4.004,1.796-4.004,4.004c0,0.309,0.035,0.617,0.105,0.916
	c-0.114,0.058-0.283,0.173-0.389,0.38c-0.127,0.247-0.128,0.55-0.005,0.9c0.127,0.36,0.464,0.564,0.853,0.676l2.9,7.072
	c0.092,0.224,0.299,0.363,0.541,0.363c0.242,0,0.449-0.139,0.541-0.363l2.9-7.072c0.389-0.112,0.726-0.316,0.853-0.676
	C-151.751,111.576-151.753,111.273-151.881,111.026z"/>
<g>
	<path class="st6" d="M-127.536,115.99c-0.106-0.209-0.276-0.325-0.39-0.383c0.07-0.299,0.105-0.606,0.105-0.915
		c0-0.084-0.003-0.168-0.009-0.251c0.001-0.002,0.001-0.003,0.002-0.005c-0.015-0.232-0.05-0.458-0.103-0.677
		c0,0.001-0.001,0.001-0.001,0.002c0-0.002-0.001-0.004-0.001-0.006c0.085-0.13,0.14-0.275,0.149-0.437
		c0.011-0.19-0.006-0.358-0.05-0.505c-0.002-0.007-0.005-0.013-0.007-0.02c-0.01-0.03-0.02-0.06-0.033-0.088
		c-0.003-0.007-0.007-0.014-0.01-0.02c-0.013-0.027-0.026-0.054-0.041-0.079c-0.004-0.007-0.009-0.013-0.013-0.02
		c-0.015-0.024-0.03-0.047-0.047-0.069c-0.002-0.002-0.003-0.004-0.004-0.006c0.024-0.036,0.046-0.074,0.065-0.114
		c0.156-0.337,0.184-0.639,0.081-0.896c-0.085-0.215-0.243-0.347-0.351-0.415c0.098-0.291,0.163-0.593,0.193-0.901
		c0.103-1.065-0.215-2.106-0.896-2.931c-0.68-0.825-1.641-1.336-2.706-1.439c-2.197-0.212-4.158,1.404-4.37,3.602
		c-0.03,0.308-0.024,0.618,0.017,0.922c-0.119,0.047-0.299,0.146-0.424,0.341c-0.149,0.233-0.18,0.534-0.091,0.895
		c0.006,0.023,0.013,0.045,0.02,0.067c-0.116,0.607-0.09,1.238,0.085,1.849c0.085,0.297,0.204,0.583,0.353,0.851
		c-0.093,0.087-0.224,0.244-0.269,0.471c-0.054,0.272,0.028,0.564,0.243,0.867c0.025,0.035,0.053,0.067,0.082,0.097
		c-0.057,0.057-0.112,0.126-0.156,0.212c-0.127,0.247-0.128,0.55-0.005,0.9c0.127,0.36,0.464,0.564,0.853,0.676l2.9,7.072
		c0.092,0.224,0.299,0.363,0.541,0.363c0.242,0,0.449-0.139,0.541-0.363l2.9-7.072c0.389-0.113,0.726-0.316,0.853-0.676
		C-127.41,116.538-127.411,116.236-127.536,115.99z"/>
	<g>
		<path class="st3" d="M-135.561,115.722l6.14,0c0.321,0,0.539,0.326,0.418,0.623l-3.07,7.488c-0.153,0.374-0.682,0.374-0.835,0
			l-3.07-7.488C-136.1,116.048-135.882,115.722-135.561,115.722z"/>
	</g>
	<path class="st8" d="M-128.947,115.848c-0.109-0.162-0.29-0.259-0.485-0.259l-6.14,0c-0.195,0-0.376,0.097-0.485,0.259
		c-0.109,0.162-0.129,0.367-0.055,0.547l3.07,7.488c0.092,0.224,0.299,0.363,0.541,0.363s0.449-0.139,0.541-0.363l3.07-7.488
		C-128.818,116.215-128.838,116.01-128.947,115.848z M-134.751,117.857l0.937,0.937l-0.729,0.729l-0.545-1.328L-134.751,117.857z
		 M-135.197,117.927l-0.359-0.876l0.618,0.618L-135.197,117.927z M-132.75,115.855h0.495l0.689,0.689l-0.937,0.937l-0.937-0.937
		L-132.75,115.855z M-133.627,116.356l-0.501-0.501h1.002L-133.627,116.356z M-131.879,115.855h1.002l-0.501,0.501L-131.879,115.855
		z M-132.314,117.669l0.937-0.937l0.937,0.937l-0.937,0.937L-132.314,117.669z M-131.566,118.793l-0.937,0.937l-0.937-0.937
		l0.937-0.937L-131.566,118.793z M-132.69,117.669l-0.937,0.937l-0.937-0.937l0.937-0.937L-132.69,117.669z M-133.627,118.981
		l0.937,0.937l-0.937,0.937l-0.628-0.628l-0.179-0.437L-133.627,118.981z M-133.814,121.042l-0.075,0.075l-0.104-0.254
		L-133.814,121.042z M-133.627,121.23l0.937,0.937l-0.546,0.546l-0.545-1.329L-133.627,121.23z M-133.439,121.042l0.937-0.937
		l0.937,0.937l-0.937,0.937L-133.439,121.042z M-131.378,121.23l0.154,0.154l-0.545,1.329l-0.546-0.546L-131.378,121.23z
		 M-131.19,121.042l0.179-0.179l-0.104,0.254L-131.19,121.042z M-130.749,120.226l-0.628,0.628l-0.937-0.937l0.937-0.937
		l0.808,0.808L-130.749,120.226z M-131.19,118.793l0.937-0.937l0.337,0.337l-0.545,1.329L-131.19,118.793z M-130.065,117.669
		l0.618-0.618l-0.359,0.876L-130.065,117.669z M-129.168,115.996c0.06,0.09,0.071,0.198,0.03,0.298l-0.049,0.12l-1.067,1.067
		l-0.937-0.937l0.689-0.689h1.069C-129.324,115.855-129.228,115.907-129.168,115.996z M-135.837,115.996
		c0.06-0.09,0.157-0.141,0.265-0.141h1.069l0.689,0.689l-0.937,0.937l-1.067-1.067l-0.049-0.12
		C-135.908,116.195-135.897,116.086-135.837,115.996z M-132.207,123.782c-0.06,0.146-0.191,0.198-0.295,0.198
		s-0.235-0.052-0.295-0.198l-0.329-0.804l0.624-0.624l0.624,0.624L-132.207,123.782z"/>
	<path class="st9" d="M-136.245,115.198"/>
	<g>
		<path class="st19" d="M-128.759,114.933L-128.759,114.933c0.084-0.317,0.129-0.65,0.129-0.994c0-2.138-1.733-3.871-3.871-3.871
			s-3.871,1.733-3.871,3.871c0,0.343,0.045,0.676,0.129,0.994c-0.007,0.002-0.753,0.224-0.425,1.158
			c0.33,0.938,2.384,0.685,2.384,0.685s0.245,1.006,1.784,1.035c1.538-0.03,1.784-1.035,1.784-1.035s2.054,0.254,2.384-0.685
			C-128.006,115.155-128.755,114.934-128.759,114.933z"/>
		<path class="st20" d="M-132.5,117.943c-1.334-0.026-1.761-0.743-1.877-1.025c-0.444,0.04-2.1,0.123-2.418-0.784
			c-0.123-0.351-0.122-0.654,0.005-0.9c0.106-0.206,0.275-0.321,0.389-0.38c-0.07-0.299-0.105-0.606-0.105-0.916
			c0-2.208,1.796-4.004,4.004-4.004s4.004,1.796,4.004,4.004c0,0.309-0.035,0.617-0.105,0.915c0.115,0.058,0.284,0.174,0.39,0.383
			c0.125,0.246,0.126,0.548,0.004,0.897c-0.319,0.907-1.974,0.823-2.418,0.784C-130.744,117.201-131.17,117.918-132.5,117.943z
			 M-134.286,116.642c0.06,0,0.114,0.041,0.129,0.101c0.009,0.036,0.249,0.907,1.657,0.934c1.403-0.027,1.643-0.898,1.652-0.935
			c0.017-0.065,0.079-0.108,0.145-0.1c0.542,0.066,2.001,0.089,2.242-0.597c0.098-0.278,0.101-0.51,0.01-0.689
			c-0.114-0.225-0.346-0.297-0.348-0.298c-0.069-0.021-0.109-0.092-0.09-0.161c0.083-0.311,0.124-0.634,0.124-0.959
			c0-2.061-1.677-3.739-3.739-3.739c-2.061,0-3.739,1.677-3.739,3.739c0,0.325,0.042,0.648,0.124,0.96
			c0.018,0.07-0.022,0.141-0.091,0.161c-0.002,0.001-0.234,0.073-0.347,0.298c-0.091,0.179-0.087,0.411,0.011,0.688
			c0.241,0.687,1.7,0.664,2.242,0.597C-134.297,116.643-134.291,116.642-134.286,116.642z"/>
	</g>
	<g>
		<path class="st2" d="M-129.32,111.561L-129.32,111.561c-0.006-0.328-0.055-0.66-0.149-0.991c-0.588-2.056-2.731-3.246-4.787-2.658
			c-2.056,0.588-3.246,2.731-2.658,4.787c0.094,0.33,0.229,0.638,0.397,0.92c-0.006,0.004-0.663,0.422-0.09,1.23
			c0.575,0.812,2.48,0.003,2.48,0.003s0.512,0.899,2,0.505c1.471-0.452,1.43-1.486,1.43-1.486s2.045-0.321,2.104-1.314
			C-128.534,111.568-129.315,111.561-129.32,111.561z"/>
		<path class="st21" d="M-132.843,115.59c-0.782,0-1.184-0.389-1.332-0.576c-0.417,0.16-1.985,0.696-2.541-0.089
			c-0.214-0.303-0.296-0.594-0.243-0.865c0.045-0.23,0.176-0.387,0.27-0.474c-0.149-0.268-0.268-0.554-0.353-0.851
			c-0.607-2.123,0.626-4.344,2.749-4.951c2.123-0.607,4.344,0.626,4.951,2.749c0.085,0.297,0.136,0.603,0.151,0.909
			c0.125,0.024,0.318,0.088,0.476,0.256c0.191,0.202,0.276,0.494,0.254,0.866c-0.057,0.96-1.671,1.334-2.11,1.418
			c-0.034,0.304-0.247,1.11-1.518,1.5C-132.372,115.559-132.623,115.59-132.843,115.59z M-134.127,114.719
			c0.046,0,0.091,0.024,0.116,0.067c0.019,0.032,0.488,0.804,1.85,0.442c1.342-0.412,1.333-1.315,1.332-1.353
			c-0.002-0.067,0.046-0.125,0.112-0.136c0.539-0.085,1.949-0.464,1.992-1.19c0.017-0.294-0.043-0.517-0.179-0.665
			c-0.171-0.185-0.414-0.191-0.417-0.191c-0.05-0.001-0.096-0.03-0.118-0.074c-0.009-0.018-0.013-0.037-0.014-0.056h0
			c-0.006-0.322-0.055-0.644-0.144-0.957c-0.567-1.982-2.64-3.134-4.622-2.567c-1.982,0.567-3.133,2.64-2.567,4.622
			c0.089,0.313,0.218,0.612,0.383,0.888c0.037,0.062,0.018,0.141-0.043,0.18c-0.002,0.001-0.205,0.135-0.253,0.382
			c-0.038,0.197,0.029,0.419,0.199,0.659c0.42,0.593,1.817,0.17,2.32-0.042C-134.162,114.722-134.144,114.719-134.127,114.719z"/>
	</g>
	<g>
		<path class="st0" d="M-129.032,110.394L-129.032,110.394c0.114-0.308,0.191-0.635,0.224-0.977c0.205-2.128-1.354-4.02-3.482-4.225
			c-2.128-0.205-4.02,1.354-4.225,3.482c-0.033,0.342-0.02,0.678,0.033,1.001c-0.007,0.001-0.771,0.151-0.534,1.112
			c0.238,0.966,2.307,0.91,2.307,0.91s0.148,1.024,1.676,1.202c1.534,0.118,1.875-0.859,1.875-0.859s2.02,0.45,2.439-0.453
			C-128.303,110.688-129.028,110.396-129.032,110.394z"/>
		<path class="st22" d="M-132.78,113.042c-0.084,0-0.172-0.003-0.264-0.01c-1.325-0.154-1.681-0.908-1.77-1.201
			c-0.446-0.003-2.102-0.079-2.332-1.012c-0.089-0.362-0.058-0.663,0.092-0.897c0.125-0.195,0.304-0.293,0.423-0.339
			c-0.041-0.304-0.047-0.613-0.017-0.921c0.212-2.198,2.172-3.813,4.37-3.602c1.065,0.103,2.026,0.614,2.706,1.439
			c0.68,0.825,0.998,1.866,0.896,2.931c-0.03,0.308-0.094,0.611-0.192,0.901c0.107,0.068,0.263,0.198,0.349,0.413
			c0.104,0.258,0.077,0.561-0.08,0.899c-0.404,0.872-2.044,0.63-2.482,0.548C-131.215,112.442-131.651,113.042-132.78,113.042z
			 M-134.71,111.565c0.066,0,0.122,0.048,0.131,0.114c0.006,0.037,0.161,0.926,1.56,1.089c1.399,0.106,1.721-0.736,1.734-0.772
			c0.023-0.063,0.089-0.1,0.154-0.085c0.533,0.118,1.983,0.281,2.289-0.379c0.124-0.267,0.15-0.497,0.076-0.684
			c-0.092-0.235-0.315-0.329-0.318-0.33c-0.066-0.027-0.1-0.102-0.075-0.169c0.112-0.302,0.185-0.619,0.216-0.943
			c0.096-0.994-0.201-1.966-0.836-2.736c-0.635-0.771-1.532-1.248-2.526-1.344c-0.994-0.096-1.966,0.201-2.736,0.836
			c-0.771,0.635-1.248,1.532-1.344,2.526c-0.031,0.324-0.021,0.649,0.032,0.967c0.012,0.071-0.036,0.139-0.107,0.152
			c-0.001,0-0.239,0.05-0.374,0.263c-0.107,0.169-0.126,0.4-0.056,0.686c0.174,0.706,1.629,0.824,2.175,0.809
			C-134.712,111.565-134.711,111.565-134.71,111.565z"/>
	</g>
	<path class="st16" d="M-130.627,116.914c-0.116,0.282-0.542,0.999-1.872,1.025c-1.334-0.026-1.761-0.743-1.877-1.025
		c-0.268,0.024-0.976,0.063-1.566-0.107l0.326,0.796c0.504,0.084,1.019,0.054,1.239,0.034c0.117,0.282,0.543,0.999,1.877,1.025
		c1.33-0.026,1.756-0.743,1.872-1.025c0.22,0.02,0.735,0.05,1.239-0.034l0.326-0.796
		C-129.652,116.978-130.359,116.938-130.627,116.914z"/>
	<path class="st16" d="M-128.504,113.683c-0.015-0.232-0.05-0.458-0.103-0.677c-0.419,0.641-1.596,0.912-1.96,0.982
		c-0.034,0.304-0.247,1.11-1.518,1.5c-0.284,0.075-0.535,0.106-0.755,0.106c-0.782,0-1.184-0.389-1.332-0.576
		c-0.398,0.153-1.845,0.648-2.459,0.009c-0.058,0.057-0.113,0.126-0.157,0.212c-0.046,0.089-0.074,0.186-0.088,0.29
		c0.041,0.093,0.094,0.188,0.162,0.284c0.556,0.784,2.124,0.249,2.541,0.088c0.148,0.187,0.55,0.576,1.332,0.576
		c0.221,0,0.471-0.031,0.755-0.106c1.271-0.39,1.484-1.197,1.518-1.5C-130.166,114.794-128.78,114.473-128.504,113.683z"/>
	<path class="st16" d="M-128.666,111.756c-0.491,0.734-1.998,0.511-2.417,0.433c-0.133,0.251-0.569,0.851-1.697,0.851
		c-0.084,0-0.172-0.003-0.264-0.01c-1.325-0.154-1.681-0.908-1.77-1.201c-0.429-0.003-1.978-0.073-2.299-0.911
		c-0.011,0.026-0.021,0.052-0.031,0.079c-0.023,0.144-0.039,0.29-0.046,0.437c0.007,0.085,0.021,0.175,0.044,0.268
		c0.23,0.933,1.886,1.009,2.332,1.012c0.089,0.292,0.445,1.047,1.77,1.201c0.092,0.007,0.18,0.01,0.264,0.01
		c1.128,0,1.564-0.6,1.697-0.851c0.439,0.082,2.078,0.324,2.482-0.548c0.056-0.122,0.095-0.239,0.118-0.351
		C-128.513,112.012-128.575,111.872-128.666,111.756z"/>
	<g class="st17">
		<path class="st7" d="M-135.223,108.691c-0.116,0-0.214-0.091-0.221-0.208c-0.003-0.044-0.004-0.087-0.004-0.132
			c0-0.932,0.594-1.755,1.479-2.048c0.116-0.038,0.241,0.025,0.28,0.141c0.038,0.116-0.025,0.241-0.141,0.28
			c-0.703,0.233-1.176,0.887-1.176,1.627c0,0.035,0.001,0.07,0.003,0.105c0.007,0.122-0.086,0.227-0.208,0.234
			C-135.214,108.691-135.219,108.691-135.223,108.691z"/>
	</g>
</g>
<path class="st9" d="M-148.27,112.611"/>
<path class="st6" d="M-139.493,113.36c-0.106-0.206-0.274-0.32-0.387-0.377c0.07-0.299,0.105-0.606,0.105-0.915
	c0-0.084-0.004-0.168-0.009-0.251c0.001-0.002,0.001-0.003,0.002-0.005c-0.015-0.232-0.05-0.458-0.103-0.677
	c0,0.001-0.001,0.001-0.001,0.002c0-0.002-0.001-0.004-0.001-0.006c0.085-0.13,0.14-0.275,0.149-0.437
	c0.022-0.37-0.062-0.659-0.25-0.862c-0.16-0.172-0.354-0.236-0.48-0.261c-0.015-0.306-0.066-0.612-0.151-0.909
	c-0.294-1.028-0.971-1.881-1.906-2.4c-0.935-0.519-2.016-0.643-3.045-0.349c-1.028,0.294-1.881,0.971-2.4,1.906
	c-0.519,0.935-0.643,2.016-0.349,3.045c0.085,0.297,0.204,0.583,0.353,0.851c-0.094,0.087-0.225,0.244-0.27,0.474
	c-0.053,0.272,0.029,0.563,0.243,0.865c0.025,0.035,0.053,0.067,0.082,0.097c-0.058,0.057-0.113,0.126-0.157,0.212
	c-0.126,0.247-0.128,0.549-0.005,0.9c0.127,0.36,0.464,0.564,0.853,0.676l2.9,7.072c0.092,0.224,0.299,0.363,0.541,0.363
	c0.242,0,0.449-0.139,0.541-0.363l2.9-7.072c0.389-0.112,0.726-0.316,0.853-0.676C-139.363,113.911-139.365,113.607-139.493,113.36z
	"/>
<g>
	<path class="st3" d="M-147.586,113.135l6.14,0c0.321,0,0.539,0.326,0.418,0.623l-3.07,7.488c-0.153,0.374-0.682,0.374-0.835,0
		l-3.07-7.488C-148.126,113.461-147.907,113.135-147.586,113.135z"/>
</g>
<path class="st8" d="M-140.972,113.261c-0.109-0.162-0.29-0.259-0.485-0.259l-6.14,0c-0.195,0-0.376,0.097-0.485,0.259
	c-0.109,0.162-0.129,0.367-0.055,0.547l3.07,7.488c0.092,0.224,0.299,0.363,0.541,0.363s0.449-0.139,0.541-0.363l3.07-7.488
	C-140.843,113.628-140.864,113.423-140.972,113.261z M-146.776,115.269l0.937,0.937l-0.729,0.729l-0.545-1.328L-146.776,115.269z
	 M-147.223,115.34l-0.359-0.876l0.618,0.618L-147.223,115.34z M-144.775,113.268h0.495l0.689,0.689l-0.937,0.937l-0.937-0.937
	L-144.775,113.268z M-145.652,113.769l-0.501-0.501h1.002L-145.652,113.769z M-143.904,113.268h1.002l-0.501,0.501L-143.904,113.268
	z M-144.34,115.082l0.937-0.937l0.937,0.937l-0.937,0.937L-144.34,115.082z M-143.591,116.206l-0.937,0.937l-0.937-0.937
	l0.937-0.937L-143.591,116.206z M-144.715,115.082l-0.937,0.937l-0.937-0.937l0.937-0.937L-144.715,115.082z M-145.652,116.394
	l0.937,0.937l-0.937,0.937l-0.628-0.628l-0.179-0.437L-145.652,116.394z M-145.84,118.455l-0.075,0.075l-0.104-0.254
	L-145.84,118.455z M-145.652,118.643l0.937,0.937l-0.546,0.546l-0.545-1.329L-145.652,118.643z M-145.464,118.455l0.937-0.937
	l0.937,0.937l-0.937,0.937L-145.464,118.455z M-143.403,118.643l0.154,0.154l-0.545,1.329l-0.546-0.546L-143.403,118.643z
	 M-143.215,118.455l0.179-0.179l-0.104,0.254L-143.215,118.455z M-142.775,117.639l-0.628,0.628l-0.937-0.937l0.937-0.937
	l0.808,0.808L-142.775,117.639z M-143.215,116.206l0.937-0.937l0.337,0.337l-0.545,1.329L-143.215,116.206z M-142.091,115.082
	l0.618-0.618l-0.359,0.876L-142.091,115.082z M-141.193,113.409c0.06,0.09,0.071,0.198,0.03,0.298l-0.049,0.12l-1.067,1.067
	l-0.937-0.937l0.689-0.689h1.069C-141.35,113.268-141.253,113.32-141.193,113.409z M-147.862,113.409
	c0.06-0.09,0.157-0.141,0.265-0.141h1.069l0.689,0.689l-0.937,0.937l-1.067-1.067l-0.049-0.12
	C-147.933,113.608-147.922,113.499-147.862,113.409z M-144.233,121.195c-0.06,0.146-0.191,0.198-0.295,0.198
	s-0.235-0.052-0.295-0.198l-0.329-0.804l0.624-0.624l0.624,0.624L-144.233,121.195z"/>
<g>
	<path class="st19" d="M-140.785,112.345L-140.785,112.345c0.084-0.317,0.129-0.65,0.129-0.994c0-2.138-1.733-3.871-3.871-3.871
		s-3.871,1.733-3.871,3.871c0,0.343,0.045,0.676,0.129,0.994c-0.007,0.002-0.753,0.224-0.425,1.158
		c0.33,0.938,2.384,0.685,2.384,0.685s0.245,1.006,1.784,1.035c1.538-0.03,1.784-1.035,1.784-1.035s2.054,0.254,2.384-0.685
		C-140.031,112.568-140.78,112.347-140.785,112.345z"/>
	<path class="st20" d="M-144.525,115.356c-1.334-0.026-1.761-0.743-1.877-1.025c-0.444,0.04-2.1,0.123-2.418-0.784
		c-0.123-0.35-0.122-0.653,0.005-0.9c0.106-0.206,0.275-0.322,0.389-0.38c-0.07-0.299-0.105-0.606-0.105-0.916
		c0-2.208,1.796-4.004,4.004-4.004s4.004,1.796,4.004,4.004c0,0.309-0.035,0.617-0.105,0.916c0.114,0.058,0.282,0.172,0.388,0.378
		c0.127,0.247,0.129,0.55,0.006,0.902c-0.319,0.907-1.974,0.823-2.418,0.784C-142.769,114.613-143.195,115.33-144.525,115.356z
		 M-146.311,114.055c0.06,0,0.114,0.041,0.129,0.101c0.009,0.036,0.249,0.907,1.657,0.934c1.415-0.028,1.65-0.925,1.652-0.934
		c0.016-0.065,0.079-0.109,0.145-0.1c0.542,0.066,2.001,0.089,2.242-0.597c0.098-0.278,0.101-0.509,0.01-0.688
		c-0.114-0.225-0.346-0.297-0.348-0.298c-0.068-0.021-0.109-0.092-0.091-0.161c0.083-0.311,0.124-0.634,0.124-0.96
		c0-2.062-1.677-3.739-3.739-3.739c-2.061,0-3.739,1.677-3.739,3.739c0,0.325,0.042,0.648,0.124,0.96
		c0.018,0.07-0.022,0.141-0.091,0.161c-0.002,0.001-0.234,0.073-0.348,0.298c-0.091,0.179-0.087,0.41,0.011,0.688
		c0.241,0.687,1.701,0.664,2.242,0.597C-146.322,114.056-146.317,114.055-146.311,114.055z"/>
</g>
<g>
	<path class="st2" d="M-141.345,108.974L-141.345,108.974c-0.006-0.328-0.055-0.66-0.149-0.991
		c-0.588-2.056-2.731-3.246-4.787-2.658c-2.056,0.588-3.246,2.731-2.658,4.787c0.094,0.33,0.229,0.638,0.397,0.92
		c-0.006,0.004-0.663,0.422-0.09,1.23c0.575,0.812,2.48,0.003,2.48,0.003s0.512,0.899,2,0.505c1.471-0.452,1.43-1.486,1.43-1.486
		s2.045-0.321,2.104-1.314C-140.559,108.981-141.34,108.974-141.345,108.974z"/>
	<path class="st21" d="M-144.869,113.003c-0.782,0-1.184-0.389-1.332-0.576c-0.416,0.16-1.985,0.696-2.541-0.088
		c-0.215-0.304-0.297-0.596-0.242-0.868c0.045-0.227,0.176-0.384,0.269-0.471c-0.149-0.268-0.268-0.554-0.353-0.851
		c-0.294-1.028-0.17-2.11,0.349-3.045c0.519-0.935,1.372-1.612,2.4-1.906c1.028-0.294,2.11-0.17,3.045,0.349
		c0.935,0.519,1.612,1.372,1.906,2.4c0.085,0.298,0.136,0.603,0.151,0.909c0.125,0.024,0.318,0.088,0.476,0.256
		c0.191,0.202,0.276,0.494,0.254,0.866c-0.057,0.96-1.671,1.334-2.11,1.418c-0.034,0.304-0.247,1.11-1.518,1.5
		C-144.397,112.972-144.648,113.003-144.869,113.003z M-146.152,112.132c0.046,0,0.091,0.024,0.116,0.067
		c0.019,0.032,0.488,0.803,1.85,0.442c1.342-0.412,1.333-1.315,1.332-1.353c-0.002-0.067,0.046-0.125,0.112-0.136
		c0.539-0.085,1.949-0.465,1.992-1.19c0.017-0.294-0.043-0.518-0.179-0.665c-0.171-0.185-0.414-0.191-0.417-0.191
		c-0.071-0.001-0.13-0.059-0.132-0.13c-0.006-0.322-0.055-0.644-0.144-0.957c-0.275-0.96-0.907-1.756-1.78-2.241
		c-0.873-0.485-1.883-0.601-2.843-0.326c-0.96,0.275-1.756,0.907-2.241,1.78c-0.485,0.873-0.601,1.883-0.326,2.843
		c0.089,0.313,0.218,0.612,0.383,0.888c0.037,0.062,0.018,0.142-0.044,0.181c-0.001,0.001-0.204,0.134-0.252,0.382
		c-0.038,0.197,0.029,0.419,0.199,0.659c0.42,0.593,1.817,0.17,2.32-0.043C-146.187,112.135-146.17,112.132-146.152,112.132z"/>
</g>
<path class="st16" d="M-142.653,114.327c-0.116,0.282-0.542,0.999-1.872,1.025c-1.334-0.026-1.761-0.743-1.877-1.025
	c-0.268,0.024-0.976,0.063-1.566-0.107l0.326,0.796c0.504,0.084,1.019,0.054,1.239,0.034c0.117,0.282,0.543,0.999,1.877,1.025
	c1.33-0.026,1.756-0.743,1.872-1.025c0.22,0.02,0.735,0.05,1.239-0.034l0.326-0.796
	C-141.677,114.391-142.385,114.351-142.653,114.327z"/>
<path class="st16" d="M-140.53,111.096c-0.015-0.232-0.05-0.458-0.103-0.677c-0.419,0.641-1.596,0.912-1.96,0.982
	c-0.034,0.304-0.247,1.11-1.518,1.5c-0.284,0.075-0.535,0.106-0.755,0.106c-0.782,0-1.184-0.389-1.332-0.576
	c-0.398,0.153-1.845,0.648-2.459,0.009c-0.058,0.057-0.113,0.126-0.157,0.212c-0.046,0.089-0.074,0.186-0.088,0.29
	c0.041,0.093,0.094,0.188,0.162,0.284c0.556,0.784,2.124,0.249,2.541,0.088c0.148,0.187,0.55,0.576,1.332,0.576
	c0.221,0,0.471-0.031,0.755-0.106c1.271-0.39,1.484-1.197,1.518-1.5C-142.191,112.207-140.805,111.886-140.53,111.096z"/>
<g class="st17">
	<path class="st7" d="M-147.933,108.68c-0.116,0-0.214-0.091-0.221-0.208c-0.003-0.044-0.004-0.087-0.004-0.132
		c0-0.932,0.594-1.755,1.479-2.048c0.116-0.038,0.241,0.025,0.28,0.141c0.038,0.116-0.025,0.241-0.141,0.28
		c-0.703,0.233-1.175,0.887-1.175,1.627c0,0.035,0.001,0.07,0.003,0.105c0.007,0.122-0.086,0.227-0.208,0.234
		C-147.924,108.68-147.929,108.68-147.933,108.68z"/>
</g>
<g>
	<path class="st3" d="M-159.89,110.829l6.14,0c0.321,0,0.539,0.326,0.418,0.623l-3.07,7.488c-0.153,0.374-0.682,0.374-0.835,0
		l-3.07-7.488C-160.43,111.155-160.211,110.829-159.89,110.829z"/>
</g>
<path class="st8" d="M-153.277,110.955c-0.109-0.162-0.29-0.259-0.485-0.259l-6.14,0c-0.195,0-0.377,0.097-0.485,0.259
	c-0.109,0.162-0.129,0.367-0.055,0.547l3.07,7.488c0.092,0.224,0.299,0.363,0.541,0.363c0.242,0,0.449-0.139,0.541-0.363l3.07-7.488
	C-153.147,111.322-153.168,111.117-153.277,110.955z M-159.081,112.963l0.937,0.937l-0.729,0.729l-0.545-1.328L-159.081,112.963z
	 M-159.527,113.034l-0.359-0.876l0.618,0.618L-159.527,113.034z M-157.08,110.962h0.495l0.689,0.689l-0.937,0.937l-0.937-0.937
	L-157.08,110.962z M-157.956,111.463l-0.501-0.501h1.002L-157.956,111.463z M-156.208,110.962h1.002l-0.501,0.501L-156.208,110.962z
	 M-156.644,112.775l0.937-0.937l0.937,0.937l-0.937,0.937L-156.644,112.775z M-155.895,113.9l-0.937,0.937l-0.937-0.937l0.937-0.937
	L-155.895,113.9z M-157.02,112.775l-0.937,0.937l-0.937-0.937l0.937-0.937L-157.02,112.775z M-157.956,114.088l0.937,0.937
	l-0.937,0.937l-0.628-0.628l-0.179-0.437L-157.956,114.088z M-158.144,116.149l-0.075,0.075l-0.104-0.254L-158.144,116.149z
	 M-157.956,116.337l0.937,0.937l-0.546,0.546l-0.545-1.329L-157.956,116.337z M-157.768,116.149l0.937-0.937l0.937,0.937
	l-0.937,0.937L-157.768,116.149z M-155.707,116.337l0.154,0.154l-0.545,1.329l-0.546-0.546L-155.707,116.337z M-155.519,116.149
	l0.179-0.179l-0.104,0.254L-155.519,116.149z M-155.079,115.333l-0.628,0.628l-0.937-0.937l0.937-0.937l0.808,0.808
	L-155.079,115.333z M-155.519,113.9l0.937-0.937l0.337,0.337l-0.545,1.329L-155.519,113.9z M-154.395,112.775l0.618-0.618
	l-0.359,0.876L-154.395,112.775z M-153.497,111.103c0.06,0.09,0.071,0.198,0.03,0.298l-0.049,0.12l-1.067,1.067l-0.937-0.937
	l0.689-0.689h1.069C-153.654,110.962-153.558,111.013-153.497,111.103z M-160.166,111.103c0.06-0.09,0.157-0.141,0.265-0.141h1.069
	l0.689,0.689l-0.937,0.937l-1.067-1.067l-0.049-0.12C-160.237,111.301-160.226,111.193-160.166,111.103z M-156.537,118.889
	c-0.06,0.146-0.191,0.198-0.295,0.198c-0.103,0-0.235-0.052-0.295-0.198l-0.329-0.804l0.624-0.624l0.624,0.624L-156.537,118.889z"/>
<path class="st9" d="M-160.574,110.305"/>
<g>
	<path class="st19" d="M-153.089,110.039L-153.089,110.039c0.084-0.317,0.129-0.65,0.129-0.994c0-2.138-1.733-3.871-3.871-3.871
		c-2.138,0-3.871,1.733-3.871,3.871c0,0.343,0.045,0.676,0.129,0.994c-0.007,0.002-0.753,0.224-0.425,1.158
		c0.33,0.938,2.384,0.685,2.384,0.685s0.245,1.006,1.784,1.035c1.538-0.03,1.784-1.035,1.784-1.035s2.054,0.254,2.384-0.685
		C-152.335,110.262-153.084,110.041-153.089,110.039z"/>
	<path class="st20" d="M-156.829,113.05c-1.334-0.026-1.761-0.743-1.877-1.025c-0.444,0.04-2.1,0.123-2.418-0.784
		c-0.123-0.35-0.122-0.653,0.005-0.9c0.106-0.206,0.275-0.322,0.389-0.38c-0.07-0.299-0.105-0.606-0.105-0.916
		c0-2.208,1.796-4.004,4.004-4.004c2.208,0,4.004,1.796,4.004,4.004c0,0.309-0.035,0.617-0.105,0.915
		c0.115,0.058,0.284,0.174,0.39,0.383c0.125,0.246,0.126,0.548,0.004,0.897c-0.319,0.907-1.974,0.823-2.418,0.784
		C-155.074,112.307-155.5,113.024-156.829,113.05z M-158.615,111.749c0.06,0,0.114,0.041,0.129,0.101
		c0.009,0.036,0.249,0.907,1.657,0.934c1.415-0.028,1.65-0.925,1.652-0.934c0.016-0.065,0.079-0.109,0.145-0.1
		c0.542,0.066,2.001,0.089,2.242-0.597c0.098-0.278,0.101-0.51,0.01-0.689c-0.114-0.225-0.346-0.297-0.348-0.298
		c-0.069-0.021-0.109-0.092-0.09-0.161c0.083-0.311,0.124-0.634,0.124-0.959c0-2.062-1.677-3.739-3.739-3.739
		c-2.061,0-3.739,1.677-3.739,3.739c0,0.325,0.042,0.648,0.124,0.96c0.018,0.07-0.022,0.141-0.091,0.161
		c-0.002,0.001-0.234,0.073-0.348,0.298c-0.091,0.179-0.087,0.41,0.01,0.688c0.241,0.687,1.7,0.664,2.242,0.597
		C-158.626,111.749-158.621,111.749-158.615,111.749z"/>
</g>
<path class="st16" d="M-154.957,112.021c-0.116,0.282-0.542,0.999-1.872,1.025c-1.334-0.026-1.761-0.743-1.877-1.025
	c-0.268,0.024-0.976,0.063-1.566-0.107l0.326,0.796c0.504,0.084,1.019,0.054,1.239,0.034c0.117,0.282,0.543,0.999,1.877,1.025
	c1.33-0.026,1.756-0.743,1.872-1.025c0.22,0.02,0.735,0.05,1.239-0.034l0.326-0.796
	C-153.981,112.084-154.689,112.045-154.957,112.021z"/>
<g class="st18">
	<path class="st7" d="M-159.553,108.728c-0.116,0-0.214-0.091-0.221-0.208c-0.003-0.044-0.004-0.087-0.004-0.132
		c0-0.932,0.594-1.755,1.479-2.048c0.116-0.038,0.241,0.025,0.28,0.141c0.038,0.116-0.025,0.241-0.141,0.28
		c-0.703,0.233-1.175,0.887-1.175,1.627c0,0.035,0.001,0.07,0.003,0.105c0.007,0.122-0.086,0.227-0.208,0.234
		C-159.544,108.728-159.548,108.728-159.553,108.728z"/>
</g>
<text transform="matrix(1 0 0 1 255.055 45.8175)"><tspan x="0" y="0" style="font-family:'Bjola'; font-size:18px;">BARQUILLO </tspan><tspan x="20.952" y="21.6" style="font-family:'Bjola'; font-size:18px;">SIMPLE</tspan></text>
<text transform="matrix(1 0 0 1 241.9841 104.5381)" style="font-family:'Bjola'; font-size:39.1201px;">$1.200</text>
<text transform="matrix(1 0 0 1 466.0505 43.8441)"><tspan x="0" y="0" style="font-family:'Bjola'; font-size:18px;">BARQUILLO </tspan><tspan x="23.633" y="21.6" style="font-family:'Bjola'; font-size:18px;">DOBLE</tspan></text>
<text transform="matrix(1 0 0 1 452.4514 102.5646)" style="font-family:'Bjola'; font-size:39.1201px;">$1.800</text>
<text transform="matrix(1 0 0 1 672.657 45.9161)"><tspan x="0" y="0" style="font-family:'Bjola'; font-size:18px;">BARQUILLO </tspan><tspan x="23.139" y="21.6" style="font-family:'Bjola'; font-size:18px;">TRIPLE</tspan></text>
<text transform="matrix(1 0 0 1 655.9871 104.6367)" style="font-family:'Bjola'; font-size:39.1201px;">$2.200</text>
<path class="st4" d="M333.876-6.209c0,0,26.805-32.582,40.099-21.422c7.968,6.69,2.252,17.589-9.284,17.477
	C353.155-10.266,333.876-6.209,333.876-6.209z"/>
<path class="st4" d="M259.586,225.544c0,0-41.817,5.604-43.952-11.621c-1.279-10.325,10.33-14.414,18.701-6.475
	S259.586,225.544,259.586,225.544z"/>
<circle class="st4" cx="323.133" cy="-9.229" r="5.02"/>
<circle class="st4" cx="215.537" cy="194.133" r="5.02"/>
<path class="st4" d="M3.963,6.747L2.244,6.908C1.045,7.02,0.034,6.025,0.127,4.825l0.235-3.037c0.023-0.301,0.255-0.544,0.554-0.582
	l3.052-0.388C4.506,0.749,4.982,1.168,4.982,1.71v3.917C4.982,6.208,4.541,6.693,3.963,6.747z"/>
<path class="st4" d="M3.423,0.663c0,0,0.748-0.909,1.119-0.598c0.222,0.187,0.063,0.491-0.259,0.488
	C3.961,0.549,3.423,0.663,3.423,0.663z"/>
<path class="st4" d="M1.35,7.128c0,0-1.167,0.156-1.226-0.324C0.088,6.516,0.412,6.402,0.646,6.623
	C0.879,6.845,1.35,7.128,1.35,7.128z"/>
<circle class="st4" cx="3.123" cy="0.578" r="0.14"/>
<circle class="st4" cx="0.121" cy="6.252" r="0.14"/>
</svg>
