<?xml version="1.0" encoding="utf-8"?>
<!-- Generator: Adobe Illustrator 25.4.1, SVG Export Plug-In . SVG Version: 6.00 Build 0)  -->
<svg version="1.1" id="Capa_1" xmlns="http://www.w3.org/2000/svg" xmlns:xlink="http://www.w3.org/1999/xlink" x="0px" y="0px"
	 width="10px" height="17.332px" viewBox="0 0 10 17.332" style="enable-background:new 0 0 10 17.332;" xml:space="preserve">
<style type="text/css">
	.st0{fill:#84EEBD;}
	.st1{opacity:0.7;fill:#FFFFFF;}
	.st2{fill:#DA69A8;}
	.st3{fill:#FBD187;}
	.st4{fill:#29ABE2;}
	.st5{opacity:0.2;}
	.st6{fill:#FFFFFF;}
	.st7{fill:#E5A43C;}
	.st8{stroke:#FFFFFF;stroke-miterlimit:10;}
	.st9{stroke:#FFFFFF;stroke-width:3;stroke-miterlimit:10;}
	.st10{stroke:#FFFFFF;stroke-width:3;stroke-linecap:round;stroke-linejoin:round;stroke-miterlimit:10;}
	.st11{fill:none;stroke:#FFFFFF;stroke-width:3;stroke-miterlimit:10;}
	.st12{fill:#5D3424;stroke:#33170E;stroke-width:3;stroke-linecap:round;stroke-linejoin:round;stroke-miterlimit:10;}
	.st13{fill:#DA69A8;stroke:#91306A;stroke-width:3;stroke-linecap:round;stroke-linejoin:round;stroke-miterlimit:10;}
	.st14{fill:#84EEBD;stroke:#309964;stroke-width:3;stroke-linecap:round;stroke-linejoin:round;stroke-miterlimit:10;}
	.st15{opacity:0.1;}
	.st16{opacity:0.7;}
	.st17{opacity:0.4;}
	.st18{fill:#5D3424;}
	.st19{fill:#33170E;}
	.st20{fill:#91306A;}
	.st21{fill:#309964;}
</style>
<rect x="764.8" y="-252.199" class="st0" width="207.303" height="625.823"/>
<path class="st1" d="M914.065,112.263l-61.605,5.768c-42.974,4.024-79.211-31.633-75.882-74.666l8.421-108.861
	c0.834-10.78,9.126-19.492,19.852-20.857l109.413-13.923c19.283-2.454,36.343,12.573,36.343,32.012V72.139
	C950.607,92.94,934.775,110.324,914.065,112.263z"/>
<path class="st1" d="M894.704-105.818c0,0,26.805-32.582,40.099-21.422c7.968,6.69,2.252,17.589-9.284,17.477
	C913.983-109.875,894.704-105.818,894.704-105.818z"/>
<path class="st1" d="M820.414,125.935c0,0-41.817,5.604-43.952-11.621c-1.279-10.325,10.33-14.414,18.701-6.475
	C803.533,115.776,820.414,125.935,820.414,125.935z"/>
<circle class="st1" cx="883.961" cy="-108.838" r="5.02"/>
<circle class="st1" cx="776.365" cy="94.524" r="5.02"/>
<rect x="557.497" y="-252.199" class="st2" width="207.303" height="625.823"/>
<path class="st1" d="M712.463,109.664l-61.605,5.768c-42.974,4.024-79.211-31.633-75.882-74.666l8.421-108.861
	c0.834-10.78,9.126-19.492,19.852-20.857l109.413-13.923c19.283-2.454,36.343,12.573,36.343,32.012V69.541
	C749.006,90.342,733.174,107.725,712.463,109.664z"/>
<path class="st1" d="M693.103-108.416c0,0,26.805-32.582,40.099-21.422c7.968,6.69,2.252,17.589-9.284,17.477
	C712.382-112.473,693.103-108.416,693.103-108.416z"/>
<path class="st1" d="M618.812,123.336c0,0-41.817,5.604-43.952-11.621c-1.279-10.325,10.33-14.414,18.701-6.475
	C601.932,113.178,618.812,123.336,618.812,123.336z"/>
<circle class="st1" cx="682.36" cy="-111.436" r="5.02"/>
<circle class="st1" cx="574.764" cy="91.926" r="5.02"/>
<rect x="350.437" y="-252.199" class="st3" width="207.303" height="625.823"/>
<path class="st1" d="M502.546,106.83l-61.605,5.768c-42.974,4.024-79.211-31.633-75.882-74.666l8.421-108.861
	c0.834-10.78,9.126-19.492,19.852-20.857l109.413-13.923c19.283-2.454,36.343,12.573,36.343,32.012V66.707
	C539.088,87.508,523.256,104.891,502.546,106.83z"/>
<rect x="972.104" y="-252.199" class="st4" width="207.303" height="625.823"/>
<path class="st5" d="M509.991,80.635c-1.198-2.323-3.099-3.618-4.381-4.27c0.789-3.373,1.188-6.844,1.188-10.337
	c0-24.931-20.282-45.213-45.212-45.213s-45.212,20.282-45.212,45.213c0,3.493,0.399,6.965,1.188,10.339
	c-1.286,0.655-3.197,1.958-4.391,4.285c-1.429,2.786-1.448,6.205-0.057,10.164c1.429,4.067,5.241,6.366,9.629,7.636l32.74,79.853
	c1.035,2.525,3.374,4.094,6.103,4.094s5.068-1.568,6.103-4.094l32.738-79.852c4.389-1.27,8.201-3.569,9.63-7.637
	C511.452,86.85,511.429,83.424,509.991,80.635z"/>
<path class="st5" d="M727.912,105.182c-1.201-2.322-3.096-3.612-4.375-4.262c0.788-3.371,1.187-6.842,1.187-10.335
	c0-0.952-0.039-1.894-0.098-2.831c0.007-0.02,0.017-0.039,0.024-0.06c-0.169-2.615-0.561-5.168-1.157-7.645
	c-0.005,0.007-0.011,0.014-0.016,0.021c-0.005-0.023-0.01-0.046-0.016-0.068c0.961-1.468,1.578-3.103,1.687-4.93
	c0.248-4.173-0.702-7.446-2.825-9.731c-1.802-1.938-4.001-2.668-5.424-2.943c-0.17-3.46-0.74-6.905-1.7-10.262
	c-3.32-11.611-10.963-21.235-21.521-27.099c-10.557-5.862-22.766-7.263-34.378-3.942c-11.611,3.32-21.235,10.963-27.098,21.521
	c-5.863,10.558-7.264,22.767-3.943,34.378c0.961,3.357,2.298,6.584,3.982,9.608c-1.061,0.982-2.536,2.756-3.044,5.353
	c-0.601,3.066,0.322,6.353,2.743,9.77c0.283,0.399,0.596,0.757,0.922,1.097c-0.65,0.642-1.273,1.425-1.769,2.395
	c-1.425,2.784-1.442,6.202-0.053,10.157c1.429,4.067,5.241,6.365,9.629,7.635l32.74,79.853c1.035,2.525,3.374,4.094,6.103,4.094
	s5.068-1.568,6.103-4.094l32.738-79.852c4.389-1.27,8.201-3.568,9.63-7.636C729.378,111.402,729.355,107.973,727.912,105.182z"/>
<path class="st5" d="M920.815,134.89c-1.198-2.359-3.113-3.667-4.406-4.322c0.788-3.372,1.187-6.843,1.187-10.335
	c0-0.952-0.039-1.894-0.098-2.832c0.007-0.02,0.017-0.039,0.024-0.059c-0.169-2.615-0.561-5.168-1.157-7.645
	c-0.005,0.007-0.011,0.014-0.016,0.021c-0.005-0.023-0.01-0.046-0.016-0.068c0.961-1.467,1.578-3.103,1.687-4.93
	c0.127-2.141-0.066-4.041-0.566-5.697c-0.023-0.077-0.054-0.148-0.078-0.223c-0.111-0.342-0.231-0.676-0.369-0.996
	c-0.034-0.079-0.075-0.153-0.111-0.231c-0.141-0.307-0.292-0.607-0.459-0.892c-0.045-0.077-0.096-0.149-0.143-0.225
	c-0.168-0.27-0.344-0.532-0.536-0.782c-0.018-0.023-0.032-0.049-0.05-0.073c0.272-0.407,0.525-0.831,0.738-1.292
	c1.764-3.805,2.073-7.209,0.92-10.118c-0.963-2.432-2.744-3.914-3.961-4.691c1.109-3.282,1.839-6.7,2.175-10.178
	c1.159-12.021-2.433-23.773-10.114-33.093c-7.681-9.319-18.531-15.09-30.552-16.249c-24.811-2.389-46.95,15.851-49.342,40.666
	c-0.335,3.479-0.271,6.974,0.191,10.408c-1.345,0.531-3.379,1.648-4.788,3.852c-1.685,2.634-2.03,6.033-1.026,10.102
	c0.064,0.258,0.145,0.506,0.227,0.752c-1.312,6.858-1.021,13.975,0.954,20.883c0.96,3.359,2.299,6.587,3.985,9.614
	c-1.055,0.982-2.533,2.758-3.042,5.323c-0.61,3.072,0.312,6.367,2.738,9.792c0.283,0.399,0.596,0.757,0.922,1.097
	c-0.647,0.64-1.269,1.421-1.765,2.388c-1.429,2.785-1.448,6.205-0.057,10.164c1.429,4.067,5.241,6.366,9.629,7.636l32.74,79.852
	c1.035,2.525,3.374,4.094,6.103,4.094s5.068-1.568,6.103-4.094l32.738-79.852c4.389-1.27,8.201-3.569,9.63-7.637
	C922.241,141.079,922.228,137.67,920.815,134.89z"/>
<g>
	<rect x="133.839" y="-1106.664" width="1361" height="763"/>
	<path class="st6" d="M1492.339-1104.164v758h-1356v-758H1492.339 M1497.339-1109.164h-1366v768h1366V-1109.164L1497.339-1109.164z"
		/>
</g>
<path class="st3" d="M542.962-725.624l69.323,0c3.624,0,6.09,3.676,4.715,7.029l-34.661,84.542c-1.729,4.217-7.701,4.217-9.431,0
	l-34.662-84.542C536.872-721.947,539.338-725.624,542.962-725.624z"/>
<path class="st7" d="M617.637-724.202c-1.227-1.83-3.275-2.922-5.478-2.922l-69.323,0c-2.203,0-4.251,1.092-5.478,2.921
	c-1.227,1.83-1.461,4.139-0.625,6.178l34.662,84.541c1.035,2.525,3.374,4.094,6.103,4.094s5.068-1.568,6.103-4.094l34.661-84.542
	C619.098-720.063,618.864-722.373,617.637-724.202z M552.105-701.528l10.575,10.575l-8.231,8.231l-6.15-15L552.105-701.528z
	 M547.065-700.731l-4.056-9.892l6.974,6.974L547.065-700.731z M574.7-724.124h5.594l7.779,7.778l-10.575,10.575l-10.575-10.575
	L574.7-724.124z M564.801-718.467l-5.657-5.657h11.314L564.801-718.467z M584.536-724.124h11.314l-5.657,5.657L584.536-724.124z
	 M579.619-703.65l10.575-10.575l10.575,10.575l-10.575,10.575L579.619-703.65z M588.073-690.953l-10.576,10.576l-10.575-10.575
	l10.576-10.575L588.073-690.953z M575.376-703.65l-10.576,10.575l-10.575-10.575l10.575-10.575L575.376-703.65z M564.801-688.832
	l10.575,10.575l-10.575,10.575l-7.094-7.094l-2.025-4.938L564.801-688.832z M562.68-665.561l-0.847,0.847l-1.177-2.872
	L562.68-665.561z M564.801-663.44l10.576,10.576l-6.16,6.16l-6.15-15.001L564.801-663.44z M566.922-665.561l10.575-10.575
	l10.576,10.576l-10.575,10.575L566.922-665.561z M590.194-663.439l1.735,1.735l-6.15,15l-6.16-6.16L590.194-663.439z
	 M592.315-665.56l2.025-2.025l-1.178,2.873L592.315-665.56z M597.288-674.775l-7.094,7.094l-10.576-10.576l10.576-10.576
	l9.119,9.119L597.288-674.775z M592.315-690.953l10.575-10.575l3.806,3.806l-6.15,15L592.315-690.953z M605.011-703.649l6.974-6.974
	l-4.056,9.892L605.011-703.649z M615.145-722.531c0.679,1.013,0.803,2.24,0.341,3.367l-0.554,1.351l-12.043,12.043l-10.575-10.575
	l7.779-7.779h12.065C613.378-724.124,614.466-723.543,615.145-722.531z M539.849-722.53c0.679-1.013,1.768-1.594,2.987-1.594h12.065
	l7.779,7.778l-10.575,10.575l-12.043-12.043l-0.553-1.35C539.046-720.291,539.17-721.519,539.849-722.53z M580.826-634.622
	c-0.675,1.646-2.162,2.232-3.328,2.232s-2.653-0.586-3.328-2.232l-3.72-9.073l7.047-7.047l7.048,7.048L580.826-634.622z"/>
<path class="st8" d="M372.59-731.544"/>
<path class="st9" d="M380.184-725.624l69.323,0c3.624,0,6.09,3.676,4.715,7.029l-34.661,84.542c-1.729,4.217-7.701,4.217-9.431,0
	l-34.662-84.542C374.094-721.948,376.56-725.624,380.184-725.624z"/>
<g>
	<line class="st10" x1="398.649" y1="-662.059" x2="453.555" y2="-716.966"/>
	<line class="st10" x1="431.044" y1="-662.059" x2="376.137" y2="-716.966"/>
	<line class="st10" x1="406.032" y1="-644.05" x2="435.91" y2="-673.928"/>
	<line class="st10" x1="423.661" y1="-644.05" x2="393.783" y2="-673.928"/>
	<line class="st10" x1="391.265" y1="-680.068" x2="436.821" y2="-725.624"/>
	<line class="st10" x1="438.428" y1="-680.068" x2="392.872" y2="-725.624"/>
	<line class="st10" x1="383.881" y1="-698.077" x2="411.428" y2="-725.624"/>
	<line class="st10" x1="445.811" y1="-698.077" x2="418.265" y2="-725.624"/>
	<path class="st11" d="M380.185-725.624l69.323,0c3.624,0,6.09,3.676,4.715,7.029l-34.661,84.542c-1.729,4.217-7.701,4.217-9.431,0
		l-34.662-84.542C374.095-721.947,376.561-725.624,380.185-725.624z"/>
</g>
<path class="st10" d="M457.105-734.543l0.001-0.001c0.948-3.58,1.453-7.339,1.453-11.217c0-24.142-19.571-43.712-43.712-43.712
	s-43.712,19.571-43.712,43.712c0,3.878,0.505,7.638,1.453,11.218c-0.076,0.022-8.503,2.527-4.797,13.074
	c3.722,10.594,26.916,7.731,26.916,7.731s2.772,11.353,20.141,11.69c17.369-0.337,20.141-11.69,20.141-11.69
	s23.193,2.863,26.916-7.731C465.614-732.03,457.159-734.527,457.105-734.543z"/>
<path class="st10" d="M450.777-772.613l0.001-0.001c-0.073-3.702-0.621-7.456-1.687-11.184
	c-6.637-23.211-30.834-36.648-54.045-30.01s-36.648,30.834-30.01,54.045c1.066,3.729,2.586,7.205,4.481,10.386
	c-0.067,0.043-7.481,4.767-1.018,13.889c6.492,9.163,28.004,0.034,28.004,0.034s5.786,10.154,22.579,5.702
	c16.607-5.099,16.151-16.776,16.151-16.776s23.087-3.623,23.753-14.833C459.649-772.536,450.834-772.613,450.777-772.613z"/>
<path class="st10" d="M454.025-785.789l0.001-0.001c1.287-3.472,2.15-7.166,2.522-11.026c2.316-24.03-15.286-45.388-39.317-47.705
	c-24.03-2.316-45.388,15.286-47.705,39.317c-0.372,3.86-0.23,7.651,0.37,11.306c-0.078,0.015-8.706,1.7-6.03,12.553
	c2.689,10.903,26.05,10.278,26.05,10.278s1.67,11.567,18.927,13.568c17.321,1.332,21.17-9.703,21.17-9.703
	s22.812,5.076,27.533-5.113C462.254-782.471,454.078-785.768,454.025-785.789z"/>
<path class="st8" d="M535.242-731.544"/>
<path class="st12" d="M619.756-734.543l0.001-0.001c0.948-3.58,1.453-7.339,1.453-11.217c0-24.142-19.571-43.712-43.712-43.712
	s-43.712,19.571-43.712,43.712c0,3.878,0.505,7.638,1.453,11.218c-0.076,0.022-8.503,2.527-4.797,13.074
	c3.722,10.594,26.916,7.731,26.916,7.731s2.772,11.353,20.141,11.69c17.369-0.337,20.141-11.69,20.141-11.69
	s23.193,2.863,26.916-7.731C628.265-732.03,619.81-734.527,619.756-734.543z"/>
<path class="st13" d="M613.428-772.613l0.001-0.001c-0.073-3.702-0.621-7.456-1.687-11.184
	c-6.637-23.211-30.834-36.648-54.045-30.01c-23.211,6.637-36.648,30.834-30.01,54.045c1.066,3.729,2.586,7.205,4.481,10.386
	c-0.067,0.043-7.481,4.767-1.018,13.889c6.492,9.163,28.004,0.034,28.004,0.034s5.786,10.154,22.579,5.702
	c16.607-5.099,16.151-16.776,16.151-16.776s23.087-3.623,23.753-14.833C622.3-772.536,613.485-772.613,613.428-772.613z"/>
<path class="st14" d="M616.676-785.789l0.001-0.001c1.287-3.472,2.15-7.166,2.522-11.026c2.316-24.03-15.286-45.388-39.317-47.705
	c-24.03-2.316-45.388,15.286-47.705,39.317c-0.372,3.86-0.23,7.651,0.37,11.306c-0.078,0.015-8.706,1.7-6.03,12.553
	c2.689,10.903,26.05,10.278,26.05,10.278s1.67,11.567,18.927,13.568c17.321,1.332,21.17-9.703,21.17-9.703
	s22.812,5.076,27.533-5.113C624.905-782.471,616.729-785.768,616.676-785.789z"/>
<path class="st15" d="M598.664-712.168c-1.315,3.189-6.125,11.285-21.138,11.576c-15.06-0.291-19.879-8.387-21.195-11.576
	c-3.025,0.27-11.016,0.716-17.676-1.212l3.685,8.987c5.688,0.947,11.511,0.607,13.991,0.385c1.316,3.189,6.135,11.285,21.195,11.576
	c15.013-0.291,19.823-8.387,21.138-11.576c2.482,0.221,8.303,0.562,13.991-0.385l3.684-8.987
	C609.68-711.451,601.691-711.898,598.664-712.168z"/>
<path class="st15" d="M622.636-748.652c-0.169-2.615-0.561-5.168-1.157-7.645c-4.735,7.235-18.019,10.295-22.134,11.085
	c-0.388,3.428-2.787,12.535-17.141,16.941c-3.204,0.85-6.036,1.199-8.525,1.199c-8.825,0.001-13.364-4.393-15.036-6.502
	c-4.49,1.728-20.833,7.312-27.763,0.098c-0.649,0.642-1.273,1.425-1.769,2.395c-0.516,1.008-0.841,2.101-0.988,3.269
	c0.466,1.056,1.066,2.126,1.834,3.211c6.276,8.857,23.984,2.809,28.686,0.999c1.672,2.109,6.211,6.503,15.036,6.502
	c2.49,0,5.322-0.35,8.525-1.199c14.354-4.406,16.753-13.513,17.141-16.941C603.876-736.11,619.529-739.732,622.636-748.652z"/>
<path class="st15" d="M620.81-770.408c-5.54,8.287-22.563,5.772-27.286,4.888c-1.502,2.837-6.427,9.612-19.166,9.612
	c-0.951,0-1.945-0.038-2.984-0.118c-14.963-1.734-18.982-10.255-19.987-13.557c-4.848-0.035-22.337-0.829-25.964-10.281
	c-0.129,0.288-0.242,0.585-0.344,0.888c-0.264,1.627-0.435,3.275-0.519,4.937c0.077,0.965,0.235,1.971,0.495,3.029
	c2.599,10.539,21.293,11.39,26.331,11.426c1.004,3.301,5.024,11.822,19.987,13.557c1.04,0.08,2.033,0.118,2.984,0.118
	c12.739,0,17.664-6.775,19.166-9.612c4.956,0.928,23.466,3.662,28.028-6.186c0.637-1.375,1.078-2.696,1.335-3.962
	C622.535-767.52,621.835-769.1,620.81-770.408z"/>
<g class="st16">
	<path class="st6" d="M546.773-805.01c-1.312,0-2.413-1.022-2.493-2.349c-0.03-0.492-0.048-0.988-0.048-1.488
		c0-10.523,6.712-19.815,16.701-23.122c1.312-0.433,2.725,0.277,3.159,1.588c0.434,1.311-0.277,2.725-1.588,3.159
		c-7.938,2.627-13.272,10.012-13.272,18.375c0,0.398,0.015,0.792,0.039,1.185c0.083,1.378-0.966,2.563-2.344,2.647
		C546.876-805.012,546.824-805.01,546.773-805.01z"/>
</g>
<path class="st15" d="M649.498-734.103c-1.198-2.359-3.113-3.667-4.406-4.322c0.788-3.372,1.187-6.843,1.187-10.335
	c0-0.952-0.039-1.894-0.098-2.832c0.007-0.02,0.017-0.039,0.024-0.059c-0.169-2.615-0.561-5.168-1.157-7.645
	c-0.005,0.007-0.011,0.014-0.016,0.021c-0.005-0.023-0.01-0.046-0.016-0.068c0.961-1.467,1.578-3.103,1.687-4.93
	c0.127-2.141-0.066-4.041-0.566-5.697c-0.023-0.077-0.054-0.148-0.078-0.223c-0.111-0.342-0.231-0.676-0.369-0.996
	c-0.034-0.079-0.075-0.153-0.111-0.231c-0.141-0.307-0.292-0.607-0.459-0.892c-0.045-0.077-0.096-0.149-0.143-0.225
	c-0.168-0.27-0.344-0.532-0.536-0.782c-0.018-0.023-0.032-0.049-0.05-0.073c0.272-0.407,0.525-0.831,0.738-1.292
	c1.764-3.805,2.073-7.209,0.92-10.118c-0.963-2.432-2.744-3.914-3.961-4.691c1.109-3.282,1.839-6.7,2.175-10.178
	c1.159-12.021-2.433-23.773-10.114-33.093c-7.681-9.319-18.531-15.09-30.552-16.249c-24.811-2.389-46.95,15.851-49.342,40.666
	c-0.335,3.479-0.271,6.974,0.191,10.408c-1.345,0.531-3.379,1.648-4.788,3.852c-1.685,2.634-2.03,6.033-1.026,10.102
	c0.064,0.258,0.145,0.506,0.227,0.752c-1.312,6.858-1.021,13.975,0.954,20.883c0.96,3.359,2.299,6.587,3.985,9.614
	c-1.055,0.982-2.533,2.758-3.042,5.323c-0.61,3.072,0.312,6.367,2.738,9.792c0.283,0.399,0.596,0.757,0.922,1.097
	c-0.647,0.64-1.269,1.421-1.765,2.388c-1.429,2.785-1.448,6.205-0.057,10.164c1.429,4.067,5.241,6.366,9.629,7.636l32.74,79.852
	c1.035,2.525,3.374,4.094,6.103,4.094s5.068-1.568,6.103-4.094l32.738-79.852c4.389-1.27,8.201-3.569,9.63-7.637
	C650.923-727.914,650.91-731.323,649.498-734.103z"/>
<path class="st3" d="M830.214,131.869l69.323,0c3.624,0,6.09,3.676,4.715,7.029l-34.661,84.542c-1.729,4.217-7.701,4.217-9.431,0
	l-34.662-84.542C824.124,135.546,826.59,131.869,830.214,131.869z"/>
<path class="st7" d="M904.888,133.291c-1.227-1.83-3.275-2.922-5.478-2.922l-69.323,0c-2.203,0-4.251,1.092-5.478,2.921
	c-1.227,1.83-1.461,4.139-0.625,6.178l34.662,84.541c1.035,2.525,3.374,4.094,6.103,4.094s5.068-1.568,6.103-4.094l34.661-84.542
	C906.349,137.429,906.115,135.12,904.888,133.291z M839.356,155.965l10.575,10.575l-8.231,8.231l-6.15-15L839.356,155.965z
	 M834.317,156.762l-4.056-9.892l6.974,6.974L834.317,156.762z M861.951,133.369h5.594l7.779,7.778l-10.575,10.575l-10.575-10.575
	L861.951,133.369z M852.052,139.026l-5.657-5.657h11.314L852.052,139.026z M871.788,133.369h11.314l-5.657,5.657L871.788,133.369z
	 M866.87,153.843l10.575-10.575l10.575,10.575l-10.575,10.575L866.87,153.843z M875.324,166.54l-10.576,10.576l-10.575-10.575
	l10.576-10.575L875.324,166.54z M862.627,153.843l-10.576,10.575l-10.575-10.575l10.575-10.575L862.627,153.843z M852.052,168.661
	l10.575,10.575l-10.575,10.575l-7.094-7.094l-2.025-4.938L852.052,168.661z M849.931,191.932l-0.847,0.847l-1.177-2.872
	L849.931,191.932z M852.052,194.053l10.576,10.576l-6.16,6.16l-6.15-15.001L852.052,194.053z M854.173,191.932l10.575-10.575
	l10.576,10.576l-10.575,10.575L854.173,191.932z M877.445,194.054l1.735,1.735l-6.15,15l-6.16-6.16L877.445,194.054z
	 M879.566,191.933l2.025-2.025l-1.178,2.873L879.566,191.933z M884.539,182.718l-7.094,7.094l-10.576-10.576l10.576-10.576
	l9.119,9.119L884.539,182.718z M879.566,166.539l10.575-10.575l3.806,3.806l-6.15,15L879.566,166.539z M892.262,153.843l6.974-6.974
	l-4.056,9.892L892.262,153.843z M902.397,134.962c0.679,1.013,0.803,2.24,0.341,3.367l-0.554,1.351l-12.043,12.043l-10.575-10.575
	l7.779-7.779h12.065C900.629,133.369,901.717,133.95,902.397,134.962z M827.1,134.963c0.679-1.013,1.768-1.594,2.987-1.594h12.065
	l7.779,7.778l-10.575,10.575l-12.043-12.043l-0.553-1.35C826.297,137.202,826.422,135.974,827.1,134.963z M868.077,222.871
	c-0.675,1.646-2.162,2.232-3.328,2.232s-2.653-0.586-3.328-2.232l-3.72-9.073l7.047-7.047l7.048,7.048L868.077,222.871z"/>
<path class="st8" d="M822.493,125.949"/>
<path class="st12" d="M907.007,122.95l0.001-0.001c0.948-3.58,1.453-7.339,1.453-11.217c0-24.142-19.571-43.712-43.712-43.712
	s-43.712,19.571-43.712,43.712c0,3.878,0.505,7.638,1.453,11.218c-0.076,0.022-8.503,2.527-4.797,13.074
	c3.722,10.594,26.916,7.731,26.916,7.731s2.772,11.353,20.141,11.69c17.369-0.337,20.141-11.69,20.141-11.69
	s23.193,2.863,26.916-7.731C915.516,125.463,907.061,122.966,907.007,122.95z"/>
<path class="st13" d="M900.679,84.88l0.001-0.001c-0.073-3.702-0.621-7.456-1.687-11.184c-6.637-23.211-30.834-36.648-54.045-30.01
	c-23.211,6.637-36.648,30.834-30.01,54.045c1.066,3.729,2.586,7.205,4.481,10.386c-0.067,0.043-7.481,4.767-1.018,13.889
	c6.492,9.163,28.004,0.033,28.004,0.033s5.786,10.154,22.579,5.702c16.607-5.099,16.151-16.776,16.151-16.776
	s23.087-3.623,23.753-14.833C909.551,84.957,900.736,84.88,900.679,84.88z"/>
<path class="st14" d="M903.928,71.704l0.001-0.001c1.287-3.472,2.15-7.166,2.522-11.026c2.316-24.03-15.286-45.388-39.317-47.705
	c-24.03-2.316-45.388,15.286-47.705,39.317c-0.372,3.86-0.23,7.651,0.37,11.306c-0.078,0.015-8.706,1.7-6.03,12.553
	c2.689,10.903,26.05,10.278,26.05,10.278s1.67,11.567,18.927,13.568c17.321,1.332,21.17-9.703,21.17-9.703
	s22.812,5.076,27.533-5.113C912.156,75.022,903.98,71.725,903.928,71.704z"/>
<path class="st15" d="M885.915,145.325c-1.315,3.189-6.125,11.285-21.138,11.576c-15.06-0.291-19.879-8.387-21.195-11.576
	c-3.025,0.27-11.016,0.716-17.676-1.212l3.685,8.987c5.688,0.947,11.511,0.607,13.991,0.385c1.316,3.189,6.135,11.285,21.195,11.576
	c15.013-0.291,19.823-8.387,21.138-11.576c2.482,0.221,8.303,0.562,13.991-0.385l3.684-8.987
	C896.931,146.041,888.942,145.595,885.915,145.325z"/>
<path class="st15" d="M909.887,108.841c-0.169-2.615-0.561-5.168-1.157-7.645c-4.735,7.235-18.019,10.295-22.134,11.085
	c-0.388,3.428-2.787,12.535-17.141,16.941c-3.204,0.85-6.036,1.199-8.525,1.199c-8.825,0.001-13.364-4.393-15.036-6.502
	c-4.49,1.728-20.833,7.312-27.763,0.098c-0.649,0.642-1.273,1.425-1.769,2.395c-0.516,1.008-0.841,2.101-0.988,3.269
	c0.466,1.056,1.066,2.126,1.834,3.211c6.276,8.857,23.984,2.809,28.686,0.999c1.672,2.109,6.211,6.503,15.036,6.502
	c2.49,0,5.322-0.35,8.525-1.199c14.354-4.406,16.753-13.513,17.141-16.941C891.127,121.383,906.78,117.761,909.887,108.841z"/>
<path class="st15" d="M908.062,87.085c-5.54,8.287-22.563,5.772-27.286,4.888c-1.502,2.837-6.427,9.612-19.166,9.612
	c-0.951,0-1.945-0.038-2.984-0.118c-14.963-1.734-18.982-10.255-19.987-13.557c-4.848-0.035-22.337-0.829-25.964-10.281
	c-0.129,0.288-0.242,0.585-0.344,0.888c-0.264,1.627-0.435,3.275-0.519,4.937c0.077,0.965,0.235,1.971,0.495,3.029
	c2.599,10.539,21.293,11.39,26.331,11.426c1.004,3.301,5.024,11.822,19.987,13.557c1.04,0.08,2.033,0.118,2.984,0.118
	c12.739,0,17.664-6.775,19.166-9.612c4.956,0.928,23.466,3.662,28.028-6.186c0.637-1.375,1.078-2.696,1.335-3.962
	C909.786,89.972,909.086,88.393,908.062,87.085z"/>
<g class="st16">
	<path class="st6" d="M834.025,52.483c-1.312,0-2.413-1.022-2.493-2.349c-0.03-0.492-0.048-0.988-0.048-1.488
		c0-10.523,6.712-19.815,16.701-23.122c1.312-0.433,2.725,0.277,3.159,1.588c0.434,1.311-0.277,2.725-1.588,3.159
		c-7.938,2.627-13.272,10.012-13.272,18.375c0,0.398,0.015,0.792,0.039,1.185c0.083,1.378-0.966,2.563-2.344,2.647
		C834.127,52.481,834.075,52.483,834.025,52.483z"/>
</g>
<path class="st3" d="M636.536,102.649l69.323,0c3.624,0,6.09,3.676,4.715,7.029l-34.661,84.542c-1.729,4.217-7.701,4.217-9.431,0
	l-34.662-84.542C630.446,106.325,632.912,102.649,636.536,102.649z"/>
<path class="st7" d="M711.21,104.07c-1.227-1.83-3.275-2.922-5.478-2.922l-69.323,0c-2.203,0-4.251,1.092-5.478,2.921
	c-1.227,1.83-1.461,4.139-0.625,6.178l34.662,84.541c1.035,2.525,3.374,4.094,6.103,4.094s5.068-1.568,6.103-4.094l34.661-84.542
	C712.672,108.209,712.438,105.899,711.21,104.07z M645.678,126.744l10.575,10.575l-8.231,8.231l-6.15-15L645.678,126.744z
	 M640.639,127.541l-4.056-9.892l6.974,6.974L640.639,127.541z M668.274,104.148h5.594l7.779,7.778l-10.575,10.575l-10.575-10.575
	L668.274,104.148z M658.375,109.805l-5.657-5.657h11.314L658.375,109.805z M678.11,104.148h11.314l-5.657,5.657L678.11,104.148z
	 M673.192,124.623l10.575-10.575l10.575,10.575l-10.575,10.575L673.192,124.623z M681.646,137.319l-10.576,10.576l-10.575-10.575
	l10.576-10.575L681.646,137.319z M668.95,124.623l-10.576,10.575l-10.575-10.575l10.575-10.575L668.95,124.623z M658.374,139.441
	l10.575,10.575l-10.575,10.575l-7.094-7.094l-2.025-4.938L658.374,139.441z M656.253,162.712l-0.847,0.847l-1.177-2.872
	L656.253,162.712z M658.375,164.833l10.576,10.576l-6.16,6.16l-6.15-15.001L658.375,164.833z M660.496,162.712l10.575-10.575
	l10.576,10.576l-10.575,10.575L660.496,162.712z M683.767,164.833l1.735,1.735l-6.15,15l-6.16-6.16L683.767,164.833z
	 M685.888,162.712l2.025-2.025l-1.178,2.873L685.888,162.712z M690.862,153.497l-7.094,7.094l-10.576-10.576l10.576-10.576
	l9.119,9.119L690.862,153.497z M685.889,137.319l10.575-10.575l3.806,3.806l-6.15,15L685.889,137.319z M698.585,124.623l6.974-6.974
	l-4.056,9.892L698.585,124.623z M708.719,105.741c0.679,1.013,0.803,2.24,0.341,3.367l-0.554,1.351l-12.043,12.043l-10.575-10.575
	l7.779-7.779h12.065C706.951,104.148,708.04,104.729,708.719,105.741z M633.423,105.742c0.679-1.013,1.768-1.594,2.987-1.594h12.065
	l7.779,7.778l-10.575,10.575l-12.043-12.043l-0.553-1.35C632.619,107.981,632.744,106.754,633.423,105.742z M674.399,193.65
	c-0.675,1.646-2.162,2.232-3.328,2.232s-2.653-0.586-3.328-2.232l-3.72-9.073l7.047-7.047l7.048,7.048L674.399,193.65z"/>
<path class="st8" d="M628.815,96.729"/>
<path class="st12" d="M713.329,93.73l0.001-0.001c0.948-3.58,1.453-7.339,1.453-11.217c0-24.142-19.571-43.712-43.712-43.712
	s-43.712,19.571-43.712,43.712c0,3.878,0.505,7.638,1.453,11.218c-0.076,0.022-8.503,2.527-4.797,13.074
	c3.722,10.594,26.916,7.731,26.916,7.731s2.772,11.353,20.141,11.69c17.369-0.337,20.141-11.69,20.141-11.69
	s23.193,2.863,26.916-7.731C721.838,96.243,713.384,93.745,713.329,93.73z"/>
<path class="st13" d="M707.002,55.659l0.001-0.001c-0.073-3.702-0.621-7.456-1.687-11.184c-6.637-23.211-30.834-36.648-54.045-30.01
	c-23.211,6.637-36.648,30.834-30.01,54.045c1.066,3.729,2.586,7.205,4.481,10.386c-0.067,0.043-7.481,4.767-1.018,13.889
	c6.492,9.163,28.004,0.033,28.004,0.033s5.786,10.154,22.579,5.702c16.607-5.099,16.151-16.776,16.151-16.776
	s23.087-3.623,23.753-14.833C715.874,55.737,707.058,55.66,707.002,55.659z"/>
<path class="st15" d="M692.238,116.105c-1.315,3.189-6.125,11.285-21.138,11.576c-15.06-0.291-19.879-8.387-21.195-11.576
	c-3.025,0.27-11.016,0.716-17.676-1.212l3.685,8.987c5.688,0.947,11.511,0.607,13.991,0.385c1.316,3.189,6.135,11.285,21.195,11.576
	c15.013-0.291,19.823-8.387,21.138-11.576c2.482,0.221,8.303,0.562,13.991-0.385l3.684-8.987
	C703.254,116.821,695.264,116.374,692.238,116.105z"/>
<path class="st15" d="M716.209,79.621c-0.169-2.615-0.561-5.168-1.157-7.645c-4.735,7.235-18.019,10.295-22.134,11.085
	c-0.388,3.428-2.787,12.535-17.141,16.941c-3.204,0.85-6.036,1.199-8.525,1.199c-8.825,0.001-13.364-4.393-15.036-6.502
	c-4.49,1.728-20.833,7.312-27.763,0.098c-0.649,0.642-1.273,1.425-1.769,2.395c-0.516,1.008-0.841,2.101-0.988,3.269
	c0.466,1.056,1.066,2.126,1.834,3.211c6.276,8.857,23.984,2.809,28.686,0.999c1.672,2.109,6.211,6.503,15.036,6.502
	c2.49,0,5.322-0.35,8.525-1.199c14.354-4.406,16.753-13.513,17.141-16.941C697.45,92.163,713.103,88.541,716.209,79.621z"/>
<g class="st16">
	<path class="st6" d="M632.617,52.342c-1.312,0-2.413-1.022-2.493-2.349c-0.03-0.492-0.048-0.988-0.048-1.488
		c0-10.523,6.712-19.815,16.701-23.122c1.312-0.433,2.725,0.277,3.159,1.588c0.434,1.311-0.277,2.725-1.588,3.159
		c-7.938,2.627-13.272,10.012-13.272,18.375c0,0.398,0.015,0.792,0.039,1.185c0.083,1.378-0.966,2.563-2.344,2.647
		C632.72,52.341,632.668,52.342,632.617,52.342z"/>
</g>
<path class="st3" d="M419.554,78.415l69.323,0c3.624,0,6.09,3.676,4.715,7.029l-34.661,84.542c-1.729,4.217-7.701,4.217-9.431,0
	l-34.662-84.542C413.464,82.092,415.93,78.415,419.554,78.415z"/>
<path class="st7" d="M494.228,79.837c-1.227-1.83-3.275-2.922-5.478-2.922l-69.323,0c-2.203,0-4.251,1.092-5.478,2.921
	c-1.227,1.83-1.461,4.139-0.625,6.178l34.662,84.541c1.035,2.525,3.374,4.094,6.103,4.094s5.068-1.568,6.103-4.094l34.661-84.542
	C495.689,83.975,495.455,81.666,494.228,79.837z M428.696,102.511l10.575,10.575l-8.231,8.231l-6.15-15L428.696,102.511z
	 M423.657,103.308l-4.056-9.892l6.974,6.974L423.657,103.308z M451.291,79.915h5.594l7.779,7.778l-10.575,10.575l-10.575-10.575
	L451.291,79.915z M441.392,85.572l-5.657-5.657h11.314L441.392,85.572z M461.128,79.915h11.314l-5.657,5.657L461.128,79.915z
	 M456.21,100.389l10.575-10.575l10.575,10.575l-10.575,10.575L456.21,100.389z M464.664,113.086l-10.576,10.576l-10.575-10.575
	l10.576-10.575L464.664,113.086z M451.967,100.389l-10.576,10.575l-10.575-10.575l10.575-10.575L451.967,100.389z M441.392,115.207
	l10.575,10.575l-10.575,10.575l-7.094-7.094l-2.025-4.938L441.392,115.207z M439.271,138.478l-0.847,0.847l-1.177-2.872
	L439.271,138.478z M441.392,140.599l10.576,10.576l-6.16,6.16l-6.15-15.001L441.392,140.599z M443.513,138.478l10.575-10.575
	l10.576,10.576l-10.575,10.575L443.513,138.478z M466.785,140.6l1.735,1.735l-6.15,15l-6.16-6.16L466.785,140.6z M468.906,138.479
	l2.025-2.025l-1.178,2.873L468.906,138.479z M473.879,129.264l-7.094,7.094l-10.576-10.576l10.576-10.576l9.119,9.119
	L473.879,129.264z M468.906,113.085l10.575-10.575l3.806,3.806l-6.15,15L468.906,113.085z M481.602,100.389l6.974-6.974
	l-4.056,9.892L481.602,100.389z M491.737,81.508c0.679,1.013,0.803,2.24,0.341,3.367l-0.554,1.351l-12.043,12.043l-10.575-10.575
	l7.779-7.779h12.065C489.969,79.915,491.057,80.496,491.737,81.508z M416.44,81.509c0.679-1.013,1.768-1.594,2.987-1.594h12.065
	l7.779,7.778l-10.575,10.575l-12.043-12.043l-0.553-1.35C415.637,83.748,415.762,82.52,416.44,81.509z M457.417,169.417
	c-0.675,1.646-2.162,2.232-3.328,2.232s-2.653-0.586-3.328-2.232l-3.72-9.073l7.047-7.047l7.048,7.048L457.417,169.417z"/>
<path class="st8" d="M411.833,72.495"/>
<path class="st12" d="M496.347,69.496l0.001-0.001c0.948-3.58,1.453-7.339,1.453-11.217c0-24.142-19.571-43.712-43.712-43.712
	s-43.712,19.571-43.712,43.712c0,3.878,0.505,7.638,1.453,11.218c-0.076,0.022-8.503,2.527-4.797,13.074
	c3.722,10.594,26.916,7.731,26.916,7.731s2.772,11.353,20.141,11.69c17.369-0.337,20.141-11.69,20.141-11.69
	s23.193,2.863,26.916-7.731C504.856,72.009,496.401,69.512,496.347,69.496z"/>
<path class="st15" d="M475.255,91.871c-1.315,3.189-6.125,11.285-21.138,11.576c-15.06-0.291-19.879-8.387-21.195-11.576
	c-3.025,0.27-11.016,0.716-17.676-1.212l3.685,8.987c5.688,0.947,11.511,0.607,13.991,0.385c1.316,3.189,6.135,11.285,21.195,11.576
	c15.013-0.291,19.823-8.387,21.138-11.576c2.482,0.221,8.303,0.562,13.991-0.385l3.684-8.987
	C486.271,92.588,478.282,92.141,475.255,91.871z"/>
<g class="st17">
	<path class="st6" d="M423.365,54.696c-1.312,0-2.413-1.022-2.493-2.349c-0.03-0.492-0.048-0.988-0.048-1.488
		c0-10.523,6.712-19.815,16.701-23.122c1.312-0.433,2.725,0.277,3.159,1.588c0.434,1.311-0.277,2.725-1.588,3.159
		c-7.938,2.627-13.272,10.012-13.272,18.375c0,0.398,0.015,0.792,0.039,1.185c0.083,1.378-0.966,2.563-2.344,2.647
		C423.467,54.695,423.415,54.696,423.365,54.696z"/>
</g>
<path class="st5" d="M-2.571,5.984c-0.106-0.206-0.274-0.32-0.388-0.378C-2.889,5.308-2.854,5-2.854,4.691
	c0-2.208-1.796-4.004-4.004-4.004s-4.004,1.796-4.004,4.004c0,0.309,0.035,0.617,0.105,0.916c-0.114,0.058-0.283,0.173-0.389,0.38
	c-0.127,0.247-0.128,0.55-0.005,0.9c0.127,0.36,0.464,0.564,0.853,0.676l2.9,7.072c0.092,0.224,0.299,0.363,0.541,0.363
	s0.449-0.139,0.541-0.363l2.9-7.072C-3.03,7.45-2.692,7.246-2.565,6.886C-2.442,6.535-2.444,6.231-2.571,5.984z"/>
<g>
	<path class="st5" d="M21.773,10.949c-0.106-0.209-0.276-0.325-0.39-0.383c0.07-0.299,0.105-0.606,0.105-0.915
		c0-0.084-0.003-0.168-0.009-0.251c0.001-0.002,0.001-0.003,0.002-0.005c-0.015-0.232-0.05-0.458-0.103-0.677
		c0,0.001-0.001,0.001-0.001,0.002c0-0.002-0.001-0.004-0.001-0.006c0.085-0.13,0.14-0.275,0.149-0.437
		c0.011-0.19-0.006-0.358-0.05-0.505c-0.002-0.007-0.005-0.013-0.007-0.02c-0.01-0.03-0.02-0.06-0.033-0.088
		c-0.003-0.007-0.007-0.014-0.01-0.02C21.413,7.616,21.4,7.59,21.385,7.565c-0.004-0.007-0.009-0.013-0.013-0.02
		c-0.015-0.024-0.03-0.047-0.047-0.069c-0.002-0.002-0.003-0.004-0.004-0.006c0.024-0.036,0.046-0.074,0.065-0.114
		c0.156-0.337,0.184-0.639,0.081-0.896c-0.085-0.215-0.243-0.347-0.351-0.415c0.098-0.291,0.163-0.593,0.193-0.901
		c0.103-1.065-0.215-2.106-0.896-2.931c-0.68-0.825-1.641-1.336-2.706-1.439c-2.197-0.212-4.158,1.404-4.37,3.602
		c-0.03,0.308-0.024,0.618,0.017,0.922c-0.119,0.047-0.299,0.146-0.424,0.341c-0.149,0.233-0.18,0.534-0.091,0.895
		c0.006,0.023,0.013,0.045,0.02,0.067c-0.116,0.607-0.09,1.238,0.085,1.849c0.085,0.297,0.204,0.583,0.353,0.851
		c-0.093,0.087-0.224,0.244-0.269,0.471c-0.054,0.272,0.028,0.564,0.243,0.867c0.025,0.035,0.053,0.067,0.082,0.097
		c-0.057,0.057-0.112,0.126-0.156,0.212c-0.127,0.247-0.128,0.55-0.005,0.9c0.127,0.36,0.464,0.564,0.853,0.676l2.9,7.072
		c0.092,0.224,0.299,0.363,0.541,0.363c0.242,0,0.449-0.139,0.541-0.363l2.9-7.072c0.389-0.112,0.726-0.316,0.853-0.676
		C21.899,11.497,21.898,11.195,21.773,10.949z"/>
	<g>
		<path class="st3" d="M13.749,10.681l6.14,0c0.321,0,0.539,0.326,0.418,0.623l-3.07,7.488c-0.153,0.374-0.682,0.374-0.835,0
			l-3.07-7.488C13.209,11.007,13.428,10.681,13.749,10.681z"/>
	</g>
	<path class="st7" d="M20.362,10.807c-0.109-0.162-0.29-0.259-0.485-0.259l-6.14,0c-0.195,0-0.376,0.097-0.485,0.259
		c-0.109,0.162-0.129,0.367-0.055,0.547l3.07,7.488c0.092,0.224,0.299,0.363,0.541,0.363c0.242,0,0.449-0.139,0.541-0.363
		l3.07-7.488C20.492,11.174,20.471,10.969,20.362,10.807z M14.558,12.815l0.937,0.937l-0.729,0.729l-0.545-1.328L14.558,12.815z
		 M14.112,12.886l-0.359-0.876l0.618,0.618L14.112,12.886z M16.56,10.814h0.495l0.689,0.689l-0.937,0.937l-0.937-0.937L16.56,10.814
		z M15.683,11.315l-0.501-0.501h1.002L15.683,11.315z M17.431,10.814h1.002l-0.501,0.501L17.431,10.814z M16.995,12.627l0.937-0.937
		l0.937,0.937l-0.937,0.937L16.995,12.627z M17.744,13.752l-0.937,0.937l-0.937-0.937l0.937-0.937L17.744,13.752z M16.619,12.627
		l-0.937,0.937l-0.937-0.937l0.937-0.937L16.619,12.627z M15.683,13.94l0.937,0.937l-0.937,0.937l-0.628-0.628l-0.179-0.437
		L15.683,13.94z M15.495,16.001l-0.075,0.075l-0.104-0.254L15.495,16.001z M15.683,16.189l0.937,0.937l-0.546,0.546l-0.545-1.329
		L15.683,16.189z M15.871,16.001l0.937-0.937l0.937,0.937l-0.937,0.937L15.871,16.001z M17.932,16.189l0.154,0.154l-0.545,1.329
		l-0.546-0.546L17.932,16.189z M18.12,16.001l0.179-0.179l-0.104,0.254L18.12,16.001z M18.56,15.185l-0.628,0.628l-0.937-0.937
		l0.937-0.937l0.808,0.808L18.56,15.185z M18.12,13.752l0.937-0.937l0.337,0.337l-0.545,1.329L18.12,13.752z M19.244,12.627
		l0.618-0.618l-0.359,0.876L19.244,12.627z M20.142,10.955c0.06,0.09,0.071,0.198,0.03,0.298l-0.049,0.12l-1.067,1.067l-0.937-0.937
		l0.689-0.689h1.069C19.985,10.814,20.081,10.865,20.142,10.955z M13.473,10.955c0.06-0.09,0.157-0.141,0.265-0.141h1.069
		l0.689,0.689l-0.937,0.937l-1.067-1.067l-0.049-0.12C13.402,11.153,13.413,11.045,13.473,10.955z M17.102,18.741
		c-0.06,0.146-0.191,0.198-0.295,0.198c-0.103,0-0.235-0.052-0.295-0.198l-0.329-0.804l0.624-0.624l0.624,0.624L17.102,18.741z"/>
	<path class="st8" d="M13.065,10.157"/>
	<g>
		<path class="st18" d="M20.55,9.891L20.55,9.891c0.084-0.317,0.129-0.65,0.129-0.994c0-2.138-1.733-3.871-3.871-3.871
			s-3.871,1.733-3.871,3.871c0,0.343,0.045,0.676,0.129,0.994c-0.007,0.002-0.753,0.224-0.425,1.158
			c0.33,0.938,2.384,0.685,2.384,0.685s0.245,1.006,1.784,1.035c1.538-0.03,1.784-1.035,1.784-1.035s2.054,0.254,2.384-0.685
			C21.304,10.114,20.555,9.893,20.55,9.891z"/>
		<path class="st19" d="M16.81,12.902c-1.334-0.026-1.761-0.743-1.877-1.025c-0.444,0.04-2.1,0.123-2.418-0.784
			c-0.123-0.351-0.122-0.654,0.005-0.9c0.106-0.206,0.275-0.321,0.389-0.38c-0.07-0.299-0.105-0.606-0.105-0.916
			c0-2.208,1.796-4.004,4.004-4.004s4.004,1.796,4.004,4.004c0,0.309-0.035,0.617-0.105,0.915c0.115,0.058,0.284,0.174,0.39,0.383
			c0.125,0.246,0.126,0.548,0.004,0.897c-0.319,0.907-1.974,0.823-2.418,0.784C18.565,12.159,18.139,12.876,16.81,12.902z
			 M15.024,11.601c0.06,0,0.114,0.041,0.129,0.101c0.009,0.036,0.249,0.907,1.657,0.934c1.403-0.027,1.643-0.898,1.652-0.935
			c0.017-0.065,0.079-0.108,0.145-0.1c0.542,0.066,2.001,0.089,2.242-0.597c0.098-0.278,0.101-0.51,0.01-0.689
			c-0.114-0.225-0.346-0.297-0.348-0.298c-0.069-0.021-0.109-0.092-0.09-0.161c0.083-0.311,0.124-0.634,0.124-0.959
			c0-2.061-1.677-3.739-3.739-3.739s-3.739,1.677-3.739,3.739c0,0.325,0.042,0.648,0.124,0.96c0.018,0.07-0.022,0.141-0.091,0.161
			c-0.002,0.001-0.234,0.073-0.347,0.298c-0.091,0.179-0.087,0.411,0.011,0.688c0.241,0.687,1.7,0.664,2.242,0.597
			C15.013,11.601,15.018,11.601,15.024,11.601z"/>
	</g>
	<g>
		<path class="st2" d="M19.99,6.519L19.99,6.519c-0.006-0.328-0.055-0.66-0.149-0.991c-0.588-2.056-2.731-3.246-4.787-2.658
			s-3.246,2.731-2.658,4.787c0.094,0.33,0.229,0.638,0.397,0.92C12.787,8.581,12.13,9,12.702,9.807
			c0.575,0.812,2.48,0.003,2.48,0.003s0.512,0.899,2,0.505c1.471-0.452,1.43-1.486,1.43-1.486s2.045-0.321,2.104-1.314
			C20.775,6.526,19.995,6.519,19.99,6.519z"/>
		<path class="st20" d="M16.466,10.549c-0.782,0-1.184-0.389-1.332-0.576c-0.416,0.16-1.985,0.696-2.541-0.089
			c-0.214-0.303-0.296-0.594-0.243-0.865c0.045-0.23,0.176-0.387,0.27-0.474c-0.149-0.268-0.268-0.554-0.353-0.851
			c-0.607-2.123,0.626-4.344,2.749-4.951c2.123-0.607,4.344,0.626,4.951,2.749c0.085,0.297,0.136,0.603,0.151,0.909
			c0.125,0.024,0.318,0.088,0.476,0.256c0.191,0.202,0.276,0.494,0.254,0.866c-0.057,0.96-1.671,1.334-2.11,1.418
			c-0.034,0.304-0.247,1.11-1.518,1.5C16.938,10.518,16.687,10.549,16.466,10.549z M15.182,9.678c0.046,0,0.091,0.024,0.116,0.067
			c0.019,0.032,0.488,0.804,1.85,0.442c1.342-0.412,1.333-1.315,1.332-1.353c-0.002-0.067,0.046-0.125,0.112-0.136
			c0.539-0.085,1.949-0.464,1.992-1.19c0.017-0.294-0.043-0.517-0.179-0.665c-0.171-0.185-0.414-0.191-0.417-0.191
			c-0.05-0.001-0.096-0.03-0.118-0.074c-0.009-0.018-0.013-0.037-0.014-0.056h0C19.85,6.2,19.802,5.878,19.712,5.565
			c-0.567-1.982-2.64-3.134-4.622-2.567c-1.982,0.567-3.133,2.64-2.567,4.622c0.089,0.313,0.218,0.612,0.383,0.888
			c0.037,0.062,0.018,0.141-0.043,0.18c-0.002,0.001-0.205,0.135-0.253,0.382c-0.038,0.197,0.029,0.419,0.199,0.659
			c0.42,0.593,1.817,0.17,2.32-0.042C15.148,9.681,15.165,9.678,15.182,9.678z"/>
	</g>
	<g>
		<path class="st0" d="M20.277,5.352L20.277,5.352c0.114-0.308,0.191-0.635,0.224-0.977c0.205-2.128-1.354-4.02-3.482-4.225
			s-4.02,1.354-4.225,3.482c-0.033,0.342-0.02,0.678,0.033,1.001c-0.007,0.001-0.771,0.151-0.534,1.112
			c0.238,0.966,2.307,0.91,2.307,0.91s0.148,1.024,1.676,1.202c1.534,0.118,1.875-0.859,1.875-0.859s2.02,0.45,2.439-0.453
			C21.006,5.646,20.282,5.354,20.277,5.352z"/>
		<path class="st21" d="M16.53,8.001c-0.084,0-0.172-0.003-0.264-0.01c-1.325-0.154-1.681-0.908-1.77-1.201
			c-0.446-0.003-2.102-0.079-2.332-1.012c-0.089-0.362-0.058-0.663,0.092-0.897c0.125-0.195,0.304-0.293,0.423-0.339
			c-0.041-0.304-0.047-0.613-0.017-0.921c0.212-2.198,2.172-3.813,4.37-3.602c1.065,0.103,2.026,0.614,2.706,1.439
			s0.998,1.866,0.896,2.931c-0.03,0.308-0.094,0.611-0.192,0.901c0.107,0.068,0.263,0.198,0.349,0.413
			c0.104,0.258,0.077,0.561-0.08,0.899c-0.404,0.872-2.044,0.63-2.482,0.548C18.094,7.401,17.658,8.001,16.53,8.001z M14.599,6.524
			c0.066,0,0.122,0.048,0.131,0.114c0.006,0.037,0.161,0.926,1.56,1.089c1.399,0.106,1.721-0.736,1.734-0.772
			c0.023-0.063,0.089-0.1,0.154-0.085c0.533,0.118,1.983,0.281,2.289-0.379c0.124-0.267,0.15-0.497,0.076-0.684
			c-0.092-0.235-0.315-0.329-0.318-0.33c-0.066-0.027-0.1-0.102-0.075-0.169c0.112-0.302,0.185-0.619,0.216-0.943
			c0.096-0.994-0.201-1.966-0.836-2.736C18.897,0.856,18,0.379,17.006,0.283c-0.994-0.096-1.966,0.201-2.736,0.836
			c-0.771,0.635-1.248,1.532-1.344,2.526c-0.031,0.324-0.021,0.649,0.032,0.967c0.012,0.071-0.036,0.139-0.107,0.152
			c-0.001,0-0.239,0.05-0.374,0.263c-0.107,0.169-0.126,0.4-0.056,0.686c0.174,0.706,1.629,0.824,2.175,0.809
			C14.597,6.524,14.598,6.524,14.599,6.524z"/>
	</g>
	<path class="st15" d="M18.682,11.873c-0.116,0.282-0.542,0.999-1.872,1.025c-1.334-0.026-1.761-0.743-1.877-1.025
		c-0.268,0.024-0.976,0.063-1.566-0.107l0.326,0.796c0.504,0.084,1.019,0.054,1.239,0.034c0.117,0.282,0.543,0.999,1.877,1.025
		c1.33-0.026,1.756-0.743,1.872-1.025c0.22,0.02,0.735,0.05,1.239-0.034l0.326-0.796C19.658,11.936,18.95,11.897,18.682,11.873z"/>
	<path class="st15" d="M20.805,8.642c-0.015-0.232-0.05-0.458-0.103-0.677c-0.419,0.641-1.596,0.912-1.96,0.982
		c-0.034,0.304-0.247,1.11-1.518,1.5c-0.284,0.075-0.535,0.106-0.755,0.106c-0.782,0-1.184-0.389-1.332-0.576
		c-0.398,0.153-1.845,0.648-2.459,0.009c-0.058,0.057-0.113,0.126-0.157,0.212c-0.046,0.089-0.074,0.186-0.088,0.29
		c0.041,0.094,0.094,0.188,0.162,0.284c0.556,0.784,2.124,0.249,2.541,0.088c0.148,0.187,0.55,0.576,1.332,0.576
		c0.221,0,0.471-0.031,0.755-0.106c1.271-0.39,1.484-1.197,1.518-1.5C19.144,9.752,20.53,9.432,20.805,8.642z"/>
	<path class="st15" d="M20.643,6.715c-0.491,0.734-1.998,0.511-2.417,0.433c-0.133,0.251-0.569,0.851-1.697,0.851
		c-0.084,0-0.172-0.003-0.264-0.01c-1.325-0.154-1.681-0.908-1.77-1.201c-0.429-0.003-1.978-0.073-2.3-0.911
		c-0.011,0.026-0.021,0.052-0.03,0.079c-0.023,0.144-0.039,0.29-0.046,0.437c0.007,0.085,0.021,0.175,0.044,0.268
		c0.23,0.933,1.886,1.009,2.332,1.012c0.089,0.292,0.445,1.047,1.77,1.201c0.092,0.007,0.18,0.01,0.264,0.01
		c1.128,0,1.564-0.6,1.697-0.851c0.439,0.082,2.078,0.324,2.482-0.548c0.056-0.122,0.095-0.239,0.118-0.351
		C20.796,6.97,20.734,6.831,20.643,6.715z"/>
	<g class="st16">
		<path class="st6" d="M14.086,3.65c-0.116,0-0.214-0.091-0.221-0.208c-0.003-0.044-0.004-0.087-0.004-0.132
			c0-0.932,0.594-1.755,1.479-2.048c0.116-0.038,0.241,0.025,0.28,0.141c0.038,0.116-0.025,0.241-0.141,0.28
			c-0.703,0.233-1.176,0.887-1.176,1.627c0,0.035,0.001,0.07,0.003,0.105c0.007,0.122-0.086,0.227-0.208,0.234
			C14.095,3.65,14.091,3.65,14.086,3.65z"/>
	</g>
</g>
<path class="st8" d="M1.039,7.57"/>
<path class="st5" d="M9.816,8.318C9.71,8.113,9.542,7.998,9.429,7.941c0.07-0.299,0.105-0.606,0.105-0.915
	c0-0.084-0.003-0.168-0.009-0.251C9.526,6.773,9.527,6.771,9.527,6.77c-0.015-0.232-0.05-0.458-0.103-0.677
	c0,0.001-0.001,0.001-0.001,0.002c0-0.002-0.001-0.004-0.001-0.006c0.085-0.13,0.14-0.275,0.149-0.437
	c0.022-0.37-0.062-0.659-0.25-0.862c-0.16-0.172-0.354-0.236-0.48-0.261C8.826,4.223,8.775,3.918,8.69,3.62
	C8.396,2.592,7.719,1.74,6.784,1.22C5.849,0.701,4.768,0.577,3.739,0.871c-1.028,0.294-1.881,0.971-2.4,1.906
	C0.82,3.712,0.696,4.794,0.99,5.822c0.085,0.297,0.204,0.583,0.353,0.851C1.249,6.76,1.118,6.917,1.073,7.147
	C1.02,7.419,1.102,7.71,1.316,8.012c0.025,0.035,0.053,0.067,0.082,0.097C1.34,8.166,1.285,8.236,1.241,8.322
	c-0.126,0.247-0.128,0.549-0.005,0.9c0.127,0.36,0.464,0.564,0.853,0.676l2.9,7.072c0.092,0.224,0.299,0.363,0.541,0.363
	s0.449-0.139,0.541-0.363l2.9-7.072c0.389-0.112,0.726-0.316,0.853-0.676C9.946,8.869,9.944,8.566,9.816,8.318z"/>
<g>
	<path class="st3" d="M1.723,8.094l6.14,0c0.321,0,0.539,0.326,0.418,0.623l-3.07,7.488c-0.153,0.374-0.682,0.374-0.835,0
		l-3.07-7.488C1.184,8.42,1.402,8.094,1.723,8.094z"/>
</g>
<path class="st7" d="M8.337,8.22c-0.109-0.162-0.29-0.259-0.485-0.259l-6.14,0c-0.195,0-0.376,0.097-0.485,0.259
	C1.118,8.382,1.097,8.586,1.172,8.767l3.07,7.488c0.092,0.224,0.299,0.363,0.541,0.363c0.242,0,0.449-0.139,0.541-0.363l3.07-7.488
	C8.466,8.586,8.446,8.382,8.337,8.22z M2.533,10.228l0.937,0.937l-0.729,0.729l-0.545-1.328L2.533,10.228z M2.087,10.299
	L1.727,9.423l0.618,0.618L2.087,10.299z M4.534,8.227H5.03l0.689,0.689L4.782,9.852L3.845,8.916L4.534,8.227z M3.657,8.728
	L3.156,8.227h1.002L3.657,8.728z M5.405,8.227h1.002L5.906,8.728L5.405,8.227z M4.97,10.04l0.937-0.937l0.937,0.937l-0.937,0.937
	L4.97,10.04z M5.719,11.165l-0.937,0.937l-0.937-0.937l0.937-0.937L5.719,11.165z M4.594,10.04l-0.937,0.937L2.721,10.04
	l0.937-0.937L4.594,10.04z M3.657,11.353l0.937,0.937l-0.937,0.937l-0.628-0.628L2.85,12.16L3.657,11.353z M3.47,13.414
	l-0.075,0.075L3.29,13.234L3.47,13.414z M3.657,13.601l0.937,0.937l-0.546,0.546l-0.545-1.329L3.657,13.601z M3.845,13.414
	l0.937-0.937l0.937,0.937L4.782,14.35L3.845,13.414z M5.906,13.602l0.154,0.154l-0.545,1.329L4.97,14.538L5.906,13.602z
	 M6.094,13.414l0.179-0.179l-0.104,0.254L6.094,13.414z M6.535,12.597l-0.628,0.628L4.97,12.289l0.937-0.937l0.808,0.808
	L6.535,12.597z M6.094,11.165l0.937-0.937l0.337,0.337l-0.545,1.329L6.094,11.165z M7.219,10.04l0.618-0.618l-0.359,0.876
	L7.219,10.04z M8.116,8.368c0.06,0.09,0.071,0.198,0.03,0.298l-0.049,0.12L7.031,9.852L6.094,8.916l0.689-0.689h1.069
	C7.96,8.227,8.056,8.278,8.116,8.368z M1.448,8.368c0.06-0.09,0.157-0.141,0.265-0.141h1.069L3.47,8.916L2.533,9.852L1.466,8.786
	l-0.049-0.12C1.376,8.566,1.387,8.458,1.448,8.368z M5.077,16.154c-0.06,0.146-0.191,0.198-0.295,0.198
	c-0.103,0-0.235-0.052-0.295-0.198L4.158,15.35l0.624-0.624l0.624,0.624L5.077,16.154z"/>
<g>
	<path class="st18" d="M8.525,7.304L8.525,7.304c0.084-0.317,0.129-0.65,0.129-0.994c0-2.138-1.733-3.871-3.871-3.871
		S0.91,4.172,0.91,6.311c0,0.343,0.045,0.676,0.129,0.994C1.032,7.306,0.286,7.528,0.614,8.462C0.944,9.4,2.998,9.147,2.998,9.147
		s0.245,1.006,1.784,1.035c1.538-0.03,1.784-1.035,1.784-1.035S8.62,9.4,8.95,8.462C9.278,7.527,8.529,7.305,8.525,7.304z"/>
	<path class="st19" d="M4.785,10.315C3.451,10.289,3.024,9.572,2.907,9.29c-0.444,0.04-2.1,0.123-2.418-0.784
		c-0.123-0.35-0.122-0.653,0.005-0.9C0.599,7.4,0.769,7.285,0.883,7.226C0.813,6.928,0.778,6.62,0.778,6.311
		c0-2.208,1.796-4.004,4.004-4.004s4.004,1.796,4.004,4.004c0,0.309-0.035,0.617-0.105,0.916c0.114,0.058,0.282,0.172,0.388,0.378
		c0.127,0.247,0.129,0.55,0.006,0.902C8.756,9.413,7.101,9.329,6.657,9.29C6.54,9.572,6.114,10.289,4.785,10.315z M2.998,9.014
		c0.06,0,0.114,0.041,0.129,0.101c0.009,0.036,0.249,0.907,1.657,0.934c1.415-0.028,1.65-0.925,1.652-0.934
		c0.016-0.065,0.079-0.109,0.145-0.1c0.542,0.066,2.001,0.089,2.242-0.597C8.922,8.14,8.925,7.909,8.835,7.73
		C8.721,7.505,8.489,7.432,8.487,7.431C8.418,7.411,8.378,7.339,8.396,7.27c0.083-0.311,0.124-0.634,0.124-0.96
		c0-2.062-1.677-3.739-3.739-3.739S1.043,4.249,1.043,6.311c0,0.325,0.042,0.648,0.124,0.96c0.018,0.07-0.022,0.141-0.091,0.161
		C1.075,7.432,0.843,7.505,0.729,7.73C0.638,7.909,0.642,8.14,0.74,8.418C0.981,9.105,2.44,9.082,2.982,9.015
		C2.987,9.014,2.993,9.014,2.998,9.014z"/>
</g>
<g>
	<path class="st2" d="M7.964,3.932L7.964,3.932c-0.006-0.328-0.055-0.66-0.149-0.991C7.227,0.886,5.084-0.304,3.028,0.284
		S-0.218,3.015,0.37,5.07c0.094,0.33,0.229,0.638,0.397,0.92c-0.006,0.004-0.663,0.422-0.09,1.23c0.575,0.812,2.48,0.003,2.48,0.003
		s0.512,0.899,2,0.505c1.471-0.452,1.43-1.486,1.43-1.486s2.045-0.321,2.104-1.314C8.75,3.939,7.969,3.932,7.964,3.932z"/>
	<path class="st20" d="M4.441,7.962c-0.782,0-1.184-0.389-1.332-0.576c-0.416,0.16-1.985,0.696-2.541-0.088
		C0.353,6.993,0.272,6.701,0.326,6.429c0.045-0.227,0.176-0.384,0.269-0.471C0.446,5.69,0.328,5.404,0.243,5.107
		c-0.294-1.028-0.17-2.11,0.349-3.045c0.519-0.935,1.372-1.612,2.4-1.906c1.028-0.294,2.11-0.17,3.045,0.349
		c0.935,0.519,1.612,1.372,1.906,2.4c0.085,0.298,0.136,0.603,0.151,0.909C8.218,3.838,8.411,3.902,8.57,4.071
		C8.76,4.273,8.846,4.564,8.824,4.937c-0.057,0.96-1.671,1.334-2.11,1.418c-0.034,0.304-0.247,1.11-1.518,1.5
		C4.912,7.931,4.661,7.962,4.441,7.962z M3.157,7.09c0.046,0,0.091,0.024,0.116,0.067C3.292,7.19,3.761,7.961,5.123,7.6
		c1.342-0.412,1.333-1.315,1.332-1.353C6.453,6.18,6.501,6.122,6.567,6.111c0.539-0.085,1.949-0.465,1.992-1.19
		c0.017-0.294-0.043-0.518-0.179-0.665C8.208,4.071,7.965,4.065,7.963,4.065c-0.071-0.001-0.13-0.059-0.132-0.13
		C7.825,3.613,7.777,3.291,7.687,2.978c-0.275-0.96-0.907-1.756-1.78-2.241C5.035,0.253,4.025,0.137,3.065,0.412
		c-0.96,0.275-1.756,0.907-2.241,1.78C0.339,3.064,0.223,4.074,0.498,5.034c0.089,0.313,0.218,0.612,0.383,0.888
		c0.037,0.062,0.018,0.142-0.044,0.181C0.836,6.104,0.634,6.237,0.586,6.485C0.548,6.682,0.615,6.903,0.785,7.144
		c0.42,0.593,1.817,0.17,2.32-0.043C3.122,7.094,3.14,7.09,3.157,7.09z"/>
</g>
<path class="st15" d="M6.657,9.286c-0.116,0.282-0.542,0.999-1.872,1.025c-1.334-0.026-1.761-0.743-1.877-1.025
	C2.639,9.31,1.932,9.349,1.342,9.178l0.326,0.796c0.504,0.084,1.019,0.054,1.239,0.034c0.117,0.282,0.543,0.999,1.877,1.025
	c1.33-0.026,1.756-0.743,1.872-1.025c0.22,0.02,0.735,0.05,1.239-0.034l0.326-0.796C7.632,9.349,6.925,9.31,6.657,9.286z"/>
<path class="st15" d="M8.78,6.054C8.765,5.823,8.73,5.597,8.677,5.377c-0.419,0.641-1.596,0.912-1.96,0.982
	c-0.034,0.304-0.247,1.11-1.518,1.5C4.915,7.935,4.664,7.966,4.444,7.966c-0.782,0-1.184-0.389-1.332-0.576
	C2.714,7.543,1.267,8.038,0.653,7.399C0.596,7.455,0.54,7.525,0.496,7.611C0.451,7.7,0.422,7.797,0.409,7.9
	C0.45,7.994,0.503,8.089,0.571,8.185c0.556,0.784,2.124,0.249,2.541,0.088C3.26,8.46,3.662,8.849,4.444,8.849
	c0.221,0,0.471-0.031,0.755-0.106c1.271-0.39,1.484-1.197,1.518-1.5C7.118,7.165,8.505,6.845,8.78,6.054z"/>
<g class="st16">
	<path class="st6" d="M1.376,3.639c-0.116,0-0.214-0.091-0.221-0.208C1.153,3.387,1.151,3.343,1.151,3.299
		c0-0.932,0.594-1.755,1.479-2.048c0.116-0.038,0.241,0.025,0.28,0.141c0.038,0.116-0.025,0.241-0.141,0.28
		C2.066,1.904,1.594,2.558,1.594,3.299c0,0.035,0.001,0.07,0.003,0.105C1.605,3.526,1.512,3.631,1.39,3.638
		C1.385,3.638,1.381,3.639,1.376,3.639z"/>
</g>
<g>
	<path class="st3" d="M-10.581,5.788l6.14,0c0.321,0,0.539,0.326,0.418,0.623l-3.07,7.488c-0.153,0.374-0.682,0.374-0.835,0
		l-3.07-7.488C-11.12,6.113-10.902,5.788-10.581,5.788z"/>
</g>
<path class="st7" d="M-3.967,5.914c-0.109-0.162-0.29-0.259-0.485-0.259l-6.14,0c-0.195,0-0.376,0.097-0.485,0.259
	c-0.109,0.162-0.129,0.367-0.055,0.547l3.07,7.488c0.092,0.224,0.299,0.363,0.541,0.363s0.449-0.139,0.541-0.363l3.07-7.488
	C-3.838,6.28-3.859,6.076-3.967,5.914z M-9.771,7.922l0.937,0.937l-0.729,0.729l-0.545-1.328L-9.771,7.922z M-10.218,7.992
	l-0.359-0.876l0.618,0.618L-10.218,7.992z M-7.77,5.921h0.495l0.689,0.689l-0.937,0.937l-0.937-0.937L-7.77,5.921z M-8.647,6.422
	l-0.501-0.501h1.002L-8.647,6.422z M-6.899,5.921h1.002l-0.501,0.501L-6.899,5.921z M-7.334,7.734l0.937-0.937l0.937,0.937
	l-0.937,0.937L-7.334,7.734z M-6.586,8.858l-0.937,0.937l-0.937-0.937l0.937-0.937L-6.586,8.858z M-7.71,7.734l-0.937,0.937
	l-0.937-0.937l0.937-0.937L-7.71,7.734z M-8.647,9.046l0.937,0.937l-0.937,0.937l-0.628-0.628l-0.179-0.437L-8.647,9.046z
	 M-8.835,11.107l-0.075,0.075l-0.104-0.254L-8.835,11.107z M-8.647,11.295l0.937,0.937l-0.546,0.546L-8.8,11.449L-8.647,11.295z
	 M-8.459,11.107l0.937-0.937l0.937,0.937l-0.937,0.937L-8.459,11.107z M-6.398,11.295l0.154,0.154l-0.545,1.329l-0.546-0.546
	L-6.398,11.295z M-6.21,11.107l0.179-0.179l-0.104,0.254L-6.21,11.107z M-5.77,10.291l-0.628,0.628l-0.937-0.937l0.937-0.937
	l0.808,0.808L-5.77,10.291z M-6.21,8.858l0.937-0.937l0.337,0.337l-0.545,1.329L-6.21,8.858z M-5.086,7.734l0.618-0.618
	l-0.359,0.876L-5.086,7.734z M-4.188,6.062c0.06,0.09,0.071,0.198,0.03,0.298l-0.049,0.12l-1.067,1.067L-6.21,6.61l0.689-0.689
	h1.069C-4.345,5.921-4.248,5.972-4.188,6.062z M-10.857,6.062c0.06-0.09,0.157-0.141,0.265-0.141h1.069l0.689,0.689l-0.937,0.937
	l-1.067-1.067l-0.049-0.12C-10.928,6.26-10.917,6.151-10.857,6.062z M-7.228,13.848c-0.06,0.146-0.191,0.198-0.295,0.198
	s-0.235-0.052-0.295-0.198l-0.329-0.804l0.624-0.624l0.624,0.624L-7.228,13.848z"/>
<path class="st8" d="M-11.265,5.263"/>
<g>
	<path class="st18" d="M-3.78,4.998L-3.78,4.998c0.084-0.317,0.129-0.65,0.129-0.994c0-2.138-1.733-3.871-3.871-3.871
		s-3.871,1.733-3.871,3.871c0,0.343,0.045,0.676,0.129,0.994C-11.272,5-12.018,5.222-11.69,6.156
		c0.33,0.938,2.384,0.685,2.384,0.685s0.245,1.006,1.784,1.035c1.538-0.03,1.784-1.035,1.784-1.035s2.054,0.254,2.384-0.685
		C-3.026,5.22-3.775,4.999-3.78,4.998z"/>
	<path class="st19" d="M-7.52,8.009C-8.854,7.983-9.28,7.266-9.397,6.983c-0.444,0.04-2.1,0.123-2.418-0.784
		c-0.123-0.35-0.122-0.653,0.005-0.9c0.106-0.206,0.275-0.322,0.389-0.38c-0.07-0.299-0.105-0.606-0.105-0.916
		C-11.527,1.796-9.73,0-7.522,0s4.004,1.796,4.004,4.004c0,0.309-0.035,0.617-0.105,0.915c0.115,0.058,0.284,0.174,0.39,0.383
		C-3.108,5.549-3.107,5.851-3.229,6.2c-0.319,0.907-1.974,0.823-2.418,0.784C-5.764,7.266-6.19,7.983-7.52,8.009z M-9.306,6.708
		c0.06,0,0.114,0.041,0.129,0.101c0.009,0.036,0.249,0.907,1.657,0.934c1.415-0.028,1.65-0.925,1.652-0.934
		c0.016-0.065,0.079-0.109,0.145-0.1c0.542,0.066,2.001,0.089,2.242-0.597c0.098-0.278,0.101-0.51,0.01-0.689
		c-0.114-0.225-0.346-0.297-0.348-0.298c-0.069-0.021-0.109-0.092-0.09-0.161c0.083-0.311,0.124-0.634,0.124-0.959
		c0-2.062-1.677-3.739-3.739-3.739s-3.739,1.677-3.739,3.739c0,0.325,0.042,0.648,0.124,0.96c0.018,0.07-0.022,0.141-0.091,0.161
		c-0.002,0.001-0.234,0.073-0.348,0.298c-0.091,0.179-0.087,0.41,0.011,0.688c0.241,0.687,1.7,0.664,2.242,0.597
		C-9.317,6.708-9.311,6.708-9.306,6.708z"/>
</g>
<path class="st15" d="M-5.648,6.98C-5.764,7.262-6.19,7.979-7.52,8.005C-8.854,7.979-9.28,7.262-9.397,6.98
	c-0.268,0.024-0.976,0.063-1.566-0.107l0.326,0.796c0.504,0.084,1.019,0.054,1.239,0.034C-9.28,7.985-8.854,8.702-7.52,8.728
	c1.33-0.026,1.756-0.743,1.872-1.025c0.22,0.02,0.735,0.05,1.239-0.034l0.326-0.796C-4.672,7.043-5.38,7.003-5.648,6.98z"/>
<g class="st17">
	<path class="st6" d="M-10.243,3.687c-0.116,0-0.214-0.091-0.221-0.208c-0.003-0.044-0.004-0.087-0.004-0.132
		c0-0.932,0.594-1.755,1.479-2.048c0.116-0.038,0.241,0.025,0.28,0.141c0.038,0.116-0.025,0.241-0.141,0.28
		c-0.703,0.233-1.176,0.887-1.176,1.627c0,0.035,0.001,0.07,0.003,0.105c0.007,0.122-0.086,0.227-0.208,0.234
		C-10.234,3.687-10.239,3.687-10.243,3.687z"/>
</g>
<text transform="matrix(1 0 0 1 404.3644 -59.2238)"><tspan x="0" y="0" style="font-family:'Bjola'; font-size:18px;">BARQUILLO </tspan><tspan x="20.952" y="21.6" style="font-family:'Bjola'; font-size:18px;">SIMPLE</tspan></text>
<text transform="matrix(1 0 0 1 391.2935 -0.5033)" style="font-family:'Bjola'; font-size:39.1201px;">$1.200</text>
<text transform="matrix(1 0 0 1 615.36 -61.1973)"><tspan x="0" y="0" style="font-family:'Bjola'; font-size:18px;">BARQUILLO </tspan><tspan x="23.633" y="21.6" style="font-family:'Bjola'; font-size:18px;">DOBLE</tspan></text>
<text transform="matrix(1 0 0 1 601.7607 -2.4768)" style="font-family:'Bjola'; font-size:39.1201px;">$1.800</text>
<text transform="matrix(1 0 0 1 821.9665 -59.1252)"><tspan x="0" y="0" style="font-family:'Bjola'; font-size:18px;">BARQUILLO </tspan><tspan x="23.139" y="21.6" style="font-family:'Bjola'; font-size:18px;">TRIPLE</tspan></text>
<text transform="matrix(1 0 0 1 805.2965 -0.4047)" style="font-family:'Bjola'; font-size:39.1201px;">$2.200</text>
<path class="st1" d="M483.186-111.25c0,0,26.805-32.582,40.099-21.422c7.968,6.69,2.252,17.589-9.284,17.477
	C502.465-115.307,483.186-111.25,483.186-111.25z"/>
<path class="st1" d="M408.895,120.502c0,0-41.817,5.604-43.952-11.621c-1.279-10.325,10.33-14.414,18.701-6.475
	S408.895,120.502,408.895,120.502z"/>
<circle class="st1" cx="472.442" cy="-114.27" r="5.02"/>
<circle class="st1" cx="364.846" cy="89.092" r="5.02"/>
</svg>
