<?xml version="1.0" encoding="utf-8"?>
<!-- Generator: Adobe Illustrator 25.4.1, SVG Export Plug-In . SVG Version: 6.00 Build 0)  -->
<svg version="1.1" id="Capa_1" xmlns="http://www.w3.org/2000/svg" xmlns:xlink="http://www.w3.org/1999/xlink" x="0px" y="0px"
	 width="10px" height="14.997px" viewBox="0 0 10 14.997" style="enable-background:new 0 0 10 14.997;" xml:space="preserve">
<style type="text/css">
	.st0{fill:#84EEBD;}
	.st1{opacity:0.7;fill:#FFFFFF;}
	.st2{fill:#DA69A8;}
	.st3{fill:#FBD187;}
	.st4{fill:#29ABE2;}
	.st5{opacity:0.2;}
	.st6{fill:#FFFFFF;}
	.st7{fill:#E5A43C;}
	.st8{stroke:#FFFFFF;stroke-miterlimit:10;}
	.st9{stroke:#FFFFFF;stroke-width:3;stroke-miterlimit:10;}
	.st10{stroke:#FFFFFF;stroke-width:3;stroke-linecap:round;stroke-linejoin:round;stroke-miterlimit:10;}
	.st11{fill:none;stroke:#FFFFFF;stroke-width:3;stroke-miterlimit:10;}
	.st12{fill:#5D3424;stroke:#33170E;stroke-width:3;stroke-linecap:round;stroke-linejoin:round;stroke-miterlimit:10;}
	.st13{fill:#DA69A8;stroke:#91306A;stroke-width:3;stroke-linecap:round;stroke-linejoin:round;stroke-miterlimit:10;}
	.st14{fill:#84EEBD;stroke:#309964;stroke-width:3;stroke-linecap:round;stroke-linejoin:round;stroke-miterlimit:10;}
	.st15{opacity:0.1;}
	.st16{opacity:0.7;}
	.st17{opacity:0.4;}
	.st18{fill:#5D3424;}
	.st19{fill:#33170E;}
	.st20{fill:#91306A;}
	.st21{fill:#309964;}
</style>
<rect x="776.991" y="-252.199" class="st0" width="207.303" height="625.823"/>
<path class="st1" d="M926.255,112.263l-61.605,5.768c-42.974,4.024-79.211-31.633-75.882-74.666l8.421-108.861
	c0.834-10.78,9.126-19.492,19.852-20.857l109.413-13.923c19.283-2.454,36.343,12.573,36.343,32.012V72.139
	C962.797,92.94,946.965,110.324,926.255,112.263z"/>
<path class="st1" d="M906.895-105.818c0,0,26.805-32.582,40.099-21.422c7.968,6.69,2.252,17.589-9.284,17.477
	C926.174-109.875,906.895-105.818,906.895-105.818z"/>
<path class="st1" d="M832.604,125.935c0,0-41.817,5.604-43.952-11.621c-1.279-10.325,10.33-14.414,18.701-6.475
	C815.724,115.776,832.604,125.935,832.604,125.935z"/>
<circle class="st1" cx="896.151" cy="-108.838" r="5.02"/>
<circle class="st1" cx="788.555" cy="94.524" r="5.02"/>
<rect x="569.688" y="-252.199" class="st2" width="207.303" height="625.823"/>
<path class="st1" d="M724.654,109.664l-61.605,5.768c-42.974,4.024-79.211-31.633-75.882-74.666l8.421-108.861
	c0.834-10.78,9.126-19.492,19.852-20.857l109.413-13.923c19.283-2.454,36.343,12.573,36.343,32.012V69.541
	C761.196,90.342,745.364,107.725,724.654,109.664z"/>
<path class="st1" d="M705.293-108.416c0,0,26.805-32.582,40.099-21.422c7.968,6.69,2.252,17.589-9.284,17.477
	C724.573-112.473,705.293-108.416,705.293-108.416z"/>
<path class="st1" d="M631.003,123.336c0,0-41.817,5.604-43.952-11.621c-1.279-10.325,10.33-14.414,18.701-6.475
	C614.122,113.178,631.003,123.336,631.003,123.336z"/>
<circle class="st1" cx="694.55" cy="-111.436" r="5.02"/>
<circle class="st1" cx="586.954" cy="91.926" r="5.02"/>
<rect x="362.627" y="-252.199" class="st3" width="207.303" height="625.823"/>
<path class="st1" d="M514.736,106.83l-61.605,5.768c-42.974,4.024-79.211-31.633-75.882-74.666l8.421-108.861
	c0.834-10.78,9.126-19.492,19.852-20.857l109.413-13.923c19.283-2.454,36.343,12.573,36.343,32.012V66.707
	C551.278,87.508,535.447,104.891,514.736,106.83z"/>
<rect x="984.294" y="-252.199" class="st4" width="207.303" height="625.823"/>
<path class="st5" d="M522.182,80.635c-1.198-2.323-3.099-3.618-4.381-4.27c0.789-3.373,1.188-6.844,1.188-10.337
	c0-24.931-20.282-45.213-45.212-45.213s-45.212,20.282-45.212,45.213c0,3.493,0.399,6.965,1.188,10.339
	c-1.286,0.655-3.197,1.958-4.391,4.285c-1.429,2.786-1.448,6.205-0.057,10.164c1.429,4.067,5.241,6.366,9.629,7.636l32.74,79.853
	c1.035,2.525,3.374,4.094,6.103,4.094s5.068-1.568,6.103-4.094l32.738-79.852c4.389-1.27,8.201-3.569,9.63-7.637
	C523.642,86.85,523.62,83.424,522.182,80.635z"/>
<path class="st5" d="M740.102,105.182c-1.201-2.322-3.096-3.612-4.375-4.262c0.788-3.371,1.187-6.842,1.187-10.335
	c0-0.952-0.039-1.894-0.098-2.831c0.007-0.02,0.017-0.039,0.024-0.06c-0.169-2.615-0.561-5.168-1.157-7.645
	c-0.005,0.007-0.011,0.014-0.016,0.021c-0.005-0.023-0.01-0.046-0.016-0.068c0.961-1.468,1.578-3.103,1.687-4.93
	c0.248-4.173-0.702-7.446-2.825-9.731c-1.802-1.938-4.001-2.668-5.424-2.943c-0.17-3.46-0.74-6.905-1.7-10.262
	c-3.32-11.611-10.963-21.235-21.521-27.099c-10.557-5.862-22.766-7.263-34.378-3.942c-11.611,3.32-21.235,10.963-27.098,21.521
	c-5.863,10.558-7.264,22.767-3.943,34.378c0.961,3.357,2.298,6.584,3.982,9.608c-1.061,0.982-2.536,2.756-3.044,5.353
	c-0.601,3.066,0.322,6.353,2.743,9.77c0.283,0.399,0.596,0.757,0.922,1.097c-0.65,0.642-1.273,1.425-1.769,2.395
	c-1.425,2.784-1.442,6.202-0.053,10.157c1.429,4.067,5.241,6.365,9.629,7.635l32.74,79.853c1.035,2.525,3.374,4.094,6.103,4.094
	s5.068-1.568,6.103-4.094l32.738-79.852c4.389-1.27,8.201-3.568,9.63-7.636C741.569,111.402,741.545,107.973,740.102,105.182z"/>
<path class="st5" d="M933.006,134.89c-1.198-2.359-3.113-3.667-4.406-4.322c0.788-3.372,1.187-6.843,1.187-10.335
	c0-0.952-0.039-1.894-0.098-2.832c0.007-0.02,0.017-0.039,0.024-0.059c-0.169-2.615-0.561-5.168-1.157-7.645
	c-0.005,0.007-0.011,0.014-0.016,0.021c-0.005-0.023-0.01-0.046-0.016-0.068c0.961-1.467,1.578-3.103,1.687-4.93
	c0.127-2.141-0.066-4.041-0.566-5.697c-0.023-0.077-0.054-0.148-0.078-0.223c-0.111-0.342-0.231-0.676-0.369-0.996
	c-0.034-0.079-0.075-0.153-0.111-0.231c-0.141-0.307-0.292-0.607-0.459-0.892c-0.045-0.077-0.096-0.149-0.143-0.225
	c-0.168-0.27-0.344-0.532-0.536-0.782c-0.018-0.023-0.032-0.049-0.05-0.073c0.272-0.407,0.525-0.831,0.738-1.292
	c1.764-3.805,2.073-7.209,0.92-10.118c-0.963-2.432-2.744-3.914-3.961-4.691c1.109-3.282,1.839-6.7,2.175-10.178
	c1.159-12.021-2.433-23.773-10.114-33.093c-7.681-9.319-18.531-15.09-30.552-16.249c-24.811-2.389-46.95,15.851-49.342,40.666
	c-0.335,3.479-0.271,6.974,0.191,10.408c-1.345,0.531-3.379,1.648-4.788,3.852c-1.685,2.634-2.03,6.033-1.026,10.102
	c0.064,0.258,0.145,0.506,0.227,0.752c-1.312,6.858-1.021,13.975,0.954,20.883c0.96,3.359,2.299,6.587,3.985,9.614
	c-1.055,0.982-2.533,2.758-3.042,5.323c-0.61,3.072,0.312,6.367,2.738,9.792c0.283,0.399,0.596,0.757,0.922,1.097
	c-0.647,0.64-1.269,1.421-1.765,2.388c-1.429,2.785-1.448,6.205-0.057,10.164c1.429,4.067,5.241,6.366,9.629,7.636l32.74,79.852
	c1.035,2.525,3.374,4.094,6.103,4.094s5.068-1.568,6.103-4.094l32.738-79.852c4.389-1.27,8.201-3.569,9.63-7.637
	C934.431,141.079,934.418,137.67,933.006,134.89z"/>
<g>
	<rect x="146.03" y="-1106.664" width="1361" height="763"/>
	<path class="st6" d="M1504.529-1104.164v758h-1356v-758H1504.529 M1509.529-1109.164h-1366v768h1366V-1109.164L1509.529-1109.164z"
		/>
</g>
<path class="st3" d="M555.153-725.624l69.323,0c3.624,0,6.09,3.676,4.715,7.029l-34.661,84.542c-1.729,4.217-7.701,4.217-9.431,0
	l-34.662-84.542C549.063-721.947,551.529-725.624,555.153-725.624z"/>
<path class="st7" d="M629.827-724.202c-1.227-1.83-3.275-2.922-5.478-2.922l-69.323,0c-2.203,0-4.251,1.092-5.478,2.921
	c-1.227,1.83-1.461,4.139-0.625,6.178l34.662,84.541c1.035,2.525,3.374,4.094,6.103,4.094s5.068-1.568,6.103-4.094l34.661-84.542
	C631.288-720.063,631.055-722.373,629.827-724.202z M564.295-701.528l10.575,10.575l-8.231,8.231l-6.15-15L564.295-701.528z
	 M559.256-700.731l-4.056-9.892l6.974,6.974L559.256-700.731z M586.89-724.124h5.594l7.779,7.778l-10.575,10.575l-10.575-10.575
	L586.89-724.124z M576.991-718.467l-5.657-5.657h11.314L576.991-718.467z M596.727-724.124h11.314l-5.657,5.657L596.727-724.124z
	 M591.809-703.65l10.575-10.575l10.575,10.575l-10.575,10.575L591.809-703.65z M600.263-690.953l-10.576,10.576l-10.575-10.575
	l10.576-10.575L600.263-690.953z M587.567-703.65l-10.576,10.575l-10.575-10.575l10.575-10.575L587.567-703.65z M576.991-688.832
	l10.575,10.575l-10.575,10.575l-7.094-7.094l-2.025-4.938L576.991-688.832z M574.87-665.561l-0.847,0.847l-1.177-2.872
	L574.87-665.561z M576.991-663.44l10.576,10.576l-6.16,6.16l-6.15-15.001L576.991-663.44z M579.112-665.561l10.575-10.575
	l10.576,10.576l-10.575,10.575L579.112-665.561z M602.384-663.439l1.735,1.735l-6.15,15l-6.16-6.16L602.384-663.439z
	 M604.505-665.56l2.025-2.025l-1.178,2.873L604.505-665.56z M609.478-674.775l-7.094,7.094l-10.576-10.576l10.576-10.576
	l9.119,9.119L609.478-674.775z M604.505-690.953l10.575-10.575l3.806,3.806l-6.15,15L604.505-690.953z M617.201-703.649l6.974-6.974
	l-4.056,9.892L617.201-703.649z M627.336-722.531c0.679,1.013,0.803,2.24,0.341,3.367l-0.554,1.351l-12.043,12.043l-10.575-10.575
	l7.779-7.779h12.065C625.568-724.124,626.657-723.543,627.336-722.531z M552.039-722.53c0.679-1.013,1.768-1.594,2.987-1.594h12.065
	l7.779,7.778l-10.575,10.575l-12.043-12.043l-0.553-1.35C551.236-720.291,551.361-721.519,552.039-722.53z M593.016-634.622
	c-0.675,1.646-2.162,2.232-3.328,2.232s-2.653-0.586-3.328-2.232l-3.72-9.073l7.047-7.047l7.048,7.048L593.016-634.622z"/>
<path class="st8" d="M384.781-731.544"/>
<path class="st9" d="M392.375-725.624l69.323,0c3.624,0,6.09,3.676,4.715,7.029l-34.661,84.542c-1.729,4.217-7.701,4.217-9.431,0
	l-34.662-84.542C386.285-721.948,388.75-725.624,392.375-725.624z"/>
<g>
	<line class="st10" x1="410.839" y1="-662.059" x2="465.746" y2="-716.966"/>
	<line class="st10" x1="443.235" y1="-662.059" x2="388.327" y2="-716.966"/>
	<line class="st10" x1="418.223" y1="-644.05" x2="448.101" y2="-673.928"/>
	<line class="st10" x1="435.851" y1="-644.05" x2="405.973" y2="-673.928"/>
	<line class="st10" x1="403.455" y1="-680.068" x2="449.011" y2="-725.624"/>
	<line class="st10" x1="450.618" y1="-680.068" x2="405.062" y2="-725.624"/>
	<line class="st10" x1="396.072" y1="-698.077" x2="423.618" y2="-725.624"/>
	<line class="st10" x1="458.002" y1="-698.077" x2="430.455" y2="-725.624"/>
	<path class="st11" d="M392.375-725.624l69.323,0c3.624,0,6.09,3.676,4.715,7.029l-34.661,84.542c-1.729,4.217-7.701,4.217-9.431,0
		l-34.662-84.542C386.285-721.947,388.751-725.624,392.375-725.624z"/>
</g>
<path class="st10" d="M469.295-734.543l0.001-0.001c0.948-3.58,1.453-7.339,1.453-11.217c0-24.142-19.571-43.712-43.712-43.712
	s-43.712,19.571-43.712,43.712c0,3.878,0.505,7.638,1.453,11.218c-0.076,0.022-8.503,2.527-4.797,13.074
	c3.722,10.594,26.916,7.731,26.916,7.731s2.772,11.353,20.141,11.69c17.369-0.337,20.141-11.69,20.141-11.69
	s23.193,2.863,26.916-7.731C477.804-732.03,469.349-734.527,469.295-734.543z"/>
<path class="st10" d="M462.967-772.613l0.001-0.001c-0.073-3.702-0.621-7.456-1.687-11.184
	c-6.637-23.211-30.834-36.648-54.045-30.01s-36.648,30.834-30.01,54.045c1.066,3.729,2.586,7.205,4.481,10.386
	c-0.067,0.043-7.481,4.767-1.018,13.889c6.492,9.163,28.004,0.034,28.004,0.034s5.786,10.154,22.579,5.702
	c16.607-5.099,16.151-16.776,16.151-16.776s23.087-3.623,23.753-14.833C471.839-772.536,463.024-772.613,462.967-772.613z"/>
<path class="st10" d="M466.216-785.789l0.001-0.001c1.287-3.472,2.15-7.166,2.522-11.026c2.316-24.03-15.286-45.388-39.317-47.705
	c-24.03-2.316-45.388,15.286-47.705,39.317c-0.372,3.86-0.23,7.651,0.37,11.306c-0.078,0.015-8.706,1.7-6.03,12.553
	c2.689,10.903,26.05,10.278,26.05,10.278s1.67,11.567,18.927,13.568c17.321,1.332,21.17-9.703,21.17-9.703
	s22.812,5.076,27.533-5.113C474.444-782.471,466.268-785.768,466.216-785.789z"/>
<path class="st8" d="M547.432-731.544"/>
<path class="st12" d="M631.946-734.543l0.001-0.001c0.948-3.58,1.453-7.339,1.453-11.217c0-24.142-19.571-43.712-43.712-43.712
	s-43.712,19.571-43.712,43.712c0,3.878,0.505,7.638,1.453,11.218c-0.076,0.022-8.503,2.527-4.797,13.074
	c3.722,10.594,26.916,7.731,26.916,7.731s2.772,11.353,20.141,11.69c17.369-0.337,20.141-11.69,20.141-11.69
	s23.193,2.863,26.916-7.731C640.455-732.03,632-734.527,631.946-734.543z"/>
<path class="st13" d="M625.619-772.613l0.001-0.001c-0.073-3.702-0.621-7.456-1.687-11.184
	c-6.637-23.211-30.834-36.648-54.045-30.01c-23.211,6.637-36.648,30.834-30.01,54.045c1.066,3.729,2.586,7.205,4.481,10.386
	c-0.067,0.043-7.481,4.767-1.018,13.889c6.492,9.163,28.004,0.034,28.004,0.034s5.786,10.154,22.579,5.702
	c16.607-5.099,16.151-16.776,16.151-16.776s23.087-3.623,23.753-14.833C634.491-772.536,625.675-772.613,625.619-772.613z"/>
<path class="st14" d="M628.867-785.789l0.001-0.001c1.287-3.472,2.15-7.166,2.522-11.026c2.316-24.03-15.286-45.388-39.317-47.705
	c-24.03-2.316-45.388,15.286-47.705,39.317c-0.372,3.86-0.23,7.651,0.37,11.306c-0.078,0.015-8.706,1.7-6.03,12.553
	c2.689,10.903,26.05,10.278,26.05,10.278s1.67,11.567,18.927,13.568c17.321,1.332,21.17-9.703,21.17-9.703
	s22.812,5.076,27.533-5.113C637.095-782.471,628.919-785.768,628.867-785.789z"/>
<path class="st15" d="M610.854-712.168c-1.315,3.189-6.125,11.285-21.138,11.576c-15.06-0.291-19.879-8.387-21.195-11.576
	c-3.025,0.27-11.016,0.716-17.676-1.212l3.685,8.987c5.688,0.947,11.511,0.607,13.991,0.385c1.316,3.189,6.135,11.285,21.195,11.576
	c15.013-0.291,19.823-8.387,21.138-11.576c2.482,0.221,8.303,0.562,13.991-0.385l3.684-8.987
	C621.87-711.451,613.881-711.898,610.854-712.168z"/>
<path class="st15" d="M634.826-748.652c-0.169-2.615-0.561-5.168-1.157-7.645c-4.735,7.235-18.019,10.295-22.134,11.085
	c-0.388,3.428-2.787,12.535-17.141,16.941c-3.204,0.85-6.036,1.199-8.525,1.199c-8.825,0.001-13.364-4.393-15.036-6.502
	c-4.49,1.728-20.833,7.312-27.763,0.098c-0.649,0.642-1.273,1.425-1.769,2.395c-0.516,1.008-0.841,2.101-0.988,3.269
	c0.466,1.056,1.066,2.126,1.834,3.211c6.276,8.857,23.984,2.809,28.686,0.999c1.672,2.109,6.211,6.503,15.036,6.502
	c2.49,0,5.322-0.35,8.525-1.199c14.354-4.406,16.753-13.513,17.141-16.941C616.066-736.11,631.719-739.732,634.826-748.652z"/>
<path class="st15" d="M633.001-770.408c-5.54,8.287-22.563,5.772-27.286,4.888c-1.502,2.837-6.427,9.612-19.166,9.612
	c-0.951,0-1.945-0.038-2.984-0.118c-14.963-1.734-18.982-10.255-19.987-13.557c-4.848-0.035-22.337-0.829-25.964-10.281
	c-0.129,0.288-0.242,0.585-0.344,0.888c-0.264,1.627-0.435,3.275-0.519,4.937c0.077,0.965,0.235,1.971,0.495,3.029
	c2.599,10.539,21.293,11.39,26.331,11.426c1.004,3.301,5.024,11.822,19.987,13.557c1.04,0.08,2.033,0.118,2.984,0.118
	c12.739,0,17.664-6.775,19.166-9.612c4.956,0.928,23.466,3.662,28.028-6.186c0.637-1.375,1.078-2.696,1.335-3.962
	C634.726-767.52,634.025-769.1,633.001-770.408z"/>
<g class="st16">
	<path class="st6" d="M558.964-805.01c-1.312,0-2.413-1.022-2.493-2.349c-0.03-0.492-0.048-0.988-0.048-1.488
		c0-10.523,6.712-19.815,16.701-23.122c1.312-0.433,2.725,0.277,3.159,1.588c0.434,1.311-0.277,2.725-1.588,3.159
		c-7.938,2.627-13.272,10.012-13.272,18.375c0,0.398,0.015,0.792,0.039,1.185c0.083,1.378-0.966,2.563-2.344,2.647
		C559.066-805.012,559.014-805.01,558.964-805.01z"/>
</g>
<path class="st15" d="M661.688-734.103c-1.198-2.359-3.113-3.667-4.406-4.322c0.788-3.372,1.187-6.843,1.187-10.335
	c0-0.952-0.039-1.894-0.098-2.832c0.007-0.02,0.017-0.039,0.024-0.059c-0.169-2.615-0.561-5.168-1.157-7.645
	c-0.005,0.007-0.011,0.014-0.016,0.021c-0.005-0.023-0.01-0.046-0.016-0.068c0.961-1.467,1.578-3.103,1.687-4.93
	c0.127-2.141-0.066-4.041-0.566-5.697c-0.023-0.077-0.054-0.148-0.078-0.223c-0.111-0.342-0.231-0.676-0.369-0.996
	c-0.034-0.079-0.075-0.153-0.111-0.231c-0.141-0.307-0.292-0.607-0.459-0.892c-0.045-0.077-0.096-0.149-0.143-0.225
	c-0.168-0.27-0.344-0.532-0.536-0.782c-0.018-0.023-0.032-0.049-0.05-0.073c0.272-0.407,0.525-0.831,0.738-1.292
	c1.764-3.805,2.073-7.209,0.92-10.118c-0.963-2.432-2.744-3.914-3.961-4.691c1.109-3.282,1.839-6.7,2.175-10.178
	c1.159-12.021-2.433-23.773-10.114-33.093c-7.681-9.319-18.531-15.09-30.552-16.249c-24.811-2.389-46.95,15.851-49.342,40.666
	c-0.335,3.479-0.271,6.974,0.191,10.408c-1.345,0.531-3.379,1.648-4.788,3.852c-1.685,2.634-2.03,6.033-1.026,10.102
	c0.064,0.258,0.145,0.506,0.227,0.752c-1.312,6.858-1.021,13.975,0.954,20.883c0.96,3.359,2.299,6.587,3.985,9.614
	c-1.055,0.982-2.533,2.758-3.042,5.323c-0.61,3.072,0.312,6.367,2.738,9.792c0.283,0.399,0.596,0.757,0.922,1.097
	c-0.647,0.64-1.269,1.421-1.765,2.388c-1.429,2.785-1.448,6.205-0.057,10.164c1.429,4.067,5.241,6.366,9.629,7.636l32.74,79.852
	c1.035,2.525,3.374,4.094,6.103,4.094s5.068-1.568,6.103-4.094l32.738-79.852c4.389-1.27,8.201-3.569,9.63-7.637
	C663.113-727.914,663.1-731.323,661.688-734.103z"/>
<path class="st3" d="M842.404,131.869l69.323,0c3.624,0,6.09,3.676,4.715,7.029l-34.661,84.542c-1.729,4.217-7.701,4.217-9.431,0
	l-34.662-84.542C836.314,135.546,838.78,131.869,842.404,131.869z"/>
<path class="st7" d="M917.078,133.291c-1.227-1.83-3.275-2.922-5.478-2.922l-69.323,0c-2.203,0-4.251,1.092-5.478,2.921
	c-1.227,1.83-1.461,4.139-0.625,6.178l34.662,84.541c1.035,2.525,3.374,4.094,6.103,4.094s5.068-1.568,6.103-4.094l34.661-84.542
	C918.54,137.429,918.306,135.12,917.078,133.291z M851.546,155.965l10.575,10.575l-8.231,8.231l-6.15-15L851.546,155.965z
	 M846.507,156.762l-4.056-9.892l6.974,6.974L846.507,156.762z M874.142,133.369h5.594l7.779,7.778l-10.575,10.575l-10.575-10.575
	L874.142,133.369z M864.243,139.026l-5.657-5.657H869.9L864.243,139.026z M883.978,133.369h11.314l-5.657,5.657L883.978,133.369z
	 M879.06,153.843l10.575-10.575l10.575,10.575l-10.575,10.575L879.06,153.843z M887.514,166.54l-10.576,10.576l-10.575-10.575
	l10.576-10.575L887.514,166.54z M874.818,153.843l-10.576,10.575l-10.575-10.575l10.575-10.575L874.818,153.843z M864.242,168.661
	l10.575,10.575l-10.575,10.575l-7.094-7.094l-2.025-4.938L864.242,168.661z M862.121,191.932l-0.847,0.847l-1.177-2.872
	L862.121,191.932z M864.242,194.053l10.576,10.576l-6.16,6.16l-6.15-15.001L864.242,194.053z M866.364,191.932l10.575-10.575
	l10.576,10.576l-10.575,10.575L866.364,191.932z M889.635,194.054l1.735,1.735l-6.15,15l-6.16-6.16L889.635,194.054z
	 M891.756,191.933l2.025-2.025l-1.178,2.873L891.756,191.933z M896.729,182.718l-7.094,7.094l-10.576-10.576l10.576-10.576
	l9.119,9.119L896.729,182.718z M891.756,166.539l10.575-10.575l3.806,3.806l-6.15,15L891.756,166.539z M904.453,153.843l6.974-6.974
	l-4.056,9.892L904.453,153.843z M914.587,134.962c0.679,1.013,0.803,2.24,0.341,3.367l-0.554,1.351l-12.043,12.043l-10.575-10.575
	l7.779-7.779h12.065C912.819,133.369,913.908,133.95,914.587,134.962z M839.291,134.963c0.679-1.013,1.768-1.594,2.987-1.594h12.065
	l7.779,7.778l-10.575,10.575l-12.043-12.043l-0.553-1.35C838.487,137.202,838.612,135.974,839.291,134.963z M880.267,222.871
	c-0.675,1.646-2.162,2.232-3.328,2.232s-2.653-0.586-3.328-2.232l-3.72-9.073l7.047-7.047l7.048,7.048L880.267,222.871z"/>
<path class="st8" d="M834.683,125.949"/>
<path class="st12" d="M919.197,122.95l0.001-0.001c0.948-3.58,1.453-7.339,1.453-11.217c0-24.142-19.571-43.712-43.712-43.712
	s-43.712,19.571-43.712,43.712c0,3.878,0.505,7.638,1.453,11.218c-0.076,0.022-8.503,2.527-4.797,13.074
	c3.722,10.594,26.916,7.731,26.916,7.731s2.772,11.353,20.141,11.69c17.369-0.337,20.141-11.69,20.141-11.69
	s23.193,2.863,26.916-7.731C927.706,125.463,919.252,122.966,919.197,122.95z"/>
<path class="st13" d="M912.87,84.88l0.001-0.001c-0.073-3.702-0.621-7.456-1.687-11.184c-6.637-23.211-30.834-36.648-54.045-30.01
	c-23.211,6.637-36.648,30.834-30.01,54.045c1.066,3.729,2.586,7.205,4.481,10.386c-0.067,0.043-7.481,4.767-1.018,13.889
	c6.492,9.163,28.004,0.033,28.004,0.033s5.786,10.154,22.579,5.702c16.607-5.099,16.151-16.776,16.151-16.776
	s23.087-3.623,23.753-14.833C921.742,84.957,912.926,84.88,912.87,84.88z"/>
<path class="st14" d="M916.118,71.704l0.001-0.001c1.287-3.472,2.15-7.166,2.522-11.026c2.316-24.03-15.286-45.388-39.317-47.705
	c-24.03-2.316-45.388,15.286-47.705,39.317c-0.372,3.86-0.23,7.651,0.37,11.306c-0.078,0.015-8.706,1.7-6.03,12.553
	c2.689,10.903,26.05,10.278,26.05,10.278s1.67,11.567,18.927,13.568c17.321,1.332,21.17-9.703,21.17-9.703
	s22.812,5.076,27.533-5.113C924.347,75.022,916.171,71.725,916.118,71.704z"/>
<path class="st15" d="M898.106,145.325c-1.315,3.189-6.125,11.285-21.138,11.576c-15.06-0.291-19.879-8.387-21.195-11.576
	c-3.025,0.27-11.016,0.716-17.676-1.212l3.685,8.987c5.688,0.947,11.511,0.607,13.991,0.385c1.316,3.189,6.135,11.285,21.195,11.576
	c15.013-0.291,19.823-8.387,21.138-11.576c2.482,0.221,8.303,0.562,13.991-0.385l3.684-8.987
	C909.122,146.041,901.132,145.595,898.106,145.325z"/>
<path class="st15" d="M922.077,108.841c-0.169-2.615-0.561-5.168-1.157-7.645c-4.735,7.235-18.019,10.295-22.134,11.085
	c-0.388,3.428-2.787,12.535-17.141,16.941c-3.204,0.85-6.036,1.199-8.525,1.199c-8.825,0.001-13.364-4.393-15.036-6.502
	c-4.49,1.728-20.833,7.312-27.763,0.098c-0.649,0.642-1.273,1.425-1.769,2.395c-0.516,1.008-0.841,2.101-0.988,3.269
	c0.466,1.056,1.066,2.126,1.834,3.211c6.276,8.857,23.984,2.809,28.686,0.999c1.672,2.109,6.211,6.503,15.036,6.502
	c2.49,0,5.322-0.35,8.525-1.199c14.354-4.406,16.753-13.513,17.141-16.941C903.318,121.383,918.971,117.761,922.077,108.841z"/>
<path class="st15" d="M920.252,87.085c-5.54,8.287-22.563,5.772-27.286,4.888c-1.502,2.837-6.427,9.612-19.166,9.612
	c-0.951,0-1.945-0.038-2.984-0.118c-14.963-1.734-18.982-10.255-19.987-13.557c-4.848-0.035-22.337-0.829-25.964-10.281
	c-0.129,0.288-0.242,0.585-0.344,0.888c-0.264,1.627-0.435,3.275-0.519,4.937c0.077,0.965,0.235,1.971,0.495,3.029
	c2.599,10.539,21.293,11.39,26.331,11.426c1.004,3.301,5.024,11.822,19.987,13.557c1.04,0.08,2.033,0.118,2.984,0.118
	c12.739,0,17.664-6.775,19.166-9.612c4.956,0.928,23.466,3.662,28.028-6.186c0.637-1.375,1.078-2.696,1.335-3.962
	C921.977,89.972,921.277,88.393,920.252,87.085z"/>
<g class="st16">
	<path class="st6" d="M846.215,52.483c-1.312,0-2.413-1.022-2.493-2.349c-0.03-0.492-0.048-0.988-0.048-1.488
		c0-10.523,6.712-19.815,16.701-23.122c1.312-0.433,2.725,0.277,3.159,1.588c0.434,1.311-0.277,2.725-1.588,3.159
		c-7.938,2.627-13.272,10.012-13.272,18.375c0,0.398,0.015,0.792,0.039,1.185c0.083,1.378-0.966,2.563-2.344,2.647
		C846.317,52.481,846.266,52.483,846.215,52.483z"/>
</g>
<path class="st3" d="M648.726,102.649l69.323,0c3.624,0,6.09,3.676,4.715,7.029l-34.661,84.542c-1.729,4.217-7.701,4.217-9.431,0
	l-34.662-84.542C642.636,106.325,645.102,102.649,648.726,102.649z"/>
<path class="st7" d="M723.401,104.07c-1.227-1.83-3.275-2.922-5.478-2.922l-69.323,0c-2.203,0-4.251,1.092-5.478,2.921
	c-1.227,1.83-1.461,4.139-0.625,6.178l34.662,84.541c1.035,2.525,3.374,4.094,6.103,4.094s5.068-1.568,6.103-4.094l34.661-84.542
	C724.862,108.209,724.628,105.899,723.401,104.07z M657.869,126.744l10.575,10.575l-8.231,8.231l-6.15-15L657.869,126.744z
	 M652.829,127.541l-4.056-9.892l6.974,6.974L652.829,127.541z M680.464,104.148h5.594l7.779,7.778l-10.575,10.575l-10.575-10.575
	L680.464,104.148z M670.565,109.805l-5.657-5.657h11.314L670.565,109.805z M690.301,104.148h11.314l-5.657,5.657L690.301,104.148z
	 M685.383,124.623l10.575-10.575l10.575,10.575l-10.575,10.575L685.383,124.623z M693.837,137.319l-10.576,10.576l-10.575-10.575
	l10.576-10.575L693.837,137.319z M681.14,124.623l-10.576,10.575l-10.575-10.575l10.575-10.575L681.14,124.623z M670.565,139.441
	l10.575,10.575l-10.575,10.575l-7.094-7.094l-2.025-4.938L670.565,139.441z M668.444,162.712l-0.847,0.847l-1.177-2.872
	L668.444,162.712z M670.565,164.833l10.576,10.576l-6.16,6.16l-6.15-15.001L670.565,164.833z M672.686,162.712l10.575-10.575
	l10.576,10.576l-10.575,10.575L672.686,162.712z M695.958,164.833l1.735,1.735l-6.15,15l-6.16-6.16L695.958,164.833z
	 M698.079,162.712l2.025-2.025l-1.178,2.873L698.079,162.712z M703.052,153.497l-7.094,7.094l-10.576-10.576l10.576-10.576
	l9.119,9.119L703.052,153.497z M698.079,137.319l10.575-10.575l3.806,3.806l-6.15,15L698.079,137.319z M710.775,124.623l6.974-6.974
	l-4.056,9.892L710.775,124.623z M720.909,105.741c0.679,1.013,0.803,2.24,0.341,3.367l-0.554,1.351l-12.043,12.043l-10.575-10.575
	l7.779-7.779h12.065C719.142,104.148,720.23,104.729,720.909,105.741z M645.613,105.742c0.679-1.013,1.768-1.594,2.987-1.594h12.065
	l7.779,7.778l-10.575,10.575l-12.043-12.043l-0.553-1.35C644.81,107.981,644.934,106.754,645.613,105.742z M686.59,193.65
	c-0.675,1.646-2.162,2.232-3.328,2.232s-2.653-0.586-3.328-2.232l-3.72-9.073l7.047-7.047l7.048,7.048L686.59,193.65z"/>
<path class="st8" d="M641.006,96.729"/>
<path class="st12" d="M725.52,93.73l0.001-0.001c0.948-3.58,1.453-7.339,1.453-11.217c0-24.142-19.571-43.712-43.712-43.712
	s-43.712,19.571-43.712,43.712c0,3.878,0.505,7.638,1.453,11.218c-0.076,0.022-8.503,2.527-4.797,13.074
	c3.722,10.594,26.916,7.731,26.916,7.731s2.772,11.353,20.141,11.69c17.369-0.337,20.141-11.69,20.141-11.69
	s23.193,2.863,26.916-7.731C734.029,96.243,725.574,93.745,725.52,93.73z"/>
<path class="st13" d="M719.192,55.659l0.001-0.001c-0.073-3.702-0.621-7.456-1.687-11.184c-6.637-23.211-30.834-36.648-54.045-30.01
	c-23.211,6.637-36.648,30.834-30.01,54.045c1.066,3.729,2.586,7.205,4.481,10.386c-0.067,0.043-7.481,4.767-1.018,13.889
	c6.492,9.163,28.004,0.033,28.004,0.033s5.786,10.154,22.579,5.702c16.607-5.099,16.151-16.776,16.151-16.776
	S726.734,78.12,727.4,66.91C728.064,55.737,719.249,55.66,719.192,55.659z"/>
<path class="st15" d="M704.428,116.105c-1.315,3.189-6.125,11.285-21.138,11.576c-15.06-0.291-19.879-8.387-21.195-11.576
	c-3.025,0.27-11.016,0.716-17.676-1.212l3.685,8.987c5.688,0.947,11.511,0.607,13.991,0.385c1.316,3.189,6.135,11.285,21.195,11.576
	c15.013-0.291,19.823-8.387,21.138-11.576c2.482,0.221,8.303,0.562,13.991-0.385l3.684-8.987
	C715.444,116.821,707.455,116.374,704.428,116.105z"/>
<path class="st15" d="M728.4,79.621c-0.169-2.615-0.561-5.168-1.157-7.645c-4.735,7.235-18.019,10.295-22.134,11.085
	c-0.388,3.428-2.787,12.535-17.141,16.941c-3.204,0.85-6.036,1.199-8.525,1.199c-8.825,0.001-13.364-4.393-15.036-6.502
	c-4.49,1.728-20.833,7.312-27.763,0.098c-0.649,0.642-1.273,1.425-1.769,2.395c-0.516,1.008-0.841,2.101-0.988,3.269
	c0.466,1.056,1.066,2.126,1.834,3.211c6.276,8.857,23.984,2.809,28.686,0.999c1.672,2.109,6.211,6.503,15.036,6.502
	c2.49,0,5.322-0.35,8.525-1.199c14.354-4.406,16.753-13.513,17.141-16.941C709.64,92.163,725.293,88.541,728.4,79.621z"/>
<g class="st16">
	<path class="st6" d="M644.808,52.342c-1.312,0-2.413-1.022-2.493-2.349c-0.03-0.492-0.048-0.988-0.048-1.488
		c0-10.523,6.712-19.815,16.701-23.122c1.312-0.433,2.725,0.277,3.159,1.588c0.434,1.311-0.277,2.725-1.588,3.159
		c-7.938,2.627-13.272,10.012-13.272,18.375c0,0.398,0.015,0.792,0.039,1.185c0.083,1.378-0.966,2.563-2.344,2.647
		C644.91,52.341,644.859,52.342,644.808,52.342z"/>
</g>
<path class="st3" d="M431.744,78.415l69.323,0c3.624,0,6.09,3.676,4.715,7.029l-34.661,84.542c-1.729,4.217-7.701,4.217-9.431,0
	l-34.662-84.542C425.654,82.092,428.12,78.415,431.744,78.415z"/>
<path class="st7" d="M506.418,79.837c-1.227-1.83-3.275-2.922-5.478-2.922l-69.323,0c-2.203,0-4.251,1.092-5.478,2.921
	c-1.227,1.83-1.461,4.139-0.625,6.178l34.662,84.541c1.035,2.525,3.374,4.094,6.103,4.094s5.068-1.568,6.103-4.094l34.661-84.542
	C507.88,83.975,507.646,81.666,506.418,79.837z M440.886,102.511l10.575,10.575l-8.231,8.231l-6.15-15L440.886,102.511z
	 M435.847,103.308l-4.056-9.892l6.974,6.974L435.847,103.308z M463.482,79.915h5.594l7.779,7.778l-10.575,10.575l-10.575-10.575
	L463.482,79.915z M453.583,85.572l-5.657-5.657h11.314L453.583,85.572z M473.318,79.915h11.314l-5.657,5.657L473.318,79.915z
	 M468.4,100.389l10.575-10.575l10.575,10.575l-10.575,10.575L468.4,100.389z M476.854,113.086l-10.576,10.576l-10.575-10.575
	l10.576-10.575L476.854,113.086z M464.158,100.389l-10.576,10.575l-10.575-10.575l10.575-10.575L464.158,100.389z M453.582,115.207
	l10.575,10.575l-10.575,10.575l-7.094-7.094l-2.025-4.938L453.582,115.207z M451.461,138.478l-0.847,0.847l-1.177-2.872
	L451.461,138.478z M453.583,140.599l10.576,10.576l-6.16,6.16l-6.15-15.001L453.583,140.599z M455.704,138.478l10.575-10.575
	l10.576,10.576l-10.575,10.575L455.704,138.478z M478.975,140.6l1.735,1.735l-6.15,15l-6.16-6.16L478.975,140.6z M481.096,138.479
	l2.025-2.025l-1.178,2.873L481.096,138.479z M486.069,129.264l-7.094,7.094L468.4,125.782l10.576-10.576l9.119,9.119
	L486.069,129.264z M481.096,113.085l10.575-10.575l3.806,3.806l-6.15,15L481.096,113.085z M493.793,100.389l6.974-6.974
	l-4.056,9.892L493.793,100.389z M503.927,81.508c0.679,1.013,0.803,2.24,0.341,3.367l-0.554,1.351l-12.043,12.043l-10.575-10.575
	l7.779-7.779h12.065C502.159,79.915,503.248,80.496,503.927,81.508z M428.631,81.509c0.679-1.013,1.768-1.594,2.987-1.594h12.065
	l7.779,7.778l-10.575,10.575l-12.043-12.043l-0.553-1.35C427.827,83.748,427.952,82.52,428.631,81.509z M469.607,169.417
	c-0.675,1.646-2.162,2.232-3.328,2.232s-2.653-0.586-3.328-2.232l-3.72-9.073l7.047-7.047l7.048,7.048L469.607,169.417z"/>
<path class="st8" d="M424.023,72.495"/>
<path class="st12" d="M508.537,69.496l0.001-0.001c0.948-3.58,1.453-7.339,1.453-11.217c0-24.142-19.571-43.712-43.712-43.712
	s-43.712,19.571-43.712,43.712c0,3.878,0.505,7.638,1.453,11.218c-0.076,0.022-8.503,2.527-4.797,13.074
	c3.722,10.594,26.916,7.731,26.916,7.731s2.772,11.353,20.141,11.69c17.369-0.337,20.141-11.69,20.141-11.69
	s23.193,2.863,26.916-7.731C517.046,72.009,508.592,69.512,508.537,69.496z"/>
<path class="st15" d="M487.446,91.871c-1.315,3.189-6.125,11.285-21.138,11.576c-15.06-0.291-19.879-8.387-21.195-11.576
	c-3.025,0.27-11.016,0.716-17.676-1.212l3.685,8.987c5.688,0.947,11.511,0.607,13.991,0.385c1.316,3.189,6.135,11.285,21.195,11.576
	c15.013-0.291,19.823-8.387,21.138-11.576c2.482,0.221,8.303,0.562,13.991-0.385l3.684-8.987
	C498.462,92.588,490.472,92.141,487.446,91.871z"/>
<g class="st17">
	<path class="st6" d="M435.555,54.696c-1.312,0-2.413-1.022-2.493-2.349c-0.03-0.492-0.048-0.988-0.048-1.488
		c0-10.523,6.712-19.815,16.701-23.122c1.312-0.433,2.725,0.277,3.159,1.588c0.434,1.311-0.277,2.725-1.588,3.159
		c-7.938,2.627-13.272,10.012-13.272,18.375c0,0.398,0.015,0.792,0.039,1.185c0.083,1.378-0.966,2.563-2.344,2.647
		C435.657,54.695,435.606,54.696,435.555,54.696z"/>
</g>
<path class="st5" d="M9.619,5.984c-0.106-0.206-0.274-0.32-0.388-0.378C9.301,5.308,9.336,5,9.336,4.691
	c0-2.208-1.796-4.004-4.004-4.004S1.328,2.483,1.328,4.691c0,0.309,0.035,0.617,0.105,0.916C1.319,5.664,1.15,5.78,1.044,5.986
	c-0.127,0.247-0.128,0.55-0.005,0.9c0.127,0.36,0.464,0.564,0.853,0.676l2.9,7.072c0.092,0.224,0.299,0.363,0.541,0.363
	c0.242,0,0.449-0.139,0.541-0.363l2.9-7.072C9.161,7.45,9.498,7.246,9.625,6.886C9.748,6.535,9.746,6.231,9.619,5.984z"/>
<g>
	<path class="st5" d="M33.963,10.949c-0.106-0.209-0.276-0.325-0.39-0.383c0.07-0.299,0.105-0.606,0.105-0.915
		c0-0.084-0.003-0.168-0.009-0.251c0.001-0.002,0.001-0.003,0.002-0.005c-0.015-0.232-0.05-0.458-0.103-0.677
		c0,0.001-0.001,0.001-0.001,0.002c0-0.002-0.001-0.004-0.001-0.006c0.085-0.13,0.14-0.275,0.149-0.437
		c0.011-0.19-0.006-0.358-0.05-0.505c-0.002-0.007-0.005-0.013-0.007-0.02c-0.01-0.03-0.02-0.06-0.033-0.088
		c-0.003-0.007-0.007-0.014-0.01-0.02c-0.013-0.027-0.026-0.054-0.041-0.079c-0.004-0.007-0.009-0.013-0.013-0.02
		c-0.015-0.024-0.03-0.047-0.047-0.069c-0.002-0.002-0.003-0.004-0.004-0.006c0.024-0.036,0.046-0.074,0.065-0.114
		c0.156-0.337,0.184-0.639,0.081-0.896c-0.085-0.215-0.243-0.347-0.351-0.415C33.405,5.752,33.47,5.45,33.5,5.141
		c0.103-1.065-0.215-2.106-0.896-2.931c-0.68-0.825-1.641-1.336-2.706-1.439c-2.197-0.212-4.158,1.404-4.37,3.602
		c-0.03,0.308-0.024,0.618,0.017,0.922c-0.119,0.047-0.299,0.146-0.424,0.341c-0.149,0.233-0.18,0.534-0.091,0.895
		c0.006,0.023,0.013,0.045,0.02,0.067c-0.116,0.607-0.09,1.238,0.085,1.849c0.085,0.297,0.204,0.583,0.353,0.851
		c-0.093,0.087-0.224,0.244-0.269,0.471c-0.054,0.272,0.028,0.564,0.243,0.867c0.025,0.035,0.053,0.067,0.082,0.097
		c-0.057,0.057-0.112,0.126-0.156,0.212c-0.127,0.247-0.128,0.55-0.005,0.9c0.127,0.36,0.464,0.564,0.853,0.676l2.9,7.072
		c0.092,0.224,0.299,0.363,0.541,0.363s0.449-0.139,0.541-0.363l2.9-7.072c0.389-0.112,0.726-0.316,0.853-0.676
		C34.09,11.497,34.088,11.195,33.963,10.949z"/>
	<g>
		<path class="st3" d="M25.939,10.681l6.14,0c0.321,0,0.539,0.326,0.418,0.623l-3.07,7.488c-0.153,0.374-0.682,0.374-0.835,0
			l-3.07-7.488C25.4,11.007,25.618,10.681,25.939,10.681z"/>
	</g>
	<path class="st7" d="M32.553,10.807c-0.109-0.162-0.29-0.259-0.485-0.259l-6.14,0c-0.195,0-0.376,0.097-0.485,0.259
		c-0.109,0.162-0.129,0.367-0.055,0.547l3.07,7.488c0.092,0.224,0.299,0.363,0.541,0.363s0.449-0.139,0.541-0.363l3.07-7.488
		C32.682,11.174,32.661,10.969,32.553,10.807z M26.749,12.815l0.937,0.937l-0.729,0.729l-0.545-1.328L26.749,12.815z M26.302,12.886
		l-0.359-0.876l0.618,0.618L26.302,12.886z M28.75,10.814h0.495l0.689,0.689l-0.937,0.937l-0.937-0.937L28.75,10.814z
		 M27.873,11.315l-0.501-0.501h1.002L27.873,11.315z M29.621,10.814h1.002l-0.501,0.501L29.621,10.814z M29.185,12.627l0.937-0.937
		l0.937,0.937l-0.937,0.937L29.185,12.627z M29.934,13.752l-0.937,0.937l-0.937-0.937l0.937-0.937L29.934,13.752z M28.81,12.627
		l-0.937,0.937l-0.937-0.937l0.937-0.937L28.81,12.627z M27.873,13.94l0.937,0.937l-0.937,0.937l-0.628-0.628l-0.179-0.437
		L27.873,13.94z M27.685,16.001l-0.075,0.075l-0.104-0.254L27.685,16.001z M27.873,16.189l0.937,0.937l-0.546,0.546l-0.545-1.329
		L27.873,16.189z M28.061,16.001l0.937-0.937l0.937,0.937l-0.937,0.937L28.061,16.001z M30.122,16.189l0.154,0.154l-0.545,1.329
		l-0.546-0.546L30.122,16.189z M30.31,16.001l0.179-0.179l-0.104,0.254L30.31,16.001z M30.75,15.185l-0.628,0.628l-0.937-0.937
		l0.937-0.937l0.808,0.808L30.75,15.185z M30.31,13.752l0.937-0.937l0.337,0.337l-0.545,1.329L30.31,13.752z M31.434,12.627
		l0.618-0.618l-0.359,0.876L31.434,12.627z M32.332,10.955c0.06,0.09,0.071,0.198,0.03,0.298l-0.049,0.12l-1.067,1.067l-0.937-0.937
		l0.689-0.689h1.069C32.175,10.814,32.272,10.865,32.332,10.955z M25.663,10.955c0.06-0.09,0.157-0.141,0.265-0.141h1.069
		l0.689,0.689l-0.937,0.937l-1.067-1.067l-0.049-0.12C25.592,11.153,25.603,11.045,25.663,10.955z M29.292,18.741
		c-0.06,0.146-0.191,0.198-0.295,0.198s-0.235-0.052-0.295-0.198l-0.329-0.804l0.624-0.624l0.624,0.624L29.292,18.741z"/>
	<path class="st8" d="M25.255,10.157"/>
	<g>
		<path class="st18" d="M32.74,9.891L32.74,9.891c0.084-0.317,0.129-0.65,0.129-0.994c0-2.138-1.733-3.871-3.871-3.871
			s-3.871,1.733-3.871,3.871c0,0.343,0.045,0.676,0.129,0.994c-0.007,0.002-0.753,0.224-0.425,1.158
			c0.33,0.938,2.384,0.685,2.384,0.685s0.245,1.006,1.784,1.035c1.538-0.03,1.784-1.035,1.784-1.035s2.054,0.254,2.384-0.685
			C33.494,10.114,32.745,9.893,32.74,9.891z"/>
		<path class="st19" d="M29,12.902c-1.334-0.026-1.761-0.743-1.877-1.025c-0.444,0.04-2.1,0.123-2.418-0.784
			c-0.123-0.351-0.122-0.654,0.005-0.9c0.106-0.206,0.275-0.321,0.389-0.38c-0.07-0.299-0.105-0.606-0.105-0.916
			c0-2.208,1.796-4.004,4.004-4.004s4.004,1.796,4.004,4.004c0,0.309-0.035,0.617-0.105,0.915c0.115,0.058,0.284,0.174,0.39,0.383
			c0.125,0.246,0.126,0.548,0.004,0.897c-0.319,0.907-1.974,0.823-2.418,0.784C30.756,12.159,30.33,12.876,29,12.902z
			 M27.214,11.601c0.06,0,0.114,0.041,0.129,0.101c0.009,0.036,0.249,0.907,1.657,0.934c1.403-0.027,1.643-0.898,1.652-0.935
			c0.017-0.065,0.079-0.108,0.145-0.1c0.542,0.066,2.001,0.089,2.242-0.597c0.098-0.278,0.101-0.51,0.01-0.689
			c-0.114-0.225-0.346-0.297-0.348-0.298c-0.069-0.021-0.109-0.092-0.09-0.161c0.083-0.311,0.124-0.634,0.124-0.959
			c0-2.061-1.677-3.739-3.739-3.739s-3.739,1.677-3.739,3.739c0,0.325,0.042,0.648,0.124,0.96c0.018,0.07-0.022,0.141-0.091,0.161
			c-0.002,0.001-0.234,0.073-0.347,0.298c-0.091,0.179-0.087,0.411,0.011,0.688c0.241,0.687,1.7,0.664,2.242,0.597
			C27.203,11.601,27.208,11.601,27.214,11.601z"/>
	</g>
	<g>
		<path class="st2" d="M32.18,6.519L32.18,6.519c-0.006-0.328-0.055-0.66-0.149-0.991c-0.588-2.056-2.731-3.246-4.787-2.658
			s-3.246,2.731-2.658,4.787c0.094,0.33,0.229,0.638,0.397,0.92C24.977,8.581,24.32,9,24.893,9.807
			c0.575,0.812,2.48,0.003,2.48,0.003s0.512,0.899,2,0.505c1.471-0.452,1.43-1.486,1.43-1.486s2.045-0.321,2.104-1.314
			C32.966,6.526,32.185,6.519,32.18,6.519z"/>
		<path class="st20" d="M28.657,10.549c-0.782,0-1.184-0.389-1.332-0.576c-0.416,0.16-1.985,0.696-2.541-0.089
			c-0.214-0.303-0.296-0.594-0.243-0.865c0.045-0.23,0.176-0.387,0.27-0.474c-0.149-0.268-0.268-0.554-0.353-0.851
			c-0.607-2.123,0.626-4.344,2.749-4.951c2.123-0.607,4.344,0.626,4.951,2.749c0.085,0.297,0.136,0.603,0.151,0.909
			c0.125,0.024,0.318,0.088,0.476,0.256c0.191,0.202,0.276,0.494,0.254,0.866c-0.057,0.96-1.671,1.334-2.11,1.418
			c-0.034,0.304-0.247,1.11-1.518,1.5C29.128,10.518,28.877,10.549,28.657,10.549z M27.373,9.678c0.046,0,0.091,0.024,0.116,0.067
			c0.019,0.032,0.488,0.804,1.85,0.442c1.342-0.412,1.333-1.315,1.332-1.353c-0.002-0.067,0.046-0.125,0.112-0.136
			c0.539-0.085,1.949-0.464,1.992-1.19c0.017-0.294-0.043-0.517-0.179-0.665c-0.171-0.185-0.414-0.191-0.417-0.191
			c-0.05-0.001-0.096-0.03-0.118-0.074c-0.009-0.018-0.013-0.037-0.014-0.056h0c-0.006-0.322-0.055-0.644-0.144-0.957
			c-0.567-1.982-2.64-3.134-4.622-2.567c-1.982,0.567-3.133,2.64-2.567,4.622c0.089,0.313,0.218,0.612,0.383,0.888
			c0.037,0.062,0.018,0.141-0.043,0.18c-0.002,0.001-0.205,0.135-0.253,0.382c-0.038,0.197,0.029,0.419,0.199,0.659
			c0.42,0.593,1.817,0.17,2.32-0.042C27.338,9.681,27.355,9.678,27.373,9.678z"/>
	</g>
	<g>
		<path class="st0" d="M32.468,5.352L32.468,5.352c0.114-0.308,0.191-0.635,0.224-0.977c0.205-2.128-1.354-4.02-3.482-4.225
			s-4.02,1.354-4.225,3.482c-0.033,0.342-0.02,0.678,0.033,1.001c-0.007,0.001-0.771,0.151-0.534,1.112
			c0.238,0.966,2.307,0.91,2.307,0.91s0.148,1.024,1.676,1.202C30,7.976,30.341,6.999,30.341,6.999s2.02,0.45,2.439-0.453
			C33.196,5.646,32.472,5.354,32.468,5.352z"/>
		<path class="st21" d="M28.72,8.001c-0.084,0-0.172-0.003-0.264-0.01c-1.325-0.154-1.681-0.908-1.77-1.201
			c-0.446-0.003-2.102-0.079-2.332-1.012c-0.089-0.362-0.058-0.663,0.092-0.897c0.125-0.195,0.304-0.293,0.423-0.339
			c-0.041-0.304-0.047-0.613-0.017-0.921c0.212-2.198,2.172-3.813,4.37-3.602c1.065,0.103,2.026,0.614,2.706,1.439
			c0.68,0.825,0.998,1.866,0.896,2.931c-0.03,0.308-0.094,0.611-0.192,0.901c0.107,0.068,0.263,0.198,0.349,0.413
			c0.104,0.258,0.077,0.561-0.08,0.899c-0.404,0.872-2.044,0.63-2.482,0.548C30.285,7.401,29.848,8.001,28.72,8.001z M26.79,6.524
			c0.066,0,0.122,0.048,0.131,0.114c0.006,0.037,0.161,0.926,1.56,1.089c1.399,0.106,1.721-0.736,1.734-0.772
			c0.023-0.063,0.089-0.1,0.154-0.085c0.533,0.118,1.983,0.281,2.289-0.379c0.124-0.267,0.15-0.497,0.076-0.684
			c-0.092-0.235-0.315-0.329-0.318-0.33c-0.066-0.027-0.1-0.102-0.075-0.169c0.112-0.302,0.185-0.619,0.216-0.943
			c0.096-0.994-0.201-1.966-0.836-2.736c-0.635-0.771-1.532-1.248-2.526-1.344c-0.994-0.096-1.966,0.201-2.736,0.836
			c-0.771,0.635-1.248,1.532-1.344,2.526c-0.031,0.324-0.021,0.649,0.032,0.967c0.012,0.071-0.036,0.139-0.107,0.152
			c-0.001,0-0.239,0.05-0.374,0.263c-0.107,0.169-0.126,0.4-0.056,0.686c0.174,0.706,1.629,0.824,2.175,0.809
			C26.787,6.524,26.789,6.524,26.79,6.524z"/>
	</g>
	<path class="st15" d="M30.872,11.873c-0.116,0.282-0.542,0.999-1.872,1.025c-1.334-0.026-1.761-0.743-1.877-1.025
		c-0.268,0.024-0.976,0.063-1.566-0.107l0.326,0.796c0.504,0.084,1.019,0.054,1.239,0.034c0.117,0.282,0.543,0.999,1.877,1.025
		c1.33-0.026,1.756-0.743,1.872-1.025c0.22,0.02,0.735,0.05,1.239-0.034l0.326-0.796C31.848,11.936,31.14,11.897,30.872,11.873z"/>
	<path class="st15" d="M32.995,8.642c-0.015-0.232-0.05-0.458-0.103-0.677c-0.419,0.641-1.596,0.912-1.96,0.982
		c-0.034,0.304-0.247,1.11-1.518,1.5c-0.284,0.075-0.535,0.106-0.755,0.106c-0.782,0-1.184-0.389-1.332-0.576
		c-0.398,0.153-1.845,0.648-2.459,0.009c-0.058,0.057-0.113,0.126-0.157,0.212c-0.046,0.089-0.074,0.186-0.088,0.29
		c0.041,0.094,0.094,0.188,0.162,0.284c0.556,0.784,2.124,0.249,2.541,0.088c0.148,0.187,0.55,0.576,1.332,0.576
		c0.221,0,0.471-0.031,0.755-0.106c1.271-0.39,1.484-1.197,1.518-1.5C31.334,9.752,32.72,9.432,32.995,8.642z"/>
	<path class="st15" d="M32.834,6.715c-0.491,0.734-1.998,0.511-2.417,0.433c-0.133,0.251-0.569,0.851-1.697,0.851
		c-0.084,0-0.172-0.003-0.264-0.01c-1.325-0.154-1.681-0.908-1.77-1.201c-0.429-0.003-1.978-0.073-2.3-0.911
		c-0.011,0.026-0.021,0.052-0.03,0.079c-0.023,0.144-0.039,0.29-0.046,0.437c0.007,0.085,0.021,0.175,0.044,0.268
		c0.23,0.933,1.886,1.009,2.332,1.012c0.089,0.292,0.445,1.047,1.77,1.201c0.092,0.007,0.18,0.01,0.264,0.01
		c1.128,0,1.564-0.6,1.697-0.851c0.439,0.082,2.078,0.324,2.482-0.548c0.056-0.122,0.095-0.239,0.118-0.351
		C32.986,6.97,32.924,6.831,32.834,6.715z"/>
	<g class="st16">
		<path class="st6" d="M26.276,3.65c-0.116,0-0.214-0.091-0.221-0.208c-0.003-0.044-0.004-0.087-0.004-0.132
			c0-0.932,0.594-1.755,1.479-2.048c0.116-0.038,0.241,0.025,0.28,0.141c0.038,0.116-0.025,0.241-0.141,0.28
			c-0.703,0.233-1.176,0.887-1.176,1.627c0,0.035,0.001,0.07,0.003,0.105c0.007,0.122-0.086,0.227-0.208,0.234
			C26.286,3.65,26.281,3.65,26.276,3.65z"/>
	</g>
</g>
<path class="st8" d="M13.23,7.57"/>
<path class="st5" d="M22.006,8.318c-0.106-0.206-0.274-0.32-0.387-0.377c0.07-0.299,0.105-0.606,0.105-0.915
	c0-0.084-0.003-0.168-0.009-0.251c0.001-0.002,0.001-0.003,0.002-0.005c-0.015-0.232-0.05-0.458-0.103-0.677
	c0,0.001-0.001,0.001-0.001,0.002c0-0.002-0.001-0.004-0.001-0.006c0.085-0.13,0.14-0.275,0.149-0.437
	c0.022-0.37-0.062-0.659-0.25-0.862c-0.16-0.172-0.354-0.236-0.48-0.261c-0.015-0.306-0.066-0.612-0.151-0.909
	c-0.294-1.028-0.971-1.881-1.906-2.4c-0.935-0.519-2.016-0.643-3.045-0.349c-1.028,0.294-1.881,0.971-2.4,1.906
	c-0.519,0.935-0.643,2.016-0.349,3.045c0.085,0.297,0.204,0.583,0.353,0.851c-0.094,0.087-0.225,0.244-0.27,0.474
	c-0.053,0.272,0.029,0.563,0.243,0.865c0.025,0.035,0.053,0.067,0.082,0.097c-0.058,0.057-0.113,0.126-0.157,0.212
	c-0.126,0.247-0.128,0.549-0.005,0.9c0.127,0.36,0.464,0.564,0.853,0.676l2.9,7.072c0.092,0.224,0.299,0.363,0.541,0.363
	s0.449-0.139,0.541-0.363l2.9-7.072c0.389-0.112,0.726-0.316,0.853-0.676C22.136,8.869,22.134,8.566,22.006,8.318z"/>
<g>
	<path class="st3" d="M13.914,8.094l6.14,0c0.321,0,0.539,0.326,0.418,0.623l-3.07,7.488c-0.153,0.374-0.682,0.374-0.835,0
		l-3.07-7.488C13.374,8.42,13.593,8.094,13.914,8.094z"/>
</g>
<path class="st7" d="M20.527,8.22c-0.109-0.162-0.29-0.259-0.485-0.259l-6.14,0c-0.195,0-0.376,0.097-0.485,0.259
	c-0.109,0.162-0.129,0.367-0.055,0.547l3.07,7.488c0.092,0.224,0.299,0.363,0.541,0.363s0.449-0.139,0.541-0.363l3.07-7.488
	C20.657,8.586,20.636,8.382,20.527,8.22z M14.723,10.228l0.937,0.937l-0.729,0.729l-0.545-1.328L14.723,10.228z M14.277,10.299
	l-0.359-0.876l0.618,0.618L14.277,10.299z M16.725,8.227h0.495l0.689,0.689l-0.937,0.937l-0.937-0.937L16.725,8.227z M15.848,8.728
	l-0.501-0.501h1.002L15.848,8.728z M17.596,8.227h1.002l-0.501,0.501L17.596,8.227z M17.16,10.04l0.937-0.937l0.937,0.937
	l-0.937,0.937L17.16,10.04z M17.909,11.165l-0.937,0.937l-0.937-0.937l0.937-0.937L17.909,11.165z M16.784,10.04l-0.937,0.937
	l-0.937-0.937l0.937-0.937L16.784,10.04z M15.848,11.353l0.937,0.937l-0.937,0.937l-0.628-0.628L15.04,12.16L15.848,11.353z
	 M15.66,13.414l-0.075,0.075l-0.104-0.254L15.66,13.414z M15.848,13.601l0.937,0.937l-0.546,0.546l-0.545-1.329L15.848,13.601z
	 M16.036,13.414l0.937-0.937l0.937,0.937l-0.937,0.937L16.036,13.414z M18.097,13.602l0.154,0.154l-0.545,1.329l-0.546-0.546
	L18.097,13.602z M18.285,13.414l0.179-0.179l-0.104,0.254L18.285,13.414z M18.725,12.597l-0.628,0.628l-0.937-0.937l0.937-0.937
	l0.808,0.808L18.725,12.597z M18.285,11.165l0.937-0.937l0.337,0.337l-0.545,1.329L18.285,11.165z M19.409,10.04l0.618-0.618
	l-0.359,0.876L19.409,10.04z M20.307,8.368c0.06,0.09,0.071,0.198,0.03,0.298l-0.049,0.12l-1.067,1.067l-0.937-0.937l0.689-0.689
	h1.069C20.15,8.227,20.246,8.278,20.307,8.368z M13.638,8.368c0.06-0.09,0.157-0.141,0.265-0.141h1.069l0.689,0.689l-0.937,0.937
	l-1.067-1.067l-0.049-0.12C13.567,8.566,13.578,8.458,13.638,8.368z M17.267,16.154c-0.06,0.146-0.191,0.198-0.295,0.198
	c-0.103,0-0.235-0.052-0.295-0.198l-0.329-0.804l0.624-0.624l0.624,0.624L17.267,16.154z"/>
<g>
	<path class="st18" d="M20.715,7.304L20.715,7.304c0.084-0.317,0.129-0.65,0.129-0.994c0-2.138-1.733-3.871-3.871-3.871
		s-3.871,1.733-3.871,3.871c0,0.343,0.045,0.676,0.129,0.994c-0.007,0.002-0.753,0.224-0.425,1.158
		c0.33,0.938,2.384,0.685,2.384,0.685s0.245,1.006,1.784,1.035c1.538-0.03,1.784-1.035,1.784-1.035S20.81,9.4,21.14,8.462
		C21.469,7.527,20.72,7.305,20.715,7.304z"/>
	<path class="st19" d="M16.975,10.315c-1.334-0.026-1.761-0.743-1.877-1.025c-0.444,0.04-2.1,0.123-2.418-0.784
		c-0.123-0.35-0.122-0.653,0.005-0.9c0.106-0.206,0.275-0.322,0.389-0.38c-0.07-0.299-0.105-0.606-0.105-0.916
		c0-2.208,1.796-4.004,4.004-4.004s4.004,1.796,4.004,4.004c0,0.309-0.035,0.617-0.105,0.916c0.114,0.058,0.282,0.172,0.388,0.378
		c0.127,0.247,0.129,0.55,0.006,0.902c-0.319,0.907-1.974,0.823-2.418,0.784C18.73,9.572,18.304,10.289,16.975,10.315z
		 M15.189,9.014c0.06,0,0.114,0.041,0.129,0.101c0.009,0.036,0.249,0.907,1.657,0.934c1.415-0.028,1.65-0.925,1.652-0.934
		c0.016-0.065,0.079-0.109,0.145-0.1c0.542,0.066,2.001,0.089,2.242-0.597c0.098-0.278,0.101-0.509,0.011-0.688
		c-0.114-0.225-0.346-0.297-0.348-0.298c-0.068-0.021-0.109-0.092-0.091-0.161c0.083-0.311,0.124-0.634,0.124-0.96
		c0-2.062-1.677-3.739-3.739-3.739s-3.739,1.677-3.739,3.739c0,0.325,0.042,0.648,0.124,0.96c0.018,0.07-0.022,0.141-0.091,0.161
		c-0.002,0.001-0.234,0.073-0.348,0.298c-0.091,0.179-0.087,0.41,0.011,0.688c0.241,0.687,1.701,0.664,2.242,0.597
		C15.178,9.014,15.183,9.014,15.189,9.014z"/>
</g>
<g>
	<path class="st2" d="M20.155,3.932L20.155,3.932c-0.006-0.328-0.055-0.66-0.149-0.991c-0.588-2.056-2.731-3.246-4.787-2.658
		s-3.246,2.731-2.658,4.787c0.094,0.33,0.229,0.638,0.397,0.92c-0.006,0.004-0.663,0.422-0.09,1.23
		c0.575,0.812,2.48,0.003,2.48,0.003s0.512,0.899,2,0.505c1.471-0.452,1.43-1.486,1.43-1.486s2.045-0.321,2.104-1.314
		C20.94,3.939,20.16,3.932,20.155,3.932z"/>
	<path class="st20" d="M16.631,7.962c-0.782,0-1.184-0.389-1.332-0.576c-0.416,0.16-1.985,0.696-2.541-0.088
		c-0.215-0.304-0.297-0.596-0.242-0.868c0.045-0.227,0.176-0.384,0.269-0.471c-0.149-0.268-0.268-0.554-0.353-0.851
		c-0.294-1.028-0.17-2.11,0.349-3.045c0.519-0.935,1.372-1.612,2.4-1.906c1.028-0.294,2.11-0.17,3.045,0.349
		c0.935,0.519,1.612,1.372,1.906,2.4c0.085,0.298,0.136,0.603,0.151,0.909c0.125,0.024,0.318,0.088,0.476,0.256
		c0.191,0.202,0.276,0.494,0.254,0.866c-0.057,0.96-1.671,1.334-2.11,1.418c-0.034,0.304-0.247,1.11-1.518,1.5
		C17.103,7.931,16.852,7.962,16.631,7.962z M15.347,7.09c0.046,0,0.091,0.024,0.116,0.067c0.019,0.032,0.488,0.803,1.85,0.442
		c1.342-0.412,1.333-1.315,1.332-1.353c-0.002-0.067,0.046-0.125,0.112-0.136c0.539-0.085,1.949-0.465,1.992-1.19
		c0.017-0.294-0.043-0.518-0.179-0.665c-0.171-0.185-0.414-0.191-0.416-0.191c-0.071-0.001-0.13-0.059-0.132-0.13
		c-0.006-0.322-0.055-0.644-0.144-0.957c-0.275-0.96-0.907-1.756-1.78-2.241c-0.873-0.485-1.883-0.601-2.843-0.326
		c-0.96,0.275-1.756,0.907-2.241,1.78c-0.485,0.873-0.601,1.883-0.326,2.843c0.089,0.313,0.218,0.612,0.383,0.888
		c0.037,0.062,0.018,0.142-0.044,0.181c-0.001,0.001-0.204,0.134-0.252,0.382c-0.038,0.197,0.029,0.419,0.199,0.659
		c0.42,0.593,1.817,0.17,2.32-0.043C15.313,7.094,15.33,7.09,15.347,7.09z"/>
</g>
<path class="st15" d="M18.847,9.286c-0.116,0.282-0.542,0.999-1.872,1.025c-1.334-0.026-1.761-0.743-1.877-1.025
	c-0.268,0.024-0.976,0.063-1.566-0.107l0.326,0.796c0.504,0.084,1.019,0.054,1.239,0.034c0.117,0.282,0.543,0.999,1.877,1.025
	c1.33-0.026,1.756-0.743,1.872-1.025c0.22,0.02,0.735,0.05,1.239-0.034l0.326-0.796C19.823,9.349,19.115,9.31,18.847,9.286z"/>
<path class="st15" d="M20.97,6.054c-0.015-0.232-0.05-0.458-0.103-0.677c-0.419,0.641-1.596,0.912-1.96,0.982
	c-0.034,0.304-0.247,1.11-1.518,1.5c-0.284,0.075-0.535,0.106-0.755,0.106c-0.782,0-1.184-0.389-1.332-0.576
	c-0.398,0.153-1.845,0.648-2.459,0.009c-0.058,0.057-0.113,0.126-0.157,0.212C12.641,7.7,12.612,7.797,12.599,7.9
	c0.041,0.094,0.094,0.188,0.162,0.284c0.556,0.784,2.124,0.249,2.541,0.088c0.148,0.187,0.55,0.576,1.332,0.576
	c0.221,0,0.471-0.031,0.755-0.106c1.271-0.39,1.484-1.197,1.518-1.5C19.309,7.165,20.695,6.845,20.97,6.054z"/>
<g class="st16">
	<path class="st6" d="M13.567,3.639c-0.116,0-0.214-0.091-0.221-0.208c-0.003-0.044-0.004-0.087-0.004-0.132
		c0-0.932,0.594-1.755,1.479-2.048c0.116-0.038,0.241,0.025,0.28,0.141c0.038,0.116-0.025,0.241-0.141,0.28
		c-0.703,0.233-1.175,0.887-1.175,1.627c0,0.035,0.001,0.07,0.003,0.105c0.007,0.122-0.086,0.227-0.208,0.234
		C13.576,3.638,13.571,3.639,13.567,3.639z"/>
</g>
<g>
	<path class="st3" d="M1.609,5.788l6.14,0c0.321,0,0.539,0.326,0.418,0.623l-3.07,7.488c-0.153,0.374-0.682,0.374-0.835,0
		L1.192,6.41C1.07,6.113,1.288,5.788,1.609,5.788z"/>
</g>
<path class="st7" d="M8.223,5.914c-0.109-0.162-0.29-0.259-0.485-0.259l-6.14,0c-0.195,0-0.376,0.097-0.485,0.259
	C1.004,6.076,0.984,6.28,1.058,6.461l3.07,7.488c0.092,0.224,0.299,0.363,0.541,0.363c0.242,0,0.449-0.139,0.541-0.363l3.07-7.488
	C8.352,6.28,8.332,6.076,8.223,5.914z M2.419,7.922l0.937,0.937L2.627,9.587L2.082,8.259L2.419,7.922z M1.973,7.992L1.614,7.116
	l0.618,0.618L1.973,7.992z M4.42,5.921h0.495L5.605,6.61L4.668,7.546L3.731,6.609L4.42,5.921z M3.544,6.422L3.043,5.921h1.002
	L3.544,6.422z M5.291,5.921h1.002L5.792,6.422L5.291,5.921z M4.856,7.734l0.937-0.937l0.937,0.937L5.792,8.671L4.856,7.734z
	 M5.605,8.858L4.668,9.795L3.731,8.858l0.937-0.937L5.605,8.858z M4.48,7.734L3.544,8.671L2.607,7.734l0.937-0.937L4.48,7.734z
	 M3.544,9.046L4.48,9.983L3.544,10.92l-0.628-0.628L2.736,9.854L3.544,9.046z M3.356,11.107l-0.075,0.075l-0.104-0.254L3.356,11.107
	z M3.544,11.295l0.937,0.937l-0.546,0.546L3.39,11.449L3.544,11.295z M3.731,11.107l0.937-0.937l0.937,0.937l-0.937,0.937
	L3.731,11.107z M5.792,11.295l0.154,0.154l-0.545,1.329l-0.546-0.546L5.792,11.295z M5.98,11.107l0.179-0.179l-0.104,0.254
	L5.98,11.107z M6.421,10.291L5.792,10.92L4.856,9.983l0.937-0.937L6.6,9.854L6.421,10.291z M5.98,8.858l0.937-0.937l0.337,0.337
	L6.709,9.587L5.98,8.858z M7.105,7.734l0.618-0.618L7.363,7.992L7.105,7.734z M8.002,6.062c0.06,0.09,0.071,0.198,0.03,0.298
	L7.984,6.48L6.917,7.546L5.98,6.61l0.689-0.689h1.069C7.846,5.921,7.942,5.972,8.002,6.062z M1.334,6.062
	c0.06-0.09,0.157-0.141,0.265-0.141h1.069L3.356,6.61L2.419,7.546L1.352,6.48L1.303,6.36C1.262,6.26,1.273,6.151,1.334,6.062z
	 M4.963,13.848c-0.06,0.146-0.191,0.198-0.295,0.198c-0.103,0-0.235-0.052-0.295-0.198l-0.329-0.804l0.624-0.624l0.624,0.624
	L4.963,13.848z"/>
<path class="st8" d="M0.926,5.263"/>
<g>
	<path class="st18" d="M8.411,4.998L8.411,4.998c0.084-0.317,0.129-0.65,0.129-0.994c0-2.138-1.733-3.871-3.871-3.871
		S0.797,1.866,0.797,4.004c0,0.343,0.045,0.676,0.129,0.994C0.918,5,0.172,5.222,0.5,6.156C0.83,7.094,2.884,6.84,2.884,6.84
		S3.13,7.846,4.668,7.876C6.206,7.846,6.452,6.84,6.452,6.84s2.054,0.254,2.384-0.685C9.164,5.22,8.416,4.999,8.411,4.998z"/>
	<path class="st19" d="M4.671,8.009C3.337,7.983,2.91,7.266,2.793,6.983c-0.444,0.04-2.1,0.123-2.418-0.784
		C0.252,5.849,0.253,5.547,0.38,5.3c0.106-0.206,0.275-0.322,0.389-0.38c-0.07-0.299-0.105-0.606-0.105-0.916
		C0.664,1.796,2.46,0,4.668,0s4.004,1.796,4.004,4.004c0,0.309-0.035,0.617-0.105,0.915c0.115,0.058,0.284,0.174,0.39,0.383
		C9.083,5.549,9.084,5.851,8.961,6.2C8.642,7.107,6.987,7.023,6.543,6.983C6.426,7.266,6,7.983,4.671,8.009z M2.884,6.708
		c0.06,0,0.114,0.041,0.129,0.101c0.009,0.036,0.249,0.907,1.657,0.934c1.415-0.028,1.65-0.925,1.652-0.934
		c0.016-0.065,0.079-0.109,0.145-0.1C7.01,6.775,8.469,6.798,8.71,6.112c0.098-0.278,0.101-0.51,0.01-0.689
		C8.606,5.198,8.375,5.126,8.372,5.125c-0.069-0.021-0.109-0.092-0.09-0.161C8.365,4.653,8.407,4.33,8.407,4.004
		c0-2.062-1.677-3.739-3.739-3.739S0.929,1.943,0.929,4.004c0,0.325,0.042,0.648,0.124,0.96c0.018,0.07-0.022,0.141-0.091,0.161
		C0.961,5.126,0.729,5.199,0.615,5.423c-0.091,0.179-0.087,0.41,0.011,0.688c0.241,0.687,1.7,0.664,2.242,0.597
		C2.873,6.708,2.879,6.708,2.884,6.708z"/>
</g>
<path class="st15" d="M6.543,6.98C6.426,7.262,6,7.979,4.671,8.005C3.337,7.979,2.91,7.262,2.793,6.98
	C2.525,7.003,1.818,7.043,1.228,6.872l0.326,0.796c0.504,0.084,1.019,0.054,1.239,0.034C2.91,7.985,3.337,8.702,4.671,8.728
	C6,8.702,6.426,7.985,6.543,7.702c0.22,0.02,0.735,0.05,1.239-0.034l0.326-0.796C7.518,7.043,6.811,7.003,6.543,6.98z"/>
<g class="st17">
	<path class="st6" d="M1.947,3.687c-0.116,0-0.214-0.091-0.221-0.208C1.723,3.435,1.722,3.392,1.722,3.347
		c0-0.932,0.594-1.755,1.479-2.048c0.116-0.038,0.241,0.025,0.28,0.141C3.519,1.556,3.456,1.681,3.34,1.72
		C2.637,1.953,2.165,2.607,2.165,3.347c0,0.035,0.001,0.07,0.003,0.105C2.176,3.574,2.083,3.679,1.96,3.687
		C1.956,3.687,1.951,3.687,1.947,3.687z"/>
</g>
<text transform="matrix(1 0 0 1 416.5547 -59.2238)"><tspan x="0" y="0" style="font-family:'Bjola'; font-size:18px;">BARQUILLO </tspan><tspan x="20.952" y="21.6" style="font-family:'Bjola'; font-size:18px;">SIMPLE</tspan></text>
<text transform="matrix(1 0 0 1 403.4839 -0.5033)" style="font-family:'Bjola'; font-size:39.1201px;">$1.200</text>
<text transform="matrix(1 0 0 1 627.5504 -61.1973)"><tspan x="0" y="0" style="font-family:'Bjola'; font-size:18px;">BARQUILLO </tspan><tspan x="23.633" y="21.6" style="font-family:'Bjola'; font-size:18px;">DOBLE</tspan></text>
<text transform="matrix(1 0 0 1 613.9511 -2.4768)" style="font-family:'Bjola'; font-size:39.1201px;">$1.800</text>
<text transform="matrix(1 0 0 1 834.1569 -59.1252)"><tspan x="0" y="0" style="font-family:'Bjola'; font-size:18px;">BARQUILLO </tspan><tspan x="23.139" y="21.6" style="font-family:'Bjola'; font-size:18px;">TRIPLE</tspan></text>
<text transform="matrix(1 0 0 1 817.4869 -0.4047)" style="font-family:'Bjola'; font-size:39.1201px;">$2.200</text>
<path class="st1" d="M495.376-111.25c0,0,26.805-32.582,40.099-21.422c7.968,6.69,2.252,17.589-9.284,17.477
	S495.376-111.25,495.376-111.25z"/>
<path class="st1" d="M421.085,120.502c0,0-41.817,5.604-43.952-11.621c-1.279-10.325,10.33-14.414,18.701-6.475
	S421.085,120.502,421.085,120.502z"/>
<circle class="st1" cx="484.633" cy="-114.27" r="5.02"/>
<circle class="st1" cx="377.037" cy="89.092" r="5.02"/>
</svg>
