<?xml version="1.0" encoding="utf-8"?>
<!-- Generator: Adobe Illustrator 25.4.1, SVG Export Plug-In . SVG Version: 6.00 Build 0)  -->
<svg version="1.1" id="Capa_1" xmlns="http://www.w3.org/2000/svg" xmlns:xlink="http://www.w3.org/1999/xlink" x="0px" y="0px"
	 width="10px" height="19.957px" viewBox="0 0 10 19.957" style="enable-background:new 0 0 10 19.957;" xml:space="preserve">
<style type="text/css">
	.st0{fill:#84EEBD;}
	.st1{opacity:0.7;fill:#FFFFFF;}
	.st2{fill:#DA69A8;}
	.st3{fill:#FBD187;}
	.st4{fill:#29ABE2;}
	.st5{opacity:0.2;}
	.st6{fill:#FFFFFF;}
	.st7{fill:#E5A43C;}
	.st8{stroke:#FFFFFF;stroke-miterlimit:10;}
	.st9{stroke:#FFFFFF;stroke-width:3;stroke-miterlimit:10;}
	.st10{stroke:#FFFFFF;stroke-width:3;stroke-linecap:round;stroke-linejoin:round;stroke-miterlimit:10;}
	.st11{fill:none;stroke:#FFFFFF;stroke-width:3;stroke-miterlimit:10;}
	.st12{fill:#5D3424;stroke:#33170E;stroke-width:3;stroke-linecap:round;stroke-linejoin:round;stroke-miterlimit:10;}
	.st13{fill:#DA69A8;stroke:#91306A;stroke-width:3;stroke-linecap:round;stroke-linejoin:round;stroke-miterlimit:10;}
	.st14{fill:#84EEBD;stroke:#309964;stroke-width:3;stroke-linecap:round;stroke-linejoin:round;stroke-miterlimit:10;}
	.st15{opacity:0.1;}
	.st16{opacity:0.7;}
	.st17{opacity:0.4;}
	.st18{fill:#5D3424;}
	.st19{fill:#33170E;}
	.st20{fill:#91306A;}
	.st21{fill:#309964;}
</style>
<rect x="752.81" y="-252.199" class="st0" width="207.303" height="625.823"/>
<path class="st1" d="M902.074,112.263l-61.605,5.768c-42.974,4.024-79.211-31.633-75.882-74.666l8.421-108.861
	c0.834-10.78,9.126-19.492,19.852-20.857l109.413-13.923c19.283-2.454,36.343,12.573,36.343,32.012V72.139
	C938.616,92.94,922.785,110.324,902.074,112.263z"/>
<path class="st1" d="M882.714-105.818c0,0,26.805-32.582,40.099-21.422c7.968,6.69,2.252,17.589-9.284,17.477
	C901.993-109.875,882.714-105.818,882.714-105.818z"/>
<path class="st1" d="M808.423,125.935c0,0-41.817,5.604-43.952-11.621c-1.279-10.325,10.33-14.414,18.701-6.475
	C791.543,115.776,808.423,125.935,808.423,125.935z"/>
<circle class="st1" cx="871.97" cy="-108.838" r="5.02"/>
<circle class="st1" cx="764.374" cy="94.524" r="5.02"/>
<rect x="545.507" y="-252.199" class="st2" width="207.303" height="625.823"/>
<path class="st1" d="M700.473,109.664l-61.605,5.768c-42.974,4.024-79.211-31.633-75.882-74.666l8.421-108.861
	c0.834-10.78,9.126-19.492,19.852-20.857l109.413-13.923c19.283-2.454,36.343,12.573,36.343,32.012V69.541
	C737.015,90.342,721.183,107.725,700.473,109.664z"/>
<path class="st1" d="M681.113-108.416c0,0,26.805-32.582,40.099-21.422c7.968,6.69,2.252,17.589-9.284,17.477
	S681.113-108.416,681.113-108.416z"/>
<path class="st1" d="M606.822,123.336c0,0-41.817,5.604-43.952-11.621c-1.279-10.325,10.33-14.414,18.701-6.475
	C589.942,113.178,606.822,123.336,606.822,123.336z"/>
<circle class="st1" cx="670.369" cy="-111.436" r="5.02"/>
<circle class="st1" cx="562.773" cy="91.926" r="5.02"/>
<rect x="338.447" y="-252.199" class="st3" width="207.303" height="625.823"/>
<path class="st1" d="M490.556,106.83l-61.605,5.768c-42.974,4.024-79.211-31.633-75.882-74.666l8.421-108.861
	c0.834-10.78,9.126-19.492,19.852-20.857l109.413-13.923c19.283-2.454,36.343,12.573,36.343,32.012V66.707
	C527.098,87.508,511.266,104.891,490.556,106.83z"/>
<rect x="960.113" y="-252.199" class="st4" width="207.303" height="625.823"/>
<path class="st5" d="M498.001,80.635c-1.198-2.323-3.099-3.618-4.381-4.27c0.789-3.373,1.188-6.844,1.188-10.337
	c0-24.931-20.282-45.213-45.212-45.213s-45.212,20.282-45.212,45.213c0,3.493,0.399,6.965,1.188,10.339
	c-1.286,0.655-3.197,1.958-4.391,4.285c-1.429,2.786-1.448,6.205-0.057,10.164c1.429,4.067,5.241,6.366,9.629,7.636l32.74,79.853
	c1.035,2.525,3.374,4.094,6.103,4.094s5.068-1.568,6.103-4.094l32.738-79.852c4.389-1.27,8.201-3.569,9.63-7.637
	C499.461,86.85,499.439,83.424,498.001,80.635z"/>
<path class="st5" d="M715.921,105.182c-1.201-2.322-3.096-3.612-4.375-4.262c0.788-3.371,1.187-6.842,1.187-10.335
	c0-0.952-0.039-1.894-0.098-2.831c0.007-0.02,0.017-0.039,0.024-0.06c-0.169-2.615-0.561-5.168-1.157-7.645
	c-0.005,0.007-0.011,0.014-0.016,0.021c-0.005-0.023-0.01-0.046-0.016-0.068c0.961-1.468,1.578-3.103,1.687-4.93
	c0.248-4.173-0.702-7.446-2.825-9.731c-1.802-1.938-4.001-2.668-5.424-2.943c-0.17-3.46-0.74-6.905-1.7-10.262
	c-3.32-11.611-10.963-21.235-21.521-27.099c-10.557-5.862-22.766-7.263-34.378-3.942c-11.611,3.32-21.235,10.963-27.098,21.521
	c-5.863,10.558-7.264,22.767-3.943,34.378c0.961,3.357,2.298,6.584,3.982,9.608c-1.061,0.982-2.536,2.756-3.044,5.353
	c-0.601,3.066,0.322,6.353,2.743,9.77c0.283,0.399,0.596,0.757,0.922,1.097c-0.65,0.642-1.273,1.425-1.769,2.395
	c-1.425,2.784-1.442,6.202-0.053,10.157c1.429,4.067,5.241,6.365,9.629,7.635l32.74,79.853c1.035,2.525,3.374,4.094,6.103,4.094
	s5.068-1.568,6.103-4.094l32.738-79.852c4.389-1.27,8.201-3.568,9.63-7.636C717.388,111.402,717.365,107.973,715.921,105.182z"/>
<path class="st5" d="M908.825,134.89c-1.198-2.359-3.113-3.667-4.406-4.322c0.788-3.372,1.187-6.843,1.187-10.335
	c0-0.952-0.039-1.894-0.098-2.832c0.007-0.02,0.017-0.039,0.024-0.059c-0.169-2.615-0.561-5.168-1.157-7.645
	c-0.005,0.007-0.011,0.014-0.016,0.021c-0.005-0.023-0.01-0.046-0.016-0.068c0.961-1.467,1.578-3.103,1.687-4.93
	c0.127-2.141-0.066-4.041-0.566-5.697c-0.023-0.077-0.054-0.148-0.078-0.223c-0.111-0.342-0.231-0.676-0.369-0.996
	c-0.034-0.079-0.075-0.153-0.111-0.231c-0.141-0.307-0.292-0.607-0.459-0.892c-0.045-0.077-0.096-0.149-0.143-0.225
	c-0.168-0.27-0.344-0.532-0.536-0.782c-0.018-0.023-0.032-0.049-0.05-0.073c0.272-0.407,0.525-0.831,0.738-1.292
	c1.764-3.805,2.073-7.209,0.92-10.118c-0.963-2.432-2.744-3.914-3.961-4.691c1.109-3.282,1.839-6.7,2.175-10.178
	c1.159-12.021-2.433-23.773-10.114-33.093c-7.681-9.319-18.531-15.09-30.552-16.249c-24.811-2.389-46.95,15.851-49.342,40.666
	c-0.335,3.479-0.271,6.974,0.191,10.408c-1.345,0.531-3.379,1.648-4.788,3.852c-1.685,2.634-2.03,6.033-1.026,10.102
	c0.064,0.258,0.145,0.506,0.227,0.752c-1.312,6.858-1.021,13.975,0.954,20.883c0.96,3.359,2.299,6.587,3.985,9.614
	c-1.055,0.982-2.533,2.758-3.042,5.323c-0.61,3.072,0.312,6.367,2.738,9.792c0.283,0.399,0.596,0.757,0.922,1.097
	c-0.647,0.64-1.269,1.421-1.765,2.388c-1.429,2.785-1.448,6.205-0.057,10.164c1.429,4.067,5.241,6.366,9.629,7.636l32.74,79.852
	c1.035,2.525,3.374,4.094,6.103,4.094s5.068-1.568,6.103-4.094l32.738-79.852c4.389-1.27,8.201-3.569,9.63-7.637
	C910.25,141.079,910.237,137.67,908.825,134.89z"/>
<g>
	<rect x="121.849" y="-1106.664" width="1361" height="763"/>
	<path class="st6" d="M1480.349-1104.164v758h-1356v-758H1480.349 M1485.349-1109.164h-1366v768h1366V-1109.164L1485.349-1109.164z"
		/>
</g>
<path class="st3" d="M530.972-725.624l69.323,0c3.624,0,6.09,3.676,4.715,7.029l-34.661,84.542c-1.729,4.217-7.701,4.217-9.431,0
	l-34.662-84.542C524.882-721.947,527.348-725.624,530.972-725.624z"/>
<path class="st7" d="M605.646-724.202c-1.227-1.83-3.275-2.922-5.478-2.922l-69.323,0c-2.203,0-4.251,1.092-5.478,2.921
	c-1.227,1.83-1.461,4.139-0.625,6.178l34.662,84.541c1.035,2.525,3.374,4.094,6.103,4.094s5.068-1.568,6.103-4.094l34.661-84.542
	C607.108-720.063,606.874-722.373,605.646-724.202z M540.114-701.528l10.575,10.575l-8.231,8.231l-6.15-15L540.114-701.528z
	 M535.075-700.731l-4.056-9.892l6.974,6.974L535.075-700.731z M562.71-724.124h5.594l7.779,7.778l-10.575,10.575l-10.575-10.575
	L562.71-724.124z M552.811-718.467l-5.657-5.657h11.314L552.811-718.467z M572.546-724.124h11.314l-5.657,5.657L572.546-724.124z
	 M567.628-703.65l10.575-10.575l10.575,10.575l-10.575,10.575L567.628-703.65z M576.082-690.953l-10.576,10.576l-10.575-10.575
	l10.576-10.575L576.082-690.953z M563.386-703.65l-10.576,10.575l-10.575-10.575l10.575-10.575L563.386-703.65z M552.81-688.832
	l10.575,10.575l-10.575,10.575l-7.094-7.094l-2.025-4.938L552.81-688.832z M550.689-665.561l-0.847,0.847l-1.177-2.872
	L550.689-665.561z M552.81-663.44l10.576,10.576l-6.16,6.16l-6.15-15.001L552.81-663.44z M554.932-665.561l10.575-10.575
	l10.576,10.576l-10.575,10.575L554.932-665.561z M578.203-663.439l1.735,1.735l-6.15,15l-6.16-6.16L578.203-663.439z
	 M580.324-665.56l2.025-2.025l-1.178,2.873L580.324-665.56z M585.297-674.775l-7.094,7.094l-10.576-10.576l10.576-10.576
	l9.119,9.119L585.297-674.775z M580.324-690.953l10.575-10.575l3.806,3.806l-6.15,15L580.324-690.953z M593.021-703.649l6.974-6.974
	l-4.056,9.892L593.021-703.649z M603.155-722.531c0.679,1.013,0.803,2.24,0.341,3.367l-0.554,1.351L590.9-705.771l-10.575-10.575
	l7.779-7.779h12.065C601.387-724.124,602.476-723.543,603.155-722.531z M527.859-722.53c0.679-1.013,1.768-1.594,2.987-1.594h12.065
	l7.779,7.778l-10.575,10.575l-12.043-12.043l-0.553-1.35C527.055-720.291,527.18-721.519,527.859-722.53z M568.835-634.622
	c-0.675,1.646-2.162,2.232-3.328,2.232s-2.653-0.586-3.328-2.232l-3.72-9.073l7.047-7.047l7.048,7.048L568.835-634.622z"/>
<path class="st8" d="M360.6-731.544"/>
<path class="st9" d="M368.194-725.624l69.323,0c3.624,0,6.09,3.676,4.715,7.029l-34.661,84.542c-1.729,4.217-7.701,4.217-9.431,0
	l-34.662-84.542C362.104-721.948,364.57-725.624,368.194-725.624z"/>
<g>
	<line class="st10" x1="386.658" y1="-662.059" x2="441.565" y2="-716.966"/>
	<line class="st10" x1="419.054" y1="-662.059" x2="364.147" y2="-716.966"/>
	<line class="st10" x1="394.042" y1="-644.05" x2="423.92" y2="-673.928"/>
	<line class="st10" x1="411.67" y1="-644.05" x2="381.792" y2="-673.928"/>
	<line class="st10" x1="379.275" y1="-680.068" x2="424.83" y2="-725.624"/>
	<line class="st10" x1="426.437" y1="-680.068" x2="380.882" y2="-725.624"/>
	<line class="st10" x1="371.891" y1="-698.077" x2="399.438" y2="-725.624"/>
	<line class="st10" x1="433.821" y1="-698.077" x2="406.274" y2="-725.624"/>
	<path class="st11" d="M368.194-725.624l69.323,0c3.624,0,6.09,3.676,4.715,7.029l-34.661,84.542c-1.729,4.217-7.701,4.217-9.431,0
		l-34.662-84.542C362.104-721.947,364.57-725.624,368.194-725.624z"/>
</g>
<path class="st10" d="M445.114-734.543l0.001-0.001c0.948-3.58,1.453-7.339,1.453-11.217c0-24.142-19.571-43.712-43.712-43.712
	s-43.712,19.571-43.712,43.712c0,3.878,0.505,7.638,1.453,11.218c-0.076,0.022-8.503,2.527-4.797,13.074
	c3.722,10.594,26.916,7.731,26.916,7.731s2.772,11.353,20.141,11.69c17.369-0.337,20.141-11.69,20.141-11.69
	s23.193,2.863,26.916-7.731C453.623-732.03,445.168-734.527,445.114-734.543z"/>
<path class="st10" d="M438.787-772.613l0.001-0.001c-0.073-3.702-0.621-7.456-1.687-11.184
	c-6.637-23.211-30.834-36.648-54.045-30.01s-36.648,30.834-30.01,54.045c1.066,3.729,2.586,7.205,4.481,10.386
	c-0.067,0.043-7.481,4.767-1.018,13.889c6.492,9.163,28.004,0.034,28.004,0.034s5.786,10.154,22.579,5.702
	c16.607-5.099,16.151-16.776,16.151-16.776s23.087-3.623,23.753-14.833C447.659-772.536,438.843-772.613,438.787-772.613z"/>
<path class="st10" d="M442.035-785.789l0.001-0.001c1.287-3.472,2.15-7.166,2.522-11.026c2.316-24.03-15.286-45.388-39.317-47.705
	c-24.03-2.316-45.388,15.286-47.705,39.317c-0.372,3.86-0.23,7.651,0.37,11.306c-0.078,0.015-8.706,1.7-6.03,12.553
	c2.689,10.903,26.05,10.278,26.05,10.278s1.67,11.567,18.927,13.568c17.321,1.332,21.17-9.703,21.17-9.703
	s22.812,5.076,27.533-5.113C450.264-782.471,442.087-785.768,442.035-785.789z"/>
<path class="st8" d="M523.251-731.544"/>
<path class="st12" d="M607.765-734.543l0.001-0.001c0.948-3.58,1.453-7.339,1.453-11.217c0-24.142-19.571-43.712-43.712-43.712
	s-43.712,19.571-43.712,43.712c0,3.878,0.505,7.638,1.453,11.218c-0.076,0.022-8.503,2.527-4.797,13.074
	c3.722,10.594,26.916,7.731,26.916,7.731s2.772,11.353,20.141,11.69c17.369-0.337,20.141-11.69,20.141-11.69
	s23.193,2.863,26.916-7.731C616.274-732.03,607.82-734.527,607.765-734.543z"/>
<path class="st13" d="M601.438-772.613l0.001-0.001c-0.073-3.702-0.621-7.456-1.687-11.184
	c-6.637-23.211-30.834-36.648-54.045-30.01c-23.211,6.637-36.648,30.834-30.01,54.045c1.066,3.729,2.586,7.205,4.481,10.386
	c-0.067,0.043-7.481,4.767-1.018,13.889c6.492,9.163,28.004,0.034,28.004,0.034s5.786,10.154,22.579,5.702
	c16.607-5.099,16.151-16.776,16.151-16.776s23.087-3.623,23.753-14.833C610.31-772.536,601.494-772.613,601.438-772.613z"/>
<path class="st14" d="M604.686-785.789l0.001-0.001c1.287-3.472,2.15-7.166,2.522-11.026c2.316-24.03-15.286-45.388-39.317-47.705
	c-24.03-2.316-45.388,15.286-47.705,39.317c-0.372,3.86-0.23,7.651,0.37,11.306c-0.078,0.015-8.706,1.7-6.03,12.553
	c2.689,10.903,26.05,10.278,26.05,10.278s1.67,11.567,18.927,13.568c17.321,1.332,21.17-9.703,21.17-9.703
	s22.812,5.076,27.533-5.113C612.915-782.471,604.739-785.768,604.686-785.789z"/>
<path class="st15" d="M586.674-712.168c-1.315,3.189-6.125,11.285-21.138,11.576c-15.06-0.291-19.879-8.387-21.195-11.576
	c-3.025,0.27-11.016,0.716-17.676-1.212l3.685,8.987c5.688,0.947,11.511,0.607,13.991,0.385c1.316,3.189,6.135,11.285,21.195,11.576
	c15.013-0.291,19.823-8.387,21.138-11.576c2.482,0.221,8.303,0.562,13.991-0.385l3.684-8.987
	C597.69-711.451,589.7-711.898,586.674-712.168z"/>
<path class="st15" d="M610.645-748.652c-0.169-2.615-0.561-5.168-1.157-7.645c-4.735,7.235-18.019,10.295-22.134,11.085
	c-0.388,3.428-2.787,12.535-17.141,16.941c-3.204,0.85-6.036,1.199-8.525,1.199c-8.825,0.001-13.364-4.393-15.036-6.502
	c-4.49,1.728-20.833,7.312-27.763,0.098c-0.649,0.642-1.273,1.425-1.769,2.395c-0.516,1.008-0.841,2.101-0.988,3.269
	c0.466,1.056,1.066,2.126,1.834,3.211c6.276,8.857,23.984,2.809,28.686,0.999c1.672,2.109,6.211,6.503,15.036,6.502
	c2.49,0,5.322-0.35,8.525-1.199c14.354-4.406,16.753-13.513,17.141-16.941C591.886-736.11,607.539-739.732,610.645-748.652z"/>
<path class="st15" d="M608.82-770.408c-5.54,8.287-22.563,5.772-27.286,4.888c-1.502,2.837-6.427,9.612-19.166,9.612
	c-0.951,0-1.945-0.038-2.984-0.118c-14.963-1.734-18.982-10.255-19.987-13.557c-4.848-0.035-22.337-0.829-25.964-10.281
	c-0.129,0.288-0.242,0.585-0.344,0.888c-0.264,1.627-0.435,3.275-0.519,4.937c0.077,0.965,0.235,1.971,0.495,3.029
	c2.599,10.539,21.293,11.39,26.331,11.426c1.004,3.301,5.024,11.822,19.987,13.557c1.04,0.08,2.033,0.118,2.984,0.118
	c12.739,0,17.664-6.775,19.166-9.612c4.956,0.928,23.466,3.662,28.028-6.186c0.637-1.375,1.078-2.696,1.335-3.962
	C610.545-767.52,609.845-769.1,608.82-770.408z"/>
<g class="st16">
	<path class="st6" d="M534.783-805.01c-1.312,0-2.413-1.022-2.493-2.349c-0.03-0.492-0.048-0.988-0.048-1.488
		c0-10.523,6.712-19.815,16.701-23.122c1.312-0.433,2.725,0.277,3.159,1.588c0.434,1.311-0.277,2.725-1.588,3.159
		c-7.938,2.627-13.272,10.012-13.272,18.375c0,0.398,0.015,0.792,0.039,1.185c0.083,1.378-0.966,2.563-2.344,2.647
		C534.885-805.012,534.834-805.01,534.783-805.01z"/>
</g>
<path class="st15" d="M637.507-734.103c-1.198-2.359-3.113-3.667-4.406-4.322c0.788-3.372,1.187-6.843,1.187-10.335
	c0-0.952-0.039-1.894-0.098-2.832c0.007-0.02,0.017-0.039,0.024-0.059c-0.169-2.615-0.561-5.168-1.157-7.645
	c-0.005,0.007-0.011,0.014-0.016,0.021c-0.005-0.023-0.01-0.046-0.016-0.068c0.961-1.467,1.578-3.103,1.687-4.93
	c0.127-2.141-0.066-4.041-0.566-5.697c-0.023-0.077-0.054-0.148-0.078-0.223c-0.111-0.342-0.231-0.676-0.369-0.996
	c-0.034-0.079-0.075-0.153-0.111-0.231c-0.141-0.307-0.292-0.607-0.459-0.892c-0.045-0.077-0.096-0.149-0.143-0.225
	c-0.168-0.27-0.344-0.532-0.536-0.782c-0.018-0.023-0.032-0.049-0.05-0.073c0.272-0.407,0.525-0.831,0.738-1.292
	c1.764-3.805,2.073-7.209,0.92-10.118c-0.963-2.432-2.744-3.914-3.961-4.691c1.109-3.282,1.839-6.7,2.175-10.178
	c1.159-12.021-2.433-23.773-10.114-33.093c-7.681-9.319-18.531-15.09-30.552-16.249c-24.811-2.389-46.95,15.851-49.342,40.666
	c-0.335,3.479-0.271,6.974,0.191,10.408c-1.345,0.531-3.379,1.648-4.788,3.852c-1.685,2.634-2.03,6.033-1.026,10.102
	c0.064,0.258,0.145,0.506,0.227,0.752c-1.312,6.858-1.021,13.975,0.954,20.883c0.96,3.359,2.299,6.587,3.985,9.614
	c-1.055,0.982-2.533,2.758-3.042,5.323c-0.61,3.072,0.312,6.367,2.738,9.792c0.283,0.399,0.596,0.757,0.922,1.097
	c-0.647,0.64-1.269,1.421-1.765,2.388c-1.429,2.785-1.448,6.205-0.057,10.164c1.429,4.067,5.241,6.366,9.629,7.636l32.74,79.852
	c1.035,2.525,3.374,4.094,6.103,4.094s5.068-1.568,6.103-4.094l32.738-79.852c4.389-1.27,8.201-3.569,9.63-7.637
	C638.932-727.914,638.919-731.323,637.507-734.103z"/>
<path class="st3" d="M818.223,131.869l69.323,0c3.624,0,6.09,3.676,4.715,7.029l-34.661,84.542c-1.729,4.217-7.701,4.217-9.431,0
	l-34.662-84.542C812.133,135.546,814.599,131.869,818.223,131.869z"/>
<path class="st7" d="M892.897,133.291c-1.227-1.83-3.275-2.922-5.478-2.922l-69.323,0c-2.203,0-4.251,1.092-5.478,2.921
	c-1.227,1.83-1.461,4.139-0.625,6.178l34.662,84.541c1.035,2.525,3.374,4.094,6.103,4.094s5.068-1.568,6.103-4.094l34.661-84.542
	C894.359,137.429,894.125,135.12,892.897,133.291z M827.365,155.965l10.575,10.575l-8.231,8.231l-6.15-15L827.365,155.965z
	 M822.326,156.762l-4.056-9.892l6.974,6.974L822.326,156.762z M849.961,133.369h5.594l7.779,7.778l-10.575,10.575l-10.575-10.575
	L849.961,133.369z M840.062,139.026l-5.657-5.657h11.314L840.062,139.026z M859.797,133.369h11.314l-5.657,5.657L859.797,133.369z
	 M854.88,153.843l10.575-10.575l10.575,10.575l-10.575,10.575L854.88,153.843z M863.333,166.54l-10.576,10.576l-10.575-10.575
	l10.576-10.575L863.333,166.54z M850.637,153.843l-10.576,10.575l-10.575-10.575l10.575-10.575L850.637,153.843z M840.062,168.661
	l10.575,10.575l-10.575,10.575l-7.094-7.094l-2.025-4.938L840.062,168.661z M837.941,191.932l-0.847,0.847l-1.177-2.872
	L837.941,191.932z M840.062,194.053l10.576,10.576l-6.16,6.16l-6.15-15.001L840.062,194.053z M842.183,191.932l10.575-10.575
	l10.576,10.576l-10.575,10.575L842.183,191.932z M865.455,194.054l1.735,1.735l-6.15,15l-6.16-6.16L865.455,194.054z
	 M867.576,191.933l2.025-2.025l-1.178,2.873L867.576,191.933z M872.549,182.718l-7.094,7.094l-10.576-10.576l10.576-10.576
	l9.119,9.119L872.549,182.718z M867.576,166.539l10.575-10.575l3.806,3.806l-6.15,15L867.576,166.539z M880.272,153.843l6.974-6.974
	l-4.056,9.892L880.272,153.843z M890.406,134.962c0.679,1.013,0.803,2.24,0.341,3.367l-0.554,1.351l-12.043,12.043l-10.575-10.575
	l7.779-7.779h12.065C888.639,133.369,889.727,133.95,890.406,134.962z M815.11,134.963c0.679-1.013,1.768-1.594,2.987-1.594h12.065
	l7.779,7.778l-10.575,10.575l-12.043-12.043l-0.553-1.35C814.307,137.202,814.431,135.974,815.11,134.963z M856.086,222.871
	c-0.675,1.646-2.162,2.232-3.328,2.232s-2.653-0.586-3.328-2.232l-3.72-9.073l7.047-7.047l7.048,7.048L856.086,222.871z"/>
<path class="st8" d="M810.502,125.949"/>
<path class="st12" d="M895.017,122.95l0.001-0.001c0.948-3.58,1.453-7.339,1.453-11.217c0-24.142-19.571-43.712-43.712-43.712
	s-43.712,19.571-43.712,43.712c0,3.878,0.505,7.638,1.453,11.218c-0.076,0.022-8.503,2.527-4.797,13.074
	c3.722,10.594,26.916,7.731,26.916,7.731s2.772,11.353,20.141,11.69c17.369-0.337,20.141-11.69,20.141-11.69
	s23.193,2.863,26.916-7.731C903.526,125.463,895.071,122.966,895.017,122.95z"/>
<path class="st13" d="M888.689,84.88l0.001-0.001c-0.073-3.702-0.621-7.456-1.687-11.184c-6.637-23.211-30.834-36.648-54.045-30.01
	c-23.211,6.637-36.648,30.834-30.01,54.045c1.066,3.729,2.586,7.205,4.481,10.386c-0.067,0.043-7.481,4.767-1.018,13.889
	c6.492,9.163,28.004,0.033,28.004,0.033s5.786,10.154,22.579,5.702c16.607-5.099,16.151-16.776,16.151-16.776
	s23.087-3.623,23.753-14.833C897.561,84.957,888.745,84.88,888.689,84.88z"/>
<path class="st14" d="M891.937,71.704l0.001-0.001c1.287-3.472,2.15-7.166,2.522-11.026c2.316-24.03-15.286-45.388-39.317-47.705
	s-45.388,15.286-47.705,39.317c-0.372,3.86-0.23,7.651,0.37,11.306c-0.078,0.015-8.706,1.7-6.03,12.553
	c2.689,10.903,26.05,10.278,26.05,10.278s1.67,11.567,18.927,13.568c17.321,1.332,21.17-9.703,21.17-9.703
	s22.812,5.076,27.533-5.113C900.166,75.022,891.99,71.725,891.937,71.704z"/>
<path class="st15" d="M873.925,145.325c-1.315,3.189-6.125,11.285-21.138,11.576c-15.06-0.291-19.879-8.387-21.195-11.576
	c-3.025,0.27-11.016,0.716-17.676-1.212l3.685,8.987c5.688,0.947,11.511,0.607,13.991,0.385c1.316,3.189,6.135,11.285,21.195,11.576
	c15.013-0.291,19.823-8.387,21.138-11.576c2.482,0.221,8.303,0.562,13.991-0.385l3.684-8.987
	C884.941,146.041,876.951,145.595,873.925,145.325z"/>
<path class="st15" d="M897.897,108.841c-0.169-2.615-0.561-5.168-1.157-7.645c-4.735,7.235-18.019,10.295-22.134,11.085
	c-0.388,3.428-2.787,12.535-17.141,16.941c-3.204,0.85-6.036,1.199-8.525,1.199c-8.825,0.001-13.364-4.393-15.036-6.502
	c-4.49,1.728-20.833,7.312-27.763,0.098c-0.649,0.642-1.273,1.425-1.769,2.395c-0.516,1.008-0.841,2.101-0.988,3.269
	c0.466,1.056,1.066,2.126,1.834,3.211c6.276,8.857,23.984,2.809,28.686,0.999c1.672,2.109,6.211,6.503,15.036,6.502
	c2.49,0,5.322-0.35,8.525-1.199c14.354-4.406,16.753-13.513,17.141-16.941C879.137,121.383,894.79,117.761,897.897,108.841z"/>
<path class="st15" d="M896.071,87.085c-5.54,8.287-22.563,5.772-27.286,4.888c-1.502,2.837-6.427,9.612-19.166,9.612
	c-0.951,0-1.945-0.038-2.984-0.118c-14.963-1.734-18.982-10.255-19.987-13.557c-4.848-0.035-22.337-0.829-25.964-10.281
	c-0.129,0.288-0.242,0.585-0.344,0.888c-0.264,1.627-0.435,3.275-0.519,4.937c0.077,0.965,0.235,1.971,0.495,3.029
	c2.599,10.539,21.293,11.39,26.331,11.426c1.004,3.301,5.024,11.822,19.987,13.557c1.04,0.08,2.033,0.118,2.984,0.118
	c12.739,0,17.664-6.775,19.166-9.612c4.956,0.928,23.466,3.662,28.028-6.186c0.637-1.375,1.078-2.696,1.335-3.962
	C897.796,89.972,897.096,88.393,896.071,87.085z"/>
<g class="st16">
	<path class="st6" d="M822.034,52.483c-1.312,0-2.413-1.022-2.493-2.349c-0.03-0.492-0.048-0.988-0.048-1.488
		c0-10.523,6.712-19.815,16.701-23.122c1.312-0.433,2.725,0.277,3.159,1.588c0.434,1.311-0.277,2.725-1.588,3.159
		c-7.938,2.627-13.272,10.012-13.272,18.375c0,0.398,0.015,0.792,0.039,1.185c0.083,1.378-0.966,2.563-2.344,2.647
		C822.137,52.481,822.085,52.483,822.034,52.483z"/>
</g>
<path class="st3" d="M624.546,102.649l69.323,0c3.624,0,6.09,3.676,4.715,7.029l-34.661,84.542c-1.729,4.217-7.701,4.217-9.431,0
	l-34.662-84.542C618.456,106.325,620.922,102.649,624.546,102.649z"/>
<path class="st7" d="M699.22,104.07c-1.227-1.83-3.275-2.922-5.478-2.922l-69.323,0c-2.203,0-4.251,1.092-5.478,2.921
	c-1.227,1.83-1.461,4.139-0.625,6.178l34.662,84.541c1.035,2.525,3.374,4.094,6.103,4.094s5.068-1.568,6.103-4.094l34.661-84.542
	C700.681,108.209,700.447,105.899,699.22,104.07z M633.688,126.744l10.575,10.575l-8.231,8.231l-6.15-15L633.688,126.744z
	 M628.649,127.541l-4.056-9.892l6.974,6.974L628.649,127.541z M656.283,104.148h5.594l7.779,7.778l-10.575,10.575l-10.575-10.575
	L656.283,104.148z M646.384,109.805l-5.657-5.657h11.314L646.384,109.805z M666.12,104.148h11.314l-5.657,5.657L666.12,104.148z
	 M661.202,124.623l10.575-10.575l10.575,10.575l-10.575,10.575L661.202,124.623z M669.656,137.319l-10.576,10.576l-10.575-10.575
	l10.576-10.575L669.656,137.319z M656.959,124.623l-10.576,10.575l-10.575-10.575l10.575-10.575L656.959,124.623z M646.384,139.441
	l10.575,10.575l-10.575,10.575l-7.094-7.094l-2.025-4.938L646.384,139.441z M644.263,162.712l-0.847,0.847l-1.177-2.872
	L644.263,162.712z M646.384,164.833l10.576,10.576l-6.16,6.16l-6.15-15.001L646.384,164.833z M648.505,162.712l10.575-10.575
	l10.576,10.576l-10.575,10.575L648.505,162.712z M671.777,164.833l1.735,1.735l-6.15,15l-6.16-6.16L671.777,164.833z
	 M673.898,162.712l2.025-2.025l-1.178,2.873L673.898,162.712z M678.871,153.497l-7.094,7.094l-10.576-10.576l10.576-10.576
	l9.119,9.119L678.871,153.497z M673.898,137.319l10.575-10.575l3.806,3.806l-6.15,15L673.898,137.319z M686.594,124.623l6.974-6.974
	l-4.056,9.892L686.594,124.623z M696.729,105.741c0.679,1.013,0.803,2.24,0.341,3.367l-0.554,1.351l-12.043,12.043l-10.575-10.575
	l7.779-7.779h12.065C694.961,104.148,696.049,104.729,696.729,105.741z M621.432,105.742c0.679-1.013,1.768-1.594,2.987-1.594
	h12.065l7.779,7.778l-10.575,10.575l-12.043-12.043l-0.553-1.35C620.629,107.981,620.754,106.754,621.432,105.742z M662.409,193.65
	c-0.675,1.646-2.162,2.232-3.328,2.232s-2.653-0.586-3.328-2.232l-3.72-9.073l7.047-7.047l7.048,7.048L662.409,193.65z"/>
<path class="st8" d="M616.825,96.729"/>
<path class="st12" d="M701.339,93.73l0.001-0.001c0.948-3.58,1.453-7.339,1.453-11.217c0-24.142-19.571-43.712-43.712-43.712
	s-43.712,19.571-43.712,43.712c0,3.878,0.505,7.638,1.453,11.218c-0.076,0.022-8.503,2.527-4.797,13.074
	c3.722,10.594,26.916,7.731,26.916,7.731s2.772,11.353,20.141,11.69c17.369-0.337,20.141-11.69,20.141-11.69
	s23.193,2.863,26.916-7.731C709.848,96.243,701.393,93.745,701.339,93.73z"/>
<path class="st13" d="M695.011,55.659l0.001-0.001c-0.073-3.702-0.621-7.456-1.687-11.184c-6.637-23.211-30.834-36.648-54.045-30.01
	c-23.211,6.637-36.648,30.834-30.01,54.045c1.066,3.729,2.586,7.205,4.481,10.386c-0.067,0.043-7.481,4.767-1.018,13.889
	c6.492,9.163,28.004,0.033,28.004,0.033s5.786,10.154,22.579,5.702c16.607-5.099,16.151-16.776,16.151-16.776
	s23.087-3.623,23.753-14.833C703.883,55.737,695.068,55.66,695.011,55.659z"/>
<path class="st15" d="M680.247,116.105c-1.315,3.189-6.125,11.285-21.138,11.576c-15.06-0.291-19.879-8.387-21.195-11.576
	c-3.025,0.27-11.016,0.716-17.676-1.212l3.685,8.987c5.688,0.947,11.511,0.607,13.991,0.385c1.316,3.189,6.135,11.285,21.195,11.576
	c15.013-0.291,19.823-8.387,21.138-11.576c2.482,0.221,8.303,0.562,13.991-0.385l3.684-8.987
	C691.263,116.821,683.274,116.374,680.247,116.105z"/>
<path class="st15" d="M704.219,79.621c-0.169-2.615-0.561-5.168-1.157-7.645c-4.735,7.235-18.019,10.295-22.134,11.085
	c-0.388,3.428-2.787,12.535-17.141,16.941c-3.204,0.85-6.036,1.199-8.525,1.199c-8.825,0.001-13.364-4.393-15.036-6.502
	c-4.49,1.728-20.833,7.312-27.763,0.098c-0.649,0.642-1.273,1.425-1.769,2.395c-0.516,1.008-0.841,2.101-0.988,3.269
	c0.466,1.056,1.066,2.126,1.834,3.211c6.276,8.857,23.984,2.809,28.686,0.999c1.672,2.109,6.211,6.503,15.036,6.502
	c2.49,0,5.322-0.35,8.525-1.199c14.354-4.406,16.753-13.513,17.141-16.941C685.459,92.163,701.112,88.541,704.219,79.621z"/>
<g class="st16">
	<path class="st6" d="M620.627,52.342c-1.312,0-2.413-1.022-2.493-2.349c-0.03-0.492-0.048-0.988-0.048-1.488
		c0-10.523,6.712-19.815,16.701-23.122c1.312-0.433,2.725,0.277,3.159,1.588c0.434,1.311-0.277,2.725-1.588,3.159
		c-7.938,2.627-13.272,10.012-13.272,18.375c0,0.398,0.015,0.792,0.039,1.185c0.083,1.378-0.966,2.563-2.344,2.647
		C620.73,52.341,620.678,52.342,620.627,52.342z"/>
</g>
<path class="st3" d="M407.563,78.415l69.323,0c3.624,0,6.09,3.676,4.715,7.029l-34.661,84.542c-1.729,4.217-7.701,4.217-9.431,0
	l-34.662-84.542C401.473,82.092,403.939,78.415,407.563,78.415z"/>
<path class="st7" d="M482.237,79.837c-1.227-1.83-3.275-2.922-5.478-2.922l-69.323,0c-2.203,0-4.251,1.092-5.478,2.921
	c-1.227,1.83-1.461,4.139-0.625,6.178l34.662,84.541c1.035,2.525,3.374,4.094,6.103,4.094s5.068-1.568,6.103-4.094l34.661-84.542
	C483.699,83.975,483.465,81.666,482.237,79.837z M416.705,102.511l10.575,10.575l-8.231,8.231l-6.15-15L416.705,102.511z
	 M411.666,103.308l-4.056-9.892l6.974,6.974L411.666,103.308z M439.301,79.915h5.594l7.779,7.778l-10.575,10.575l-10.575-10.575
	L439.301,79.915z M429.402,85.572l-5.657-5.657h11.314L429.402,85.572z M449.137,79.915h11.314l-5.657,5.657L449.137,79.915z
	 M444.22,100.389l10.575-10.575l10.575,10.575l-10.575,10.575L444.22,100.389z M452.673,113.086l-10.576,10.576l-10.575-10.575
	l10.576-10.575L452.673,113.086z M439.977,100.389l-10.576,10.575l-10.575-10.575l10.575-10.575L439.977,100.389z M429.402,115.207
	l10.575,10.575l-10.575,10.575l-7.094-7.094l-2.025-4.938L429.402,115.207z M427.281,138.478l-0.847,0.847l-1.177-2.872
	L427.281,138.478z M429.402,140.599l10.576,10.576l-6.16,6.16l-6.15-15.001L429.402,140.599z M431.523,138.478l10.575-10.575
	l10.576,10.576l-10.575,10.575L431.523,138.478z M454.795,140.6l1.735,1.735l-6.15,15l-6.16-6.16L454.795,140.6z M456.916,138.479
	l2.025-2.025l-1.178,2.873L456.916,138.479z M461.889,129.264l-7.094,7.094l-10.576-10.576l10.576-10.576l9.119,9.119
	L461.889,129.264z M456.916,113.085l10.575-10.575l3.806,3.806l-6.15,15L456.916,113.085z M469.612,100.389l6.974-6.974
	l-4.056,9.892L469.612,100.389z M479.746,81.508c0.679,1.013,0.803,2.24,0.341,3.367l-0.554,1.351l-12.043,12.043l-10.575-10.575
	l7.779-7.779h12.065C477.979,79.915,479.067,80.496,479.746,81.508z M404.45,81.509c0.679-1.013,1.768-1.594,2.987-1.594h12.065
	l7.779,7.778l-10.575,10.575l-12.043-12.043l-0.553-1.35C403.647,83.748,403.771,82.52,404.45,81.509z M445.426,169.417
	c-0.675,1.646-2.162,2.232-3.328,2.232s-2.653-0.586-3.328-2.232l-3.72-9.073l7.047-7.047l7.048,7.048L445.426,169.417z"/>
<path class="st8" d="M399.842,72.495"/>
<path class="st12" d="M484.357,69.496l0.001-0.001c0.948-3.58,1.453-7.339,1.453-11.217c0-24.142-19.571-43.712-43.712-43.712
	s-43.712,19.571-43.712,43.712c0,3.878,0.505,7.638,1.453,11.218c-0.076,0.022-8.503,2.527-4.797,13.074
	c3.722,10.594,26.916,7.731,26.916,7.731s2.772,11.353,20.141,11.69c17.369-0.337,20.141-11.69,20.141-11.69
	s23.193,2.863,26.916-7.731C492.866,72.009,484.411,69.512,484.357,69.496z"/>
<path class="st15" d="M463.265,91.871c-1.315,3.189-6.125,11.285-21.138,11.576c-15.06-0.291-19.879-8.387-21.195-11.576
	c-3.025,0.27-11.016,0.716-17.676-1.212l3.685,8.987c5.688,0.947,11.511,0.607,13.991,0.385c1.316,3.189,6.135,11.285,21.195,11.576
	c15.013-0.291,19.823-8.387,21.138-11.576c2.482,0.221,8.303,0.562,13.991-0.385l3.684-8.987
	C474.281,92.588,466.292,92.141,463.265,91.871z"/>
<g class="st17">
	<path class="st6" d="M411.374,54.696c-1.312,0-2.413-1.022-2.493-2.349c-0.03-0.492-0.048-0.988-0.048-1.488
		c0-10.523,6.712-19.815,16.701-23.122c1.312-0.433,2.725,0.277,3.159,1.588c0.434,1.311-0.277,2.725-1.588,3.159
		c-7.938,2.627-13.272,10.012-13.272,18.375c0,0.398,0.015,0.792,0.039,1.185c0.083,1.378-0.966,2.563-2.344,2.647
		C411.477,54.695,411.425,54.696,411.374,54.696z"/>
</g>
<path class="st5" d="M-14.562,5.984c-0.106-0.206-0.274-0.32-0.388-0.378c0.07-0.299,0.105-0.606,0.105-0.916
	c0-2.208-1.796-4.004-4.004-4.004s-4.004,1.796-4.004,4.004c0,0.309,0.035,0.617,0.105,0.916c-0.114,0.058-0.283,0.173-0.389,0.38
	c-0.127,0.247-0.128,0.55-0.005,0.9c0.127,0.36,0.464,0.564,0.853,0.676l2.9,7.072c0.092,0.224,0.299,0.363,0.541,0.363
	s0.449-0.139,0.541-0.363l2.9-7.072c0.389-0.112,0.726-0.316,0.853-0.676C-14.432,6.535-14.434,6.231-14.562,5.984z"/>
<g>
	<path class="st5" d="M9.783,10.949c-0.106-0.209-0.276-0.325-0.39-0.383c0.07-0.299,0.105-0.606,0.105-0.915
		c0-0.084-0.003-0.168-0.009-0.251C9.489,9.398,9.49,9.396,9.491,9.394c-0.015-0.232-0.05-0.458-0.103-0.677
		c0,0.001-0.001,0.001-0.001,0.002c0-0.002-0.001-0.004-0.001-0.006c0.085-0.13,0.14-0.275,0.149-0.437
		c0.011-0.19-0.006-0.358-0.05-0.505C9.483,7.765,9.48,7.759,9.478,7.752c-0.01-0.03-0.02-0.06-0.033-0.088
		c-0.003-0.007-0.007-0.014-0.01-0.02C9.423,7.616,9.41,7.59,9.395,7.565c-0.004-0.007-0.009-0.013-0.013-0.02
		c-0.015-0.024-0.03-0.047-0.047-0.069C9.333,7.473,9.332,7.471,9.33,7.469c0.024-0.036,0.046-0.074,0.065-0.114
		c0.156-0.337,0.184-0.639,0.081-0.896C9.392,6.243,9.234,6.112,9.126,6.043C9.224,5.752,9.289,5.45,9.319,5.141
		c0.103-1.065-0.215-2.106-0.896-2.931c-0.68-0.825-1.641-1.336-2.706-1.439C3.52,0.56,1.559,2.175,1.347,4.373
		c-0.03,0.308-0.024,0.618,0.017,0.922C1.245,5.342,1.065,5.441,0.94,5.636C0.791,5.869,0.76,6.17,0.849,6.531
		c0.006,0.023,0.013,0.045,0.02,0.067c-0.116,0.607-0.09,1.238,0.085,1.849C1.039,8.744,1.157,9.03,1.307,9.298
		C1.213,9.385,1.082,9.543,1.037,9.77c-0.054,0.272,0.028,0.564,0.243,0.867c0.025,0.035,0.053,0.067,0.082,0.097
		c-0.057,0.057-0.112,0.126-0.156,0.212c-0.127,0.247-0.128,0.55-0.005,0.9c0.127,0.36,0.464,0.564,0.853,0.676l2.9,7.072
		c0.092,0.224,0.299,0.363,0.541,0.363c0.242,0,0.449-0.139,0.541-0.363l2.9-7.072c0.389-0.112,0.726-0.316,0.853-0.676
		C9.909,11.497,9.908,11.195,9.783,10.949z"/>
	<g>
		<path class="st3" d="M1.758,10.681l6.14,0c0.321,0,0.539,0.326,0.418,0.623l-3.07,7.488c-0.153,0.374-0.682,0.374-0.835,0
			l-3.07-7.488C1.219,11.007,1.437,10.681,1.758,10.681z"/>
	</g>
	<path class="st7" d="M8.372,10.807c-0.109-0.162-0.29-0.259-0.485-0.259l-6.14,0c-0.195,0-0.376,0.097-0.485,0.259
		c-0.109,0.162-0.129,0.367-0.055,0.547l3.07,7.488c0.092,0.224,0.299,0.363,0.541,0.363c0.242,0,0.449-0.139,0.541-0.363
		l3.07-7.488C8.501,11.174,8.481,10.969,8.372,10.807z M2.568,12.815l0.937,0.937l-0.729,0.729l-0.545-1.328L2.568,12.815z
		 M2.122,12.886L1.762,12.01l0.618,0.618L2.122,12.886z M4.569,10.814h0.495l0.689,0.689l-0.937,0.937L3.88,11.503L4.569,10.814z
		 M3.692,11.315l-0.501-0.501h1.002L3.692,11.315z M5.44,10.814h1.002l-0.501,0.501L5.44,10.814z M5.005,12.627l0.937-0.937
		l0.937,0.937l-0.937,0.937L5.005,12.627z M5.753,13.752l-0.937,0.937L3.88,13.752l0.937-0.937L5.753,13.752z M4.629,12.627
		l-0.937,0.937l-0.937-0.937l0.937-0.937L4.629,12.627z M3.692,13.94l0.937,0.937l-0.937,0.937l-0.628-0.628l-0.179-0.437
		L3.692,13.94z M3.505,16.001l-0.075,0.075l-0.104-0.254L3.505,16.001z M3.692,16.189l0.937,0.937l-0.546,0.546l-0.545-1.329
		L3.692,16.189z M3.88,16.001l0.937-0.937l0.937,0.937l-0.937,0.937L3.88,16.001z M5.941,16.189l0.154,0.154L5.55,17.671
		l-0.546-0.546L5.941,16.189z M6.129,16.001l0.179-0.179l-0.104,0.254L6.129,16.001z M6.57,15.185l-0.628,0.628l-0.937-0.937
		l0.937-0.937l0.808,0.808L6.57,15.185z M6.129,13.752l0.937-0.937l0.337,0.337l-0.545,1.329L6.129,13.752z M7.254,12.627
		l0.618-0.618l-0.359,0.876L7.254,12.627z M8.151,10.955c0.06,0.09,0.071,0.198,0.03,0.298l-0.049,0.12l-1.067,1.067l-0.937-0.937
		l0.689-0.689h1.069C7.995,10.814,8.091,10.865,8.151,10.955z M1.482,10.955c0.06-0.09,0.157-0.141,0.265-0.141h1.069l0.689,0.689
		l-0.937,0.937l-1.067-1.067l-0.049-0.12C1.411,11.153,1.422,11.045,1.482,10.955z M5.112,18.741
		c-0.06,0.146-0.191,0.198-0.295,0.198c-0.103,0-0.235-0.052-0.295-0.198l-0.329-0.804l0.624-0.624l0.624,0.624L5.112,18.741z"/>
	<path class="st8" d="M1.074,10.157"/>
	<g>
		<path class="st18" d="M8.56,9.891L8.56,9.891c0.084-0.317,0.129-0.65,0.129-0.994c0-2.138-1.733-3.871-3.871-3.871
			S0.945,6.76,0.945,8.898c0,0.343,0.045,0.676,0.129,0.994c-0.007,0.002-0.753,0.224-0.425,1.158
			c0.33,0.938,2.384,0.685,2.384,0.685s0.245,1.006,1.784,1.035c1.538-0.03,1.784-1.035,1.784-1.035s2.054,0.254,2.384-0.685
			C9.313,10.114,8.564,9.893,8.56,9.891z"/>
		<path class="st19" d="M4.819,12.902c-1.334-0.026-1.761-0.743-1.877-1.025c-0.444,0.04-2.1,0.123-2.418-0.784
			c-0.123-0.351-0.122-0.654,0.005-0.9c0.106-0.206,0.275-0.321,0.389-0.38c-0.07-0.299-0.105-0.606-0.105-0.916
			c0-2.208,1.796-4.004,4.004-4.004S8.821,6.69,8.821,8.898c0,0.309-0.035,0.617-0.105,0.915C8.831,9.871,9,9.987,9.106,10.196
			c0.125,0.246,0.126,0.548,0.004,0.897C8.791,12,7.136,11.916,6.692,11.877C6.575,12.159,6.149,12.876,4.819,12.902z M3.033,11.601
			c0.06,0,0.114,0.041,0.129,0.101c0.009,0.036,0.249,0.907,1.657,0.934c1.403-0.027,1.643-0.898,1.652-0.935
			c0.017-0.065,0.079-0.108,0.145-0.1c0.542,0.066,2.001,0.089,2.242-0.597c0.098-0.278,0.101-0.51,0.01-0.689
			c-0.114-0.225-0.346-0.297-0.348-0.298c-0.069-0.021-0.109-0.092-0.09-0.161c0.083-0.311,0.124-0.634,0.124-0.959
			c0-2.061-1.677-3.739-3.739-3.739S1.078,6.836,1.078,8.898c0,0.325,0.042,0.648,0.124,0.96c0.018,0.07-0.022,0.141-0.091,0.161
			c-0.002,0.001-0.234,0.073-0.347,0.298c-0.091,0.179-0.087,0.411,0.011,0.688c0.241,0.687,1.7,0.664,2.242,0.597
			C3.022,11.601,3.028,11.601,3.033,11.601z"/>
	</g>
	<g>
		<path class="st2" d="M7.999,6.519L7.999,6.519C7.993,6.191,7.944,5.859,7.85,5.529C7.262,3.473,5.119,2.283,3.063,2.871
			s-3.246,2.731-2.658,4.787c0.094,0.33,0.229,0.638,0.397,0.92C0.796,8.581,0.14,9,0.712,9.807c0.575,0.812,2.48,0.003,2.48,0.003
			s0.512,0.899,2,0.505c1.471-0.452,1.43-1.486,1.43-1.486s2.045-0.321,2.104-1.314C8.785,6.526,8.004,6.519,7.999,6.519z"/>
		<path class="st20" d="M4.476,10.549c-0.782,0-1.184-0.389-1.332-0.576c-0.416,0.16-1.985,0.696-2.541-0.089
			C0.389,9.582,0.307,9.291,0.361,9.019c0.045-0.23,0.176-0.387,0.27-0.474C0.481,8.277,0.363,7.991,0.278,7.694
			C-0.329,5.571,0.904,3.35,3.027,2.743C5.15,2.136,7.371,3.369,7.978,5.492C8.063,5.79,8.113,6.095,8.128,6.401
			c0.125,0.024,0.318,0.088,0.476,0.256C8.795,6.86,8.881,7.152,8.859,7.524c-0.057,0.96-1.671,1.334-2.11,1.418
			c-0.034,0.304-0.247,1.11-1.518,1.5C4.947,10.518,4.696,10.549,4.476,10.549z M3.192,9.678c0.046,0,0.091,0.024,0.116,0.067
			c0.019,0.032,0.488,0.804,1.85,0.442C6.5,9.775,6.491,8.872,6.49,8.834C6.488,8.767,6.536,8.709,6.602,8.698
			c0.539-0.085,1.949-0.464,1.992-1.19C8.611,7.214,8.551,6.99,8.414,6.843C8.243,6.659,8,6.652,7.998,6.652
			c-0.05-0.001-0.096-0.03-0.118-0.074C7.872,6.56,7.867,6.541,7.867,6.522h0C7.86,6.2,7.811,5.878,7.722,5.565
			C7.155,3.583,5.082,2.431,3.1,2.999c-1.982,0.567-3.133,2.64-2.567,4.622c0.089,0.313,0.218,0.612,0.383,0.888
			c0.037,0.062,0.018,0.141-0.043,0.18C0.872,8.691,0.669,8.824,0.621,9.072C0.583,9.269,0.65,9.49,0.82,9.731
			c0.42,0.593,1.817,0.17,2.32-0.042C3.157,9.681,3.175,9.678,3.192,9.678z"/>
	</g>
	<g>
		<path class="st0" d="M8.287,5.352L8.287,5.352C8.401,5.045,8.477,4.718,8.51,4.376c0.205-2.128-1.354-4.02-3.482-4.225
			s-4.02,1.354-4.225,3.482C0.77,3.975,0.783,4.311,0.836,4.634C0.829,4.636,0.065,4.785,0.302,5.746
			c0.238,0.966,2.307,0.91,2.307,0.91s0.148,1.024,1.676,1.202C5.819,7.976,6.16,6.999,6.16,6.999s2.02,0.45,2.439-0.453
			C9.016,5.646,8.291,5.354,8.287,5.352z"/>
		<path class="st21" d="M4.539,8.001c-0.084,0-0.172-0.003-0.264-0.01C2.95,7.837,2.594,7.082,2.505,6.79
			C2.059,6.787,0.403,6.711,0.173,5.778C0.084,5.416,0.115,5.115,0.265,4.881C0.39,4.686,0.569,4.588,0.688,4.542
			C0.647,4.238,0.641,3.928,0.671,3.62c0.212-2.198,2.172-3.813,4.37-3.602c1.065,0.103,2.026,0.614,2.706,1.439
			s0.998,1.866,0.896,2.931C8.613,4.697,8.548,4.999,8.45,5.29C8.557,5.358,8.713,5.488,8.8,5.702
			c0.104,0.258,0.077,0.561-0.08,0.899C8.315,7.474,6.676,7.232,6.237,7.15C6.104,7.401,5.668,8.001,4.539,8.001z M2.609,6.524
			c0.066,0,0.122,0.048,0.131,0.114c0.006,0.037,0.161,0.926,1.56,1.089C5.7,7.833,6.022,6.99,6.035,6.954
			c0.023-0.063,0.089-0.1,0.154-0.085C6.722,6.987,8.172,7.15,8.478,6.49c0.124-0.267,0.15-0.497,0.077-0.684
			c-0.092-0.235-0.315-0.329-0.318-0.33c-0.066-0.027-0.1-0.102-0.075-0.169c0.112-0.302,0.185-0.619,0.216-0.943
			c0.096-0.994-0.201-1.966-0.836-2.736C6.907,0.856,6.009,0.379,5.015,0.283C4.021,0.187,3.05,0.484,2.279,1.119
			C1.508,1.754,1.031,2.652,0.935,3.646C0.904,3.969,0.915,4.295,0.967,4.613C0.979,4.684,0.931,4.752,0.86,4.765
			c-0.001,0-0.239,0.05-0.374,0.263c-0.107,0.169-0.126,0.4-0.056,0.686C0.605,6.42,2.06,6.538,2.605,6.524
			C2.607,6.524,2.608,6.524,2.609,6.524z"/>
	</g>
	<path class="st15" d="M6.692,11.873c-0.116,0.282-0.542,0.999-1.872,1.025c-1.334-0.026-1.761-0.743-1.877-1.025
		c-0.268,0.024-0.976,0.063-1.566-0.107l0.326,0.796c0.504,0.084,1.019,0.054,1.239,0.034c0.117,0.282,0.543,0.999,1.877,1.025
		c1.33-0.026,1.756-0.743,1.872-1.025c0.22,0.02,0.735,0.05,1.239-0.034l0.326-0.796C7.667,11.936,6.96,11.897,6.692,11.873z"/>
	<path class="st15" d="M8.815,8.642C8.8,8.41,8.765,8.184,8.712,7.965c-0.419,0.641-1.596,0.912-1.96,0.982
		c-0.034,0.304-0.247,1.11-1.518,1.5c-0.284,0.075-0.535,0.106-0.755,0.106c-0.782,0-1.184-0.389-1.332-0.576
		c-0.398,0.153-1.845,0.648-2.459,0.009c-0.058,0.057-0.113,0.126-0.157,0.212c-0.046,0.089-0.074,0.186-0.088,0.29
		c0.041,0.094,0.094,0.188,0.162,0.284c0.556,0.784,2.124,0.249,2.541,0.088c0.148,0.187,0.55,0.576,1.332,0.576
		c0.221,0,0.471-0.031,0.755-0.106c1.271-0.39,1.484-1.197,1.518-1.5C7.153,9.752,8.539,9.432,8.815,8.642z"/>
	<path class="st15" d="M8.653,6.715C8.162,7.449,6.655,7.226,6.236,7.148C6.103,7.399,5.667,7.999,4.539,7.999
		c-0.084,0-0.172-0.003-0.264-0.01C2.949,7.835,2.593,7.08,2.504,6.788c-0.429-0.003-1.978-0.073-2.3-0.911
		c-0.011,0.026-0.021,0.052-0.03,0.079C0.151,6.1,0.136,6.246,0.128,6.393c0.007,0.085,0.021,0.175,0.044,0.268
		c0.23,0.933,1.886,1.009,2.332,1.012c0.089,0.292,0.445,1.047,1.77,1.201c0.092,0.007,0.18,0.01,0.264,0.01
		c1.128,0,1.564-0.6,1.697-0.851c0.439,0.082,2.078,0.324,2.482-0.548c0.056-0.122,0.095-0.239,0.118-0.351
		C8.806,6.97,8.744,6.831,8.653,6.715z"/>
	<g class="st16">
		<path class="st6" d="M2.096,3.65c-0.116,0-0.214-0.091-0.221-0.208C1.872,3.398,1.871,3.355,1.871,3.31
			c0-0.932,0.594-1.755,1.479-2.048c0.116-0.038,0.241,0.025,0.28,0.141c0.038,0.116-0.025,0.241-0.141,0.28
			C2.786,1.916,2.314,2.57,2.314,3.31c0,0.035,0.001,0.07,0.003,0.105C2.324,3.537,2.231,3.642,2.109,3.65
			C2.105,3.65,2.1,3.65,2.096,3.65z"/>
	</g>
</g>
<path class="st8" d="M-10.951,7.57"/>
<path class="st5" d="M-2.174,8.318c-0.106-0.206-0.274-0.32-0.387-0.377c0.07-0.299,0.105-0.606,0.105-0.915
	c0-0.084-0.003-0.168-0.009-0.251c0.001-0.002,0.001-0.003,0.002-0.005c-0.015-0.232-0.05-0.458-0.103-0.677
	c0,0.001-0.001,0.001-0.001,0.002c0-0.002-0.001-0.004-0.001-0.006c0.085-0.13,0.14-0.275,0.149-0.437
	c0.022-0.37-0.062-0.659-0.25-0.862c-0.16-0.172-0.354-0.236-0.48-0.261C-3.165,4.223-3.215,3.918-3.3,3.62
	c-0.294-1.028-0.971-1.881-1.906-2.4c-0.935-0.519-2.016-0.643-3.045-0.349c-1.028,0.294-1.881,0.971-2.4,1.906
	C-11.17,3.712-11.294,4.794-11,5.822c0.085,0.297,0.204,0.583,0.353,0.851c-0.094,0.087-0.225,0.244-0.27,0.474
	c-0.053,0.272,0.029,0.563,0.243,0.865c0.025,0.035,0.053,0.067,0.082,0.097c-0.058,0.057-0.113,0.126-0.157,0.212
	c-0.126,0.247-0.128,0.549-0.005,0.9c0.127,0.36,0.464,0.564,0.853,0.676l2.9,7.072c0.092,0.224,0.299,0.363,0.541,0.363
	c0.242,0,0.449-0.139,0.541-0.363l2.9-7.072c0.389-0.112,0.726-0.316,0.853-0.676C-2.044,8.869-2.046,8.566-2.174,8.318z"/>
<g>
	<path class="st3" d="M-10.267,8.094l6.14,0c0.321,0,0.539,0.326,0.418,0.623l-3.07,7.488c-0.153,0.374-0.682,0.374-0.835,0
		l-3.07-7.488C-10.807,8.42-10.588,8.094-10.267,8.094z"/>
</g>
<path class="st7" d="M-3.653,8.22c-0.109-0.162-0.29-0.259-0.485-0.259l-6.14,0c-0.195,0-0.376,0.097-0.485,0.259
	c-0.109,0.162-0.129,0.367-0.055,0.547l3.07,7.488c0.092,0.224,0.299,0.363,0.541,0.363s0.449-0.139,0.541-0.363l3.07-7.488
	C-3.524,8.586-3.545,8.382-3.653,8.22z M-9.457,10.228l0.937,0.937l-0.729,0.729l-0.545-1.328L-9.457,10.228z M-9.904,10.299
	l-0.359-0.876l0.618,0.618L-9.904,10.299z M-7.456,8.227h0.495l0.689,0.689l-0.937,0.937l-0.937-0.937L-7.456,8.227z M-8.333,8.728
	l-0.501-0.501h1.002L-8.333,8.728z M-6.585,8.227h1.002l-0.501,0.501L-6.585,8.227z M-7.021,10.04l0.937-0.937l0.937,0.937
	l-0.937,0.937L-7.021,10.04z M-6.272,11.165l-0.937,0.937l-0.937-0.937l0.937-0.937L-6.272,11.165z M-7.396,10.04l-0.937,0.937
	L-9.27,10.04l0.937-0.937L-7.396,10.04z M-8.333,11.353l0.937,0.937l-0.937,0.937l-0.628-0.628l-0.179-0.437L-8.333,11.353z
	 M-8.521,13.414l-0.075,0.075L-8.7,13.234L-8.521,13.414z M-8.333,13.601l0.937,0.937l-0.546,0.546l-0.545-1.329L-8.333,13.601z
	 M-8.145,13.414l0.937-0.937l0.937,0.937l-0.937,0.937L-8.145,13.414z M-6.084,13.602l0.154,0.154l-0.545,1.329l-0.546-0.546
	L-6.084,13.602z M-5.896,13.414l0.179-0.179l-0.104,0.254L-5.896,13.414z M-5.456,12.597l-0.628,0.628l-0.937-0.937l0.937-0.937
	l0.808,0.808L-5.456,12.597z M-5.896,11.165l0.937-0.937l0.337,0.337l-0.545,1.329L-5.896,11.165z M-4.772,10.04l0.618-0.618
	l-0.359,0.876L-4.772,10.04z M-3.874,8.368c0.06,0.09,0.071,0.198,0.03,0.298l-0.049,0.12L-4.96,9.852l-0.937-0.937l0.689-0.689
	h1.069C-4.031,8.227-3.934,8.278-3.874,8.368z M-10.543,8.368c0.06-0.09,0.157-0.141,0.265-0.141h1.069l0.689,0.689l-0.937,0.937
	l-1.067-1.067l-0.049-0.12C-10.614,8.566-10.603,8.458-10.543,8.368z M-6.914,16.154c-0.06,0.146-0.191,0.198-0.295,0.198
	s-0.235-0.052-0.295-0.198l-0.329-0.804l0.624-0.624l0.624,0.624L-6.914,16.154z"/>
<g>
	<path class="st18" d="M-3.466,7.304L-3.466,7.304c0.084-0.317,0.129-0.65,0.129-0.994c0-2.138-1.733-3.871-3.871-3.871
		s-3.871,1.733-3.871,3.871c0,0.343,0.045,0.676,0.129,0.994c-0.007,0.002-0.753,0.224-0.425,1.158
		c0.33,0.938,2.384,0.685,2.384,0.685s0.245,1.006,1.784,1.035c1.538-0.03,1.784-1.035,1.784-1.035S-3.37,9.4-3.041,8.462
		C-2.712,7.527-3.461,7.305-3.466,7.304z"/>
	<path class="st19" d="M-7.206,10.315C-8.54,10.289-8.967,9.572-9.083,9.29c-0.444,0.04-2.1,0.123-2.418-0.784
		c-0.123-0.35-0.122-0.653,0.005-0.9c0.106-0.206,0.275-0.322,0.389-0.38c-0.07-0.299-0.105-0.606-0.105-0.916
		c0-2.208,1.796-4.004,4.004-4.004s4.004,1.796,4.004,4.004c0,0.309-0.035,0.617-0.105,0.916c0.114,0.058,0.282,0.172,0.388,0.378
		c0.127,0.247,0.129,0.55,0.006,0.902C-3.234,9.413-4.889,9.329-5.334,9.29C-5.45,9.572-5.876,10.289-7.206,10.315z M-8.992,9.014
		c0.06,0,0.114,0.041,0.129,0.101c0.009,0.036,0.249,0.907,1.657,0.934c1.415-0.028,1.65-0.925,1.652-0.934
		c0.016-0.065,0.079-0.109,0.145-0.1c0.542,0.066,2.001,0.089,2.242-0.597C-3.069,8.14-3.065,7.909-3.156,7.73
		c-0.114-0.225-0.346-0.297-0.348-0.298C-3.572,7.411-3.613,7.339-3.594,7.27c0.083-0.311,0.124-0.634,0.124-0.96
		c0-2.062-1.677-3.739-3.739-3.739s-3.739,1.677-3.739,3.739c0,0.325,0.042,0.648,0.124,0.96c0.018,0.07-0.022,0.141-0.091,0.161
		c-0.002,0.001-0.234,0.073-0.348,0.298c-0.091,0.179-0.087,0.41,0.011,0.688c0.241,0.687,1.701,0.664,2.242,0.597
		C-9.003,9.014-8.998,9.014-8.992,9.014z"/>
</g>
<g>
	<path class="st2" d="M-4.026,3.932L-4.026,3.932c-0.006-0.328-0.055-0.66-0.149-0.991c-0.588-2.056-2.731-3.246-4.787-2.658
		s-3.246,2.731-2.658,4.787c0.094,0.33,0.229,0.638,0.397,0.92c-0.006,0.004-0.663,0.422-0.09,1.23
		c0.575,0.812,2.48,0.003,2.48,0.003s0.512,0.899,2,0.505c1.471-0.452,1.43-1.486,1.43-1.486s2.045-0.321,2.104-1.314
		C-3.24,3.939-4.021,3.932-4.026,3.932z"/>
	<path class="st20" d="M-7.55,7.962c-0.782,0-1.184-0.389-1.332-0.576c-0.416,0.16-1.985,0.696-2.541-0.088
		c-0.215-0.304-0.297-0.596-0.242-0.868c0.045-0.227,0.176-0.384,0.269-0.471c-0.149-0.268-0.268-0.554-0.353-0.851
		c-0.294-1.028-0.17-2.11,0.349-3.045c0.519-0.935,1.372-1.612,2.4-1.906c1.028-0.294,2.11-0.17,3.045,0.349
		c0.935,0.519,1.612,1.372,1.906,2.4c0.085,0.298,0.136,0.603,0.151,0.909c0.125,0.024,0.318,0.088,0.476,0.256
		c0.191,0.202,0.276,0.494,0.254,0.866c-0.057,0.96-1.671,1.334-2.11,1.418c-0.034,0.304-0.247,1.11-1.518,1.5
		C-7.078,7.931-7.329,7.962-7.55,7.962z M-8.833,7.09c0.046,0,0.091,0.024,0.116,0.067C-8.699,7.19-8.229,7.961-6.868,7.6
		c1.342-0.412,1.333-1.315,1.332-1.353C-5.538,6.18-5.49,6.122-5.424,6.111c0.539-0.085,1.949-0.465,1.992-1.19
		c0.017-0.294-0.043-0.518-0.179-0.665c-0.171-0.185-0.414-0.191-0.416-0.191c-0.071-0.001-0.13-0.059-0.132-0.13
		c-0.006-0.322-0.055-0.644-0.144-0.957c-0.275-0.96-0.907-1.756-1.78-2.241c-0.873-0.485-1.883-0.601-2.843-0.326
		c-0.96,0.275-1.756,0.907-2.241,1.78c-0.485,0.873-0.601,1.883-0.326,2.843c0.089,0.313,0.218,0.612,0.383,0.888
		c0.037,0.062,0.018,0.142-0.044,0.181c-0.001,0.001-0.204,0.134-0.252,0.382c-0.038,0.197,0.029,0.419,0.199,0.659
		c0.42,0.593,1.817,0.17,2.32-0.043C-8.868,7.094-8.851,7.09-8.833,7.09z"/>
</g>
<path class="st15" d="M-5.334,9.286c-0.116,0.282-0.542,0.999-1.872,1.025c-1.334-0.026-1.761-0.743-1.877-1.025
	c-0.268,0.024-0.976,0.063-1.566-0.107l0.326,0.796c0.504,0.084,1.019,0.054,1.239,0.034c0.117,0.282,0.543,0.999,1.877,1.025
	c1.33-0.026,1.756-0.743,1.872-1.025c0.22,0.02,0.735,0.05,1.239-0.034l0.326-0.796C-4.358,9.349-5.066,9.31-5.334,9.286z"/>
<path class="st15" d="M-3.211,6.054c-0.015-0.232-0.05-0.458-0.103-0.677c-0.419,0.641-1.596,0.912-1.96,0.982
	c-0.034,0.304-0.247,1.11-1.518,1.5c-0.284,0.075-0.535,0.106-0.755,0.106c-0.782,0-1.184-0.389-1.332-0.576
	c-0.398,0.153-1.845,0.648-2.459,0.009c-0.058,0.057-0.113,0.126-0.157,0.212C-11.54,7.7-11.568,7.797-11.581,7.9
	c0.041,0.094,0.094,0.188,0.162,0.284c0.556,0.784,2.124,0.249,2.541,0.088c0.148,0.187,0.55,0.576,1.332,0.576
	c0.221,0,0.471-0.031,0.755-0.106c1.271-0.39,1.484-1.197,1.518-1.5C-4.872,7.165-3.486,6.845-3.211,6.054z"/>
<g class="st16">
	<path class="st6" d="M-10.614,3.639c-0.116,0-0.214-0.091-0.221-0.208c-0.003-0.044-0.004-0.087-0.004-0.132
		c0-0.932,0.594-1.755,1.479-2.048c0.116-0.038,0.241,0.025,0.28,0.141c0.038,0.116-0.025,0.241-0.141,0.28
		c-0.703,0.233-1.176,0.887-1.176,1.627c0,0.035,0.001,0.07,0.003,0.105c0.007,0.122-0.086,0.227-0.208,0.234
		C-10.605,3.638-10.61,3.639-10.614,3.639z"/>
</g>
<g>
	<path class="st3" d="M-22.571,5.788l6.14,0c0.321,0,0.539,0.326,0.418,0.623l-3.07,7.488c-0.153,0.374-0.682,0.374-0.835,0
		l-3.07-7.488C-23.111,6.113-22.892,5.788-22.571,5.788z"/>
</g>
<path class="st7" d="M-15.958,5.914c-0.109-0.162-0.29-0.259-0.485-0.259l-6.14,0c-0.195,0-0.376,0.097-0.485,0.259
	c-0.109,0.162-0.129,0.367-0.055,0.547l3.07,7.488c0.092,0.224,0.299,0.363,0.541,0.363s0.449-0.139,0.541-0.363l3.07-7.488
	C-15.828,6.28-15.849,6.076-15.958,5.914z M-21.762,7.922l0.937,0.937l-0.729,0.729l-0.545-1.328L-21.762,7.922z M-22.208,7.992
	l-0.359-0.876l0.618,0.618L-22.208,7.992z M-19.76,5.921h0.495l0.689,0.689l-0.937,0.937l-0.937-0.937L-19.76,5.921z M-20.637,6.422
	l-0.501-0.501h1.002L-20.637,6.422z M-18.889,5.921h1.002l-0.501,0.501L-18.889,5.921z M-19.325,7.734l0.937-0.937l0.937,0.937
	l-0.937,0.937L-19.325,7.734z M-18.576,8.858l-0.937,0.937l-0.937-0.937l0.937-0.937L-18.576,8.858z M-19.701,7.734l-0.937,0.937
	l-0.937-0.937l0.937-0.937L-19.701,7.734z M-20.637,9.046l0.937,0.937l-0.937,0.937l-0.628-0.628l-0.179-0.437L-20.637,9.046z
	 M-20.825,11.107l-0.075,0.075l-0.104-0.254L-20.825,11.107z M-20.637,11.295l0.937,0.937l-0.546,0.546l-0.545-1.329L-20.637,11.295
	z M-20.449,11.107l0.937-0.937l0.937,0.937l-0.937,0.937L-20.449,11.107z M-18.388,11.295l0.154,0.154l-0.545,1.329l-0.546-0.546
	L-18.388,11.295z M-18.2,11.107l0.179-0.179l-0.104,0.254L-18.2,11.107z M-17.76,10.291l-0.628,0.628l-0.937-0.937l0.937-0.937
	l0.808,0.808L-17.76,10.291z M-18.2,8.858l0.937-0.937l0.337,0.337l-0.545,1.329L-18.2,8.858z M-17.076,7.734l0.618-0.618
	l-0.359,0.876L-17.076,7.734z M-16.178,6.062c0.06,0.09,0.071,0.198,0.03,0.298l-0.049,0.12l-1.067,1.067L-18.2,6.61l0.689-0.689
	h1.069C-16.335,5.921-16.239,5.972-16.178,6.062z M-22.847,6.062c0.06-0.09,0.157-0.141,0.265-0.141h1.069l0.689,0.689l-0.937,0.937
	l-1.067-1.067l-0.049-0.12C-22.918,6.26-22.907,6.151-22.847,6.062z M-19.218,13.848c-0.06,0.146-0.191,0.198-0.295,0.198
	c-0.103,0-0.235-0.052-0.295-0.198l-0.329-0.804l0.624-0.624l0.624,0.624L-19.218,13.848z"/>
<path class="st8" d="M-23.255,5.263"/>
<g>
	<path class="st18" d="M-15.77,4.998L-15.77,4.998c0.084-0.317,0.129-0.65,0.129-0.994c0-2.138-1.733-3.871-3.871-3.871
		s-3.871,1.733-3.871,3.871c0,0.343,0.045,0.676,0.129,0.994C-23.262,5-24.009,5.222-23.68,6.156
		c0.33,0.938,2.384,0.685,2.384,0.685s0.245,1.006,1.784,1.035c1.538-0.03,1.784-1.035,1.784-1.035s2.054,0.254,2.384-0.685
		C-15.016,5.22-15.765,4.999-15.77,4.998z"/>
	<path class="st19" d="M-19.51,8.009c-1.334-0.026-1.761-0.743-1.877-1.025c-0.444,0.04-2.1,0.123-2.418-0.784
		c-0.123-0.35-0.122-0.653,0.005-0.9c0.106-0.206,0.275-0.322,0.389-0.38c-0.07-0.299-0.105-0.606-0.105-0.916
		c0-2.208,1.796-4.004,4.004-4.004s4.004,1.796,4.004,4.004c0,0.309-0.035,0.617-0.105,0.915c0.115,0.058,0.284,0.174,0.39,0.383
		c0.125,0.246,0.126,0.548,0.004,0.897c-0.319,0.907-1.974,0.823-2.418,0.784C-17.755,7.266-18.181,7.983-19.51,8.009z
		 M-21.296,6.708c0.06,0,0.114,0.041,0.129,0.101c0.009,0.036,0.249,0.907,1.657,0.934c1.415-0.028,1.65-0.925,1.652-0.934
		c0.016-0.065,0.079-0.109,0.145-0.1c0.542,0.066,2.001,0.089,2.242-0.597c0.098-0.278,0.101-0.51,0.01-0.689
		c-0.114-0.225-0.346-0.297-0.348-0.298c-0.069-0.021-0.109-0.092-0.09-0.161c0.083-0.311,0.124-0.634,0.124-0.959
		c0-2.062-1.677-3.739-3.739-3.739s-3.739,1.677-3.739,3.739c0,0.325,0.042,0.648,0.124,0.96c0.018,0.07-0.022,0.141-0.091,0.161
		c-0.002,0.001-0.234,0.073-0.348,0.298c-0.091,0.179-0.087,0.41,0.011,0.688c0.241,0.687,1.7,0.664,2.242,0.597
		C-21.307,6.708-21.302,6.708-21.296,6.708z"/>
</g>
<path class="st15" d="M-17.638,6.98c-0.116,0.282-0.542,0.999-1.872,1.025c-1.334-0.026-1.761-0.743-1.877-1.025
	c-0.268,0.024-0.976,0.063-1.566-0.107l0.326,0.796c0.504,0.084,1.019,0.054,1.239,0.034c0.117,0.282,0.543,0.999,1.877,1.025
	c1.33-0.026,1.756-0.743,1.872-1.025c0.22,0.02,0.735,0.05,1.239-0.034l0.326-0.796C-16.662,7.043-17.37,7.003-17.638,6.98z"/>
<g class="st17">
	<path class="st6" d="M-22.234,3.687c-0.116,0-0.214-0.091-0.221-0.208c-0.003-0.044-0.004-0.087-0.004-0.132
		c0-0.932,0.594-1.755,1.479-2.048c0.116-0.038,0.241,0.025,0.28,0.141c0.038,0.116-0.025,0.241-0.141,0.28
		c-0.703,0.233-1.176,0.887-1.176,1.627c0,0.035,0.001,0.07,0.003,0.105c0.007,0.122-0.086,0.227-0.208,0.234
		C-22.225,3.687-22.229,3.687-22.234,3.687z"/>
</g>
<text transform="matrix(1 0 0 1 392.374 -59.2238)"><tspan x="0" y="0" style="font-family:'Bjola'; font-size:18px;">BARQUILLO </tspan><tspan x="20.952" y="21.6" style="font-family:'Bjola'; font-size:18px;">SIMPLE</tspan></text>
<text transform="matrix(1 0 0 1 379.3031 -0.5033)" style="font-family:'Bjola'; font-size:39.1201px;">$1.200</text>
<text transform="matrix(1 0 0 1 603.3696 -61.1973)"><tspan x="0" y="0" style="font-family:'Bjola'; font-size:18px;">BARQUILLO </tspan><tspan x="23.633" y="21.6" style="font-family:'Bjola'; font-size:18px;">DOBLE</tspan></text>
<text transform="matrix(1 0 0 1 589.7704 -2.4768)" style="font-family:'Bjola'; font-size:39.1201px;">$1.800</text>
<text transform="matrix(1 0 0 1 809.9761 -59.1252)"><tspan x="0" y="0" style="font-family:'Bjola'; font-size:18px;">BARQUILLO </tspan><tspan x="23.139" y="21.6" style="font-family:'Bjola'; font-size:18px;">TRIPLE</tspan></text>
<text transform="matrix(1 0 0 1 793.3061 -0.4047)" style="font-family:'Bjola'; font-size:39.1201px;">$2.200</text>
<path class="st1" d="M471.195-111.25c0,0,26.805-32.582,40.099-21.422c7.968,6.69,2.252,17.589-9.284,17.477
	C490.474-115.307,471.195-111.25,471.195-111.25z"/>
<path class="st1" d="M396.905,120.502c0,0-41.817,5.604-43.952-11.621c-1.279-10.325,10.33-14.414,18.701-6.475
	S396.905,120.502,396.905,120.502z"/>
<circle class="st1" cx="460.452" cy="-114.27" r="5.02"/>
<circle class="st1" cx="352.856" cy="89.092" r="5.02"/>
</svg>
